<svg xmlns="http://www.w3.org/2000/svg" width="501.283" height="469.357" viewBox="0 0 501.283 469.357">
  <g id="Translator" transform="translate(-10.384 -19.644)">
    <g id="freepik--background-simple--inject-4" transform="translate(48.183 19.644)">
      <path id="Path_13157" data-name="Path 13157" d="M198.867,28.338c47.562-12.652,101.819-12.526,148.1,7.254A290.622,290.622,0,0,1,392.648,60.37c110.2,72.656,114.4,180.791,95.167,233.172-11.008,29.965-41.067,47.9-66.636,64.105-22.637,14.35-62.355,31.578-72.751,58.485-14.034,36.3-33.37,87.111-92.784,69.134s-105.689-35.954-152.7-120.06S38.257,222.33,49.591,168.589C64.89,96.112,127.856,47.18,198.867,28.338Z" transform="translate(-46.272 -19.644)" fill="#f24405"/>
      <path id="Path_13158" data-name="Path 13158" d="M198.867,28.338c47.562-12.652,101.819-12.526,148.1,7.254A290.622,290.622,0,0,1,392.648,60.37c110.2,72.656,114.4,180.791,95.167,233.172-11.008,29.965-41.067,47.9-66.636,64.105-22.637,14.35-62.355,31.578-72.751,58.485-14.034,36.3-33.37,87.111-92.784,69.134s-105.689-35.954-152.7-120.06S38.257,222.33,49.591,168.589C64.89,96.112,127.856,47.18,198.867,28.338Z" transform="translate(-46.272 -19.644)" fill="#fff" opacity="0.7"/>
    </g>
    <g id="freepik--Map--inject-4" transform="translate(18.553 70.201)">
      <g id="Group_10865" data-name="Group 10865" transform="translate(0 0)" opacity="0.15">
        <path id="Path_13159" data-name="Path 13159" d="M133.823,128.711C138.272,125.453,134.677,134.183,133.823,128.711Zm-3.606.327a1.508,1.508,0,0,0,1.676-1.824C131.482,127.425,128.192,129.038,130.217,129.038Zm7.212-26.686a6.969,6.969,0,0,1,2.636-1.234c-1.676-1.729-3.964-1.4-6.1-1.371C133.97,102.036,135.383,102.953,137.429,102.352ZM346.951,219.628c-.78,1.054-.232,7.138,1.835,5.061C349.924,223.551,347.309,220.071,346.951,219.628Zm85.4,77.5c.506,1.8,1.814,3.943,3.353,4.418a1.645,1.645,0,0,0,0-1.054h1.149c.063-1.518.453-1.845.453-3.279C436.255,297.535,432.238,296.312,432.354,297.124Zm4.291-2.183a1.476,1.476,0,0,0,1.191,1.413c0-1.16-.453-1.413-1.191-1.413-.021.084.074,0-.021,0Zm-5.05-.39c-.759.411-.274,1.054.274,1.286,0-.126.169-1.476-.274-1.286-.137.042.053-.042-.021,0Zm33.2,12.5c2.235,0,2.762-4.608,5.483-5.209-1.191-2.752,3.311-2.32.074-4.492-2.573-1.687-1.539,1.2-3.058,3.047-1.35,1.655-3.88,2.109-4.861,3.975-.738,1.476-.506,3.089,2.362,2.678Zm-1.74.749a2.363,2.363,0,0,0-.485.58h1.118C463.742,307.973,463.69,307.33,463.057,307.8Zm8.814-17.028c0,.749.063,2.7.063,2.868,0-.169-1.054-.084-1.118.822,0,1.16.8-.084.981.643,0-.084,1.128,2.741,1.792,2.53.253-.084.917-1.466,1.329-1.887,2.109-2.109,3.49-4.724-.685-3.9,0-1.255-.485-3.163-1.265-1.286-.865-.612-.981-2.562-1.972-3.648-1.877-2.066.854,3.089.854,3.859Zm-13.707-27.055c1.054,1.782,1.972,3.247,4.217,3.5-.221-1.075-3.353-3.543-4.26-3.5Zm-44.789-13.58c-1.75.348.9.759,1.518.7v-.6C414.535,250.194,412.891,250.194,413.375,250.142Zm15.657.78c-2.109,2.8.728,9.69-3.88,8.319,0,0-4.217-2.984-4.291-3.216-.791-1.908.843-2.921,1.371-4.418-2.341-.348-4.618-1.655-6.864-1.655.443.432.39.749,1.191,1.265-.411-.274-2.773,1.466-3.4,1.887-1.866,1.307,1.054,1.571-2.109,2.235-1.054.211-1.5-1.371-3.163-.685-1.392.559-1.56,2.594-3.163,2.594.232.559.3,1.455.569,1.993h-1.213v-1.054c-1.835-.105-2.457,4.217-4.544,5.272-1.582.833-4.017,1.054-5.746,1.845-.759.3-1.276,3.047-2.172.749-.759,2.552-.928,4.059.358,6.569-2.773-1.381.232,3.321.791,5,1.17,3.384,2.309,5.6,0,7.8,1.592,0,2.53,1.951,4.576,1.592,1.17-.169,1.761-1.719,3.068-2.014,1.054-.306,2.109.812,3,.548s.949-1.054,1.729-1.455,1.56-1.244,2.393-1.624c.59-.285,1.054.664,1.8.38,2.467-1.054,5.272-2.615,8.182-.938,1.74,1.054,3.416,8.319,5.272,1.761,1.318.485-.063,1.5.127,2.741,1.645-1.054,1.054.432.9,2.056,2.7-.559,1.487,2.035,3.479,3.817a13.844,13.844,0,0,0,3.163,1.054c1.36,0,.938-1.476,1.792-1.529s.875,1.782,1.444,1.655c2.773-.643,5.672-1.8,6.685-4.629.664-1.845.822-3.754,1.877-5.725a13.317,13.317,0,0,0,.548-12.336,7.38,7.38,0,0,0-1.666-2.109c-.443-.538-.443-1.508-.759-1.919a11.387,11.387,0,0,1-1.866-.917c-.453-.474-.411-1.613-.9-2.109-.664-.685-2.309-1.2-2.815-1.887-1.244-1.687-1.592-5.019-2.53-6.642-.3-.517-1.149-.907-1.6-1.676-.527-.938-.253-3.258-1.518-3.606a5.879,5.879,0,0,0-.084,1.012Zm23.3-2.984c.39.664.822.453,1.328.232-.253-.749-1.74-1.2-1.328-.232.053.105.053-.063.053,0Zm-6.79-5.124c0,.643,1.35,1.455,1.719,1.371-.327-.938-1.328-1.518-1.328-2.425a1.181,1.181,0,0,0-.538.063,3.017,3.017,0,0,1,.19.991Zm-7.992-.907c.158,1.951,5.272.991,4.776-2.056-.253,0-4.776,2.784-4.776,2.056.074.243.074-.127.074,0Zm-23.2,3.827c0,.3,1.982.643,1.054-1.466a1.118,1.118,0,0,0-.981,1.466Zm-7.138-.928c.137.791.9.622,1.518.316-.506-.506-.78-.148-1.5-.316Zm11.714-3.047a2.319,2.319,0,0,0-.833,1.7c.021,1.244,2.657-3,.854-1.7Zm-1.94-2.446c1.265-.622,2.857.6,4.091,1.223,1.054.538,2.045.211,2.762,1.613.981,1.866-.127,1.371.084,2.446.053.274-1.371.232-.759,1.476.274.58,1.866-.728,2.414-.58,1.74.538,2.414,2.256,4.586,1.529,1.318-.432,1.265-2.541,3.448-1.676.854.337,1.054,1.5,1.814,1.972,1.455.949.738.643,2.731,1.16,2.994.749,2,.991.527-1.286-.221-.348-1.676-.158-1.929-.39a11.312,11.312,0,0,0-.633-1.951c-.053-.232-1.866-1.7.474-1.455a13.38,13.38,0,0,0-3.669-3.311,23.428,23.428,0,0,0-5.873-2.467c-3.163-1.128-3.015-.443-5.546,0-1.582.306-3.3-.527-5.5.095.232.938.569,1.845.981,1.6.095-.021-.042.042.021,0Zm-11-3.279c-1.212.3,1.054.622,1.518.538C407.513,235.665,406.659,235.908,405.995,236.034Zm14.35-1.16a7.81,7.81,0,0,1,.137,1.634h1.381c-.211-.738-.59-.39-.59-1.634h-.928C420.366,234.98,420.693,234.832,420.345,234.874Zm-5.831.084a.991.991,0,0,0-.9.327c1.444.917,3,2.246,4.913,1.286C416.929,233.335,415.98,235.581,414.514,234.959Zm-.327-.517c1.887-2.109-3.258-.685,0,0C414.43,234.189,414.061,234.421,414.187,234.442Zm-1.413,1.887c.506.264.728,1.676.938-.127C413.017,236.329,412.933,236.4,412.774,236.329ZM410.3,238.09c0,.559,2.91,1.054,3.743,1.054-.169-1.7-3.49-1.223-3.743-1.054Zm-1.107.221c-.369-.095-.738-.2-1.128-.285.664,1.782,1.423.474,1.128.285s.095.063-.032,0Zm1.719-8.287c-1.054,1.508-1.7,1.719-1.624,3.859.137,3.026.822-.643,2.457-.359.105-1.054-.369-1.887-1.191-1.824a5.04,5.04,0,0,0,.358-1.676C410.771,230.246,410.908,230.183,410.908,230.024Zm-13.021,8.15s1.413,1.982,1.244,1.761a15.408,15.408,0,0,0,.274,1.972c.991-.727.759-2.91.759-4.112H401c.105.5,1.6,4.217,2.193,3.88,1.054-.517-.9-4.565-1.508-5.43C408.1,236.245,397.887,232.133,397.887,238.175Zm8.024-6.474c-1.054.432-7.212-.474-6.917,2.362,2-1.054,2.552-.822,4.7-1.286.664-.179.875.664,1.676.3C405.795,232.861,407.418,231.015,405.911,231.7Zm-1.434,16.385c0,1.329,4.671-1.2,5.177-1.761-1.824-1-4.871,1.16-5.177,1.761Zm-.59,1.286c-.569.095-.706.327-.411.77h.822c.074-.38,0-.938-.411-.77Zm-4.365-3.11c1.2,1.329,4.987.243,6.326-.4-1.044-.221-5.778-.221-6.305.4Zm-.485.991c-1.74.58,1.434,1.518,2,1.476C400.807,248.433,399.637,247.126,399.036,247.253Zm-3.479-1.307c-.991.084,2.5.316,3.163.316-.221.063-.253-.063-.137-.4a14.833,14.833,0,0,0-3.068.084Zm-15.025-2.573c1.571,1.371,3.817,1.782,6.526,2.109,2.109.253,4.818,1.476,7.117,1.118a2.794,2.794,0,0,0-3.448-1.476c.095-1.054.8-.559,1.518-1.054a53.414,53.414,0,0,0-11.693-.7Zm-4.217-2.214C376.03,241.865,376.22,242.213,376.315,241.158Zm9.848-10.385c-1.835,1.423-.675,3.975.348,5.472,1.508,2.256,2.109,2.014,5,2.53s1.972,1.381,3.606-1.286a22.374,22.374,0,0,1,.685-2.826c.422-.78,2-1.118,2.488-2.277-1.824-1.307-1.318-1.655-1.729-4.544,1.4.084.97-.949,2.362-1.487a12.916,12.916,0,0,1-3.047-2.678c-1.054.084-1.887,2.109-2.752,2.984-1.887,1.866-5.24,5.535-6.959,4.112Zm-14.624,4.513c.084,1.054,1.6,3.49,2.5,3.711-.19-1.381-2.5-3.606-2.5-3.711.021.232,0-.158,0,0Zm-2.214-3.374c.348.738,1.054.949,1.318,1.7a1.887,1.887,0,0,0-1.107-1.993c-.253.728-.021.358-.211.3Zm-1.054-1.993c0-.232-.432-.875-.432-.19a.907.907,0,0,0,.833.981c.2-.38.063-.643-.38-.791Zm.485-3.49c-.78,0-1.213-.865-1.951-.759.327,1.782,2.889,3.543,3.743,4.745,1.35,1.824,2.457,4.523,3.88,6.558.97,1.35,3.279,5.071,4.576,5.093,2.889.084,1.255-2.984,3.532-3.754-.253-1.982-1.908-2.71-3.332-1.592-.158-2.256-7.718-9.953-10.449-10.291-.095,0,.337.042.021,0Zm35.848-5.272c-1.508.169-2.815,1.286-2.014,3.163,1.212-3.163,2.984.474,4.913,1.392-.685-1.6.548-1.951.569-1.993,0-.3.6-4.217-.633-4.217s-1.455,2.71-2.836,1.676c-.211.011.105.053.011-.032Zm-4.1-7.075c0,.548,1.56,4.882,2.71,4.65-.58,1.413,1.487,2.383.981-.39-.242-1.17-2.52-4.049-3.69-4.217-.01.158.095-.011.011-.053Zm2.014-.221c1.729,1.328,2.878,3.88,4.755,4.291,0-2.341-1.972-2.878-1.972-4.955-1.128,0-1.7.664-2.784.664.221.169.221-.011.011-.011Zm-2.636,1.371c-1.054,2.193-3.68,4.376-4.217,6.179,2.3,0,4.217-3.669,4.217-6.179-.032.105.011.253.011-.011Zm1.054-8.941c-2.045,1.223-1.539,5.81.8,6.632-.074-1.508,2.889-6.642-.77-6.642Zm1.371-9.637c0-.738-2.741,1.729-2.341,4.544h.822C400.786,199.311,402.3,198.383,402.3,196.654Zm35.374-34.13c-1.392.274-2.288,1.518-4.1,1.676-1.982.169-2.9-.264-4.987-1.55-.084.685-.9,5.894-1.74,3.985-.369.717-1.613,4.017.411,2.963v.77c-1.223.242-1.814,4.576-3.163,6.326v-1.223a4.67,4.67,0,0,0-1.392,2.267c-.306-.474-.812.348-.622-.981a4.049,4.049,0,0,0-1.36,3.163c-2.773-1.339-7.939,1.191-8.435,4.544h1.6c0,1.476-1.487,2.109.559,2.783,0-1.56,2.288-3.817,0-4.028.485-1.592,3.943-1.592,5.4-1.866-1.571,1.054-4.112,0-3.522,2.984a11.472,11.472,0,0,0,3.395-2.109c.643,1.634,2.414.369,2.109-1.054,5.483-.685,4.449-.991,5.746-6.031.728-2.794,1.582-4.977-.812-7.17,1.613-.337,4.323,1.339,4.217-.622,1.191.285,6.653-3.037,6.653-4.713C437.626,162.524,437.678,162.609,437.678,162.524Zm2.573-1.466c-.59.116-.875.559-1.4.865.854.559,1.054,0,1.4-.865C440.146,161.08,440.135,161.364,440.251,161.059Zm6.78-8.15a7.075,7.075,0,0,1-.833,1.761,1.508,1.508,0,0,0,.833-1.761Zm16.575-8.024c-.137,0-.39-.77-.759-.443a2.688,2.688,0,0,0-.074.875c.232.063,1.107.169.833-.432Zm-1.877.242c-.264-.865-.19-1.392-.907-1.993,0,.812.148,1.518.211,2.309.485.158.833.179.7-.316C461.7,144.99,461.771,145.233,461.728,145.127Zm-3.616-8.277c.517,0,.875-.7.917-1.054-1.213-.517-1.329.3-1.8,1.054A2.109,2.109,0,0,0,458.112,136.851Zm32.031-10.628a13.528,13.528,0,0,0,3.954.6c-.991-2.109-3.163-.485-3.954-.6C490.344,126.254,490.027,126.181,490.143,126.223Zm-12.262-18.7c1.5.38,3.353-.358,4.913-.358a3.616,3.616,0,0,0-2.731-1.613c-.38,0-3.353,1.655-2.183,1.972Zm-43.324-11.6c1.36.59,5.862,2.393,5.862-.4-1.929-.105-4.871.19-5.672-1.286-.137.148-.622,1.476-.19,1.687.074-.032-.095-.127,0-.053Zm-8.329,4.787c1.676.285,3.163-.105,4.776.517C430.456,98.672,427.852,99.337,426.228,100.707Zm1.381-1.929c.917,0-.77-.854-1.3-.833,0,.97.559.875,1.3.875Zm-5.177-3.342c1.5,2.414,9.964,1.761,10.544-1.286-1.339-.285-3.037-1.17-3.037,1.255a2.267,2.267,0,0,0-.843,0c1.466-3.363-1.729-1.444-2.8-1.476C424.119,93.8,423.582,92.662,422.432,95.435Zm-1.466-.612a1.224,1.224,0,0,1,0-.907c-1.539-.243-.759,1.539,0,.907-.021-.137-.137.074,0-.042Zm-.759,3.279c.464,1.244.411,1.993,1.792,1.792a9.614,9.614,0,0,0-1.792-1.835ZM383.305,86.9a1.782,1.782,0,0,0-2.341-.6C381.165,86.547,383.643,87.823,383.305,86.9ZM367.163,90.48a4.281,4.281,0,0,1,1.466,0c-.169-1.961-.907-.453-1.455-.042Zm6.031-2.741c.264,0,6.843-1.55,6.99-1.75,1.624-2.341-3.237-2.109-3.606-2.288.337-.369.474-.39.569-.843-2.857-.59-4.26,4.84-3.943,4.84Zm-4.428-7.549c-4.84.78-4.154,3.775.3,4.217,3.363.358,3.606.443,3.427-1.782-.211-3,0-1.518-2.552-1.518a1.867,1.867,0,0,0,.348-.907,12.081,12.081,0,0,0-1.508-.053Zm-4.217.306c1.929,1.128,4.639-1.824,5.757-2.594-2.52-1.329-5.968-1.487-7.982,1.444a12.293,12.293,0,0,0,2.225,1.149c.148.021-.01-.095.053-.042ZM364,81.18c-.917,0-1.571-.58-2.53-.39.169,3.047,3.859.348,2.583.348Zm-2.847-4.966c-2.109,0-.464.959-.622,1.223-.358.706,2.741-1.265.675-1.265Zm-54.078,35.774c-1.213-.232-3.216-1.792-2.341,1.371.78,0,2.2-.443,2.341-1.371-.021-.053.032.053.053-.042Zm5.335-11.05c-1.223-.127-3.754,3.4-3.754,5.272.717-.158,1.2-.664,1.613.306a.474.474,0,0,0,.274-.6c1.582.875.485,1.866,1.35,2.277,1.107.538,3.258.348,4.481.348-.158-1.856-2.024-2.446-2.109-4.217-.158-2.109,1.455-3.353,2.625-4.65a17.85,17.85,0,0,1,9.415-5.788c1.191-.327,6.221-1.476,5.694-2.9-.78-2.109-3.68.253-4.713.6-2.52.886-10.881,1.128-10.881,4.5a4.586,4.586,0,0,0-1.518,0c1.286,2.436-3.258,2.351-2.847,3.975.464-.105.6-.3,1.054-.232-.253.717.432,1.17-.706,1.054Zm20.866.685a3.163,3.163,0,0,0,2.077-.917c.548-.39-3.764.875-2.024.875Zm-9.9-24.187c1.56,2.583,2.615.127,4.365-.221-1.56-1.054-2.794.738-4.312.179Zm-3.4,0c0,.886-.569.633-.97,1.371a7.264,7.264,0,0,0,3.88.2c-1.107-1.645-.981-2.815-2.857-1.613Zm-.443,2.71a3.417,3.417,0,0,1-1.118.232c.2,1.054.822.464,1.6.3-.074-.411,0-.654-.485-.527C319.432,80.189,319.643,80.126,319.538,80.147Zm-4.861-.453c.643.612.749,1.55,1.74.148,0,1.708,2,.105,2.277-.148a1.329,1.329,0,0,0-.074-.612,8.878,8.878,0,0,0-3.933.612Zm-3.954.148a5.841,5.841,0,0,1,5.346-1.381c-.411-2.752,2.277.959,2.625-1.592a9.489,9.489,0,0,1-1.729,0c.232-.369.675-1.255.833-1.444-.949,0-1.582.664-2.109.833a16.036,16.036,0,0,0-1.866.612c-.506.348-.685,1.118-1.392,1.676-.938.77-1.4.169-1.7,1.3Zm-5.535-2.056c-2.045,0-2.552.791-4.5.369.095,1.645,2.646.538,3.817.538-2.414,1.929,1.655,2.414,2.847.685,1.919-2.815.105-1.592-2.151-1.592ZM265.47,80.379c.453,1.255,2.963-.432,3.458.981H266.82c1.265,3.88,8.182.422,9.784-.612-1.56-1.9-3.743-.316-5.124-.77.253-.569.6-.464.485-1.139-1.634.717-1.212.105-2.161,1.908-.612-1.729-5.071-2.109-4.355-.369.074.137-.042-.169.032,0Zm-2.784,5.788c0,.422-3.711.169-4.154,1.835.9-.211,3.7-.917,4.07-.39-.559.411-3.585.949-3.627,1.223-.074.517,2.636,1.972,3.226,2.826,1.792-1.487,3.5-4.386,3.5-6.442a6.189,6.189,0,0,1,1.972,0c-.232,1.856.2.527.917,1.6.527.78-.569,1.455-.569,2.256,1.919-1.307,2.109.422,2.847.3s2.109-1.054,2.91-1.223c-.843-1.223-1.7.19-1.7-1.592-.822.116-6.326-3.5-6.495-4.059a1.128,1.128,0,0,1-1.107,0,7.177,7.177,0,0,0,.506-1.213c-2.109-1.054-2.109.179-3.163.474.464-.148-.738,1.286-.875,1.329.306-.116-.527-1.814-.664-1.856a13.761,13.761,0,0,1-2.277,1.054c.264-.474.39-.981.622-1.371-1.234.285-6.4,1.645-2.288,2.277a11.6,11.6,0,0,1-.074,2.52c-.759-.411-.664-1.139-1.592-1.371.369.812,1.845,3.5,1.845,1.054.875.084.938,1.518,2.161,1.054.5-.179.759-1.16,1.234-1.213.053,0,2.594-.274,2.731.907.053.074.011-.2.053.021ZM434.21,135.5c3.469,0,4.049-1.624,6.442-1.054,1.328.274-.253,1.286,1.118,1.666,1.972.517,1.328-1.624,3.037-.169.137-1,.749-.211,1.529-.3-.432-1.908-1.054-.221-.411-2.214a10.725,10.725,0,0,1,2.731-3.237c2.235-1.371,4.133-.833,4.133,1.951,3.015-.622,3.775-5.145,6.642-4.523-1.908,1.719-2.573,4.418-4.692,6.326-2.7,2.446-6.1,3.8-7.064,6.99a18.662,18.662,0,0,0-.211,7.771c.569,2.931.274,3.406,2.256,2.246s2.309-6.516,5.641-5.578c-.9-1.866-.221-4.4,1.719-3.047-.633-1.518-.105-2.931-.274-3.88-.116-.474-.917-.127-1.255,0a14.111,14.111,0,0,1,1.6-4.112c1.149-1.16,1.286-.5,2.731-.865.78-.169.485.6,1.054.559.717-.063.917-1.35,1.518-1.392a18.973,18.973,0,0,0,2.2.148c1.74-.211.316,1.16,1.676,1.455,0-3.616,7.844-5.852,10.059-6.558,2.014-.622,2.225,1.951,1.529-1.371-.633-2.963-2.014-1.782-3.743-3.047-1-.822,4.112-.622,4.091-.6,1.476-.654,1.951-1.55,1.244-3.163,1.054-.074,1.191,1.054,1.518,1.149a20.794,20.794,0,0,1,2.636.6c1.4.728,1.054,1.191,2.847,1.666,2.457.685.569.474,1.866-.084,1.054-.432.221-1.582.843-2.183s4.291,1.181,2.773-1.771c-.548-1.054-4.407-1.782-5.346-1.36.854.643,1.054,2.109-.348,1.054-.506-.39.211-1.919-.453-2.52-.348-.306-1.054,0-1.307-.327a21.548,21.548,0,0,0-2.53-1.761c-1.444-.854-2.362-1.423-3.88-2.246-3.163-1.666-9.848-2.963-11.851-.7,3.49,1.56-5.483,2.952-.706-.464-1.444-1.191-2.646.443-4.091.664-1.761.264-4.84.5-6.326-.348a10.91,10.91,0,0,0,0,1.761c-2.2-2.7-2.109-5.81-6.653-5.5-1.687.116-3.332.706-5.061.316-2.246-.506-2.678-1.75-4.639-1.993.411-.559-.337-.337.675-.907-2.942-1.824-6.326,2.762-5.05-.991-1.455,0-2.942-.886-4.481-.917-2.921-.074-2.246.443-4.934.917,0,1.318,1.392,1.244,1.392,2.657a18.061,18.061,0,0,0-3.258-.569c.253.4.938.991.685,1.645-1.328-.274-1.582-1.4-2.836-1.666H417.53c-1.814.527-1.5,2.478-2.9,2.478a29.088,29.088,0,0,1-2.794-3.037c-.232-.675.759-2.826,0-3.827-1.191-1.539-2.161.137-3.384-.221-2.752-.791-3.616-2.857-3.616,1.307-2.109,0-3.353.253-5.272-.622-.7-.316-1.107-1.35-1.982-1.592-1.676-.474-4.681.4-6.495.4v-1.16c-.643.232-1.676.938-2.256.306.148,0,3.089-1.592,1.729-1.972-1.539-.453-2.393,2.2-4.428,1.835.3,1.993-2.741,1.824-4.386,1.824,1.761-.19,9.489-5.356,9.658-6.41.738-4.586-7.159-4.217-8.952-3.437.348-.474.622-.569.622-1.286a26.771,26.771,0,0,1-3.047-.242,10.643,10.643,0,0,1,1.191-1.655c-4.017-.348-4.165,1.17-6.664,2.583a1.192,1.192,0,0,1,.348.822c-2.752-.706-2.963,1.35-5.272,1.634-.843.084-2.362-1.054-3.606-.865A37.547,37.547,0,0,1,362.06,94.6a24.882,24.882,0,0,0-3.5.97c-.453.2-2.889,1.139-3.163,1.582-1.149,1.877,2.109.612.095,2.235-2.225,1.792-6.326-.506-8.635,1.687.6,1.582,4.618,4.154,2.362,4.344-.643,0-1.487-1.3-1.877-1.434a6.927,6.927,0,0,0-4.639-.327c.643.348,1.466.274,1.466,1.3-5.166-.358.833.949.6,2.752-.833-1.434-3.058-.5-4.07-1.9-.358-.485.053-2.91-.358-3.817a.58.58,0,0,1-.559.148c0,2.815-1.518,1.676-1.792,3.353,0,0,.422,4.681.527,4.85,1.476,2.657,1.054.253,2.878,1.054,2.246.97,2.109,2.256,2.109,3.88,0,.58,1.75.875,2.024.917-2.889,2.109-2.3-5.81-6.221-2.3a8.436,8.436,0,0,1-.158,2.6,4.365,4.365,0,0,1-1.887,1.792c-2.109,1.307-2.109.77-4.755.569.58-.949,2.773-.791,3.88-1.824a4.966,4.966,0,0,0,1.719-3.711c-1.6.148-2.172-6.811-2.014-8.762h.9c.474-2.552-3.332-3.163-4.987-1.835-.211.19-2.847,4.85-2.91,5.071.453-1.381.474,3.311.084,2.467.348.812,1.054.612,1.518,1.729.306.728,1.792.7,1.518,1.835-.464,1.993-2.277-.738-2.362-.77-2.024-.6-3.585-1.413-5.535-2.109-1.054-.38-4.671-2.467-5.272-2.362-2.552.432,4.818,3.659-.116,5.788,0-4.217-8.034,3.079-6.548-1.74-2.109,1.371-4.544,1.423-6.7,2.994-.369.285-4.987,4.934-4.671.243,3.5.127-.59-2.467-2.573-2.467.875.949,1.5,5.8.622,6.389a5.715,5.715,0,0,0-2.71-.569c-.506.105-1.919,1.856-2.91,1.94a5.915,5.915,0,0,1,.981,2.383c-1.423-.812-3.1,0-4.291-1.7-2.868,1.7,1.444,1.908,1.444,2.9,0,.77-2.172.411-2.341.3-2.109-1.054-1.054-.833-2.035-2.573-.791-1.508-2.509-3.416-3.8-5.272,1.149.232,13.3,5.535,11.851-.685-.348-1.5-3.648-2.878-4.913-3.4-1.982-.812-4.955-.221-5.831-.812,1.054-2.341-3.079-1.592-4.017-2.541,1.56,0,.759-.791,0-1.255-2.014-1.17-1.191.3-2.615.3a10.034,10.034,0,0,0,.432-1.487,5.335,5.335,0,0,0-1.919,0,12.378,12.378,0,0,0,0,1.877c-.348-.959-.664-.77-1.339-1.455-.253,1.666-.938,2.383-.938.232a2.847,2.847,0,0,1,.991,0v-.991c-.58.105-4.344,2.309-2.984.7-2.9-.327-2.646,1.413-1.054,2.351-.843-.358-1.951,0-2.826-.369,0,.875.137,1.118-.432,1.6a2.4,2.4,0,0,0-2.414-1.982c.39,1.529-.917,3.88-1.17,1.676-1.7,1.866-.116.538-.706,2.52-1.423-.633-1.054-.19-1.518-1.761-.58.221-.917.917-1.814,1.371.253.506.211.274.211.77a3.163,3.163,0,0,0-2.762,1.666c1.444-.506,3.564-1.982,5.1-1.139-2.045.517-5.061,4.344-5.451,7.106a4.755,4.755,0,0,0-2.309,1.423H256.1c-.158,1.5-3.321,3-4.291,2.762a2.109,2.109,0,0,0,.137,1.139c-3.764.865-4.217,3.269-4.987,6.263,3.163-.105-1.118,2.109,1.729,2.32-.053.854-.443.991-.348,1.8,3.058,0,4.217.39,6.242-2.446,1.339.253,2.351,5.535,3.543,7.011.327.432-.759,1.181.095,1.529,1.993.854,1.139-.728,1.972-1.054a35.423,35.423,0,0,1,3.606-1.5,1.054,1.054,0,0,0,0-.78c-.738.095-.96.074-1.381-.3.422-.749,2.225-3.216,2.362-3.606.443-1.265,2.109-2.362-.411-2.362,0-2.014-1.582-3.9.327-6.326.959-1.244,2.731-1.307,3.606-2.594.59-.833.612-3.247,1.972-4.217,1.054-.717,3.469.506,3.648,1.877.411,2.963-8.287,4.618-4.291,9.721,2.8,3.585,7.718-.77,11.018,1.307-1.835,2.056-4.47,1.16-6.653,1.455a40.064,40.064,0,0,0-3.9,1.286c.316.137.548.306.843.432a5.156,5.156,0,0,0-1.74.474c.77,2.183,2.2-.348,2.72-.084.949.517,1.054,1.054,1.866,1.687-2.383,3.332-2.225-.548-3.606,0-1.676.675-1.56,4.66-1.6,5.651-1.423,0-3.258-.865-2.109,1.286-2.109-2.4-3.332.169-5.694.4-.8.063-4.217-2.109-4.46.285a4.217,4.217,0,0,1-2.267-.844c.253-2.636,3.69,1.118,3.342-3.574a7.57,7.57,0,0,1-2.5.77,8.437,8.437,0,0,1,.411-1.634.938.938,0,0,1-.822,0c.316-2.488-.274-2.942-2.024-.959-1.234,1.371-.337,2.847-.39,4.217-.137,3.437.78,1.55-1.645,3.089a10.459,10.459,0,0,1-4.755,1.592c1.771,2.509-1.676,2.246-2.984,3.342-.137.105-1.2,2.836-1.592,2.963-1.307.453-2.109-.854-2.963-.77,2.024,3.838-1.993,1.16-3.163,2.183-1.455,1.244.39.822.865,1.571.675,1.054,1.476,1.476,2.183,3.068,3.933,8.646-5.62,3.3-9.489,5.1.738,2.762-.348,6.01.274,8.688.569,2.4-.169.917,1.74,2.267,1.2.865,1.835.053,2.984,1.613.253-.316.211-.474-.137-.453,1.982-.77,4.46-1.666,6.041-3.279.643-.664.959.169,1.444-.58.285-.453-.59-1.2-.548-1.244a16.606,16.606,0,0,1,.9-2.53c.643-.854,3.448-1.761,3.943-2.2s-.411-1.655.643-2.362c.875-.6,2.467.749,3.448.559.369,0,2.2-2.488,3.163-2.32,1.35.253,2.689,3.068,3.806,4.049,3.353,2.878,9.278,6.8.917,6.8,2.235,4.312,5.767-.169,6.727-2.72H262.6a4.22,4.22,0,0,1,0-.812,12.461,12.461,0,0,0,2.52.538,8.435,8.435,0,0,0-5.346-4.217c.221-1.444-1.951-3.237-2.921-3.163.3-4.808,3.1-.538,5.272,1.181,1.466,1.17,3.374,1.993,4.217,3.638.506,1.054,1.212,3.775,1.729,4.892a1.908,1.908,0,0,0-1.244-.211c.453,1.307,1.054,1.929,1.877.9.833,4.724,3.68-.337,5.272-.622-.253-.485-.59-.9-1.118-.9a1.054,1.054,0,0,1,0,.9c-.812,0-2.53-2.8-2.277-3.406.843.517,1.307.812,2.225.358a.464.464,0,0,0-.485-.358c3.163-5.082,4.871,8.108,5.356,8.108s.432-1.719.432-1.951c1.212,1.181,2.183.938,3.163,1.054-1-.158,1.592-.738,1.539-.738.991,0,1.434,1.328,3.058.907a9.307,9.307,0,0,1,0-1.328c3.037.685,3.279,1.845,2.161,5.4a7.749,7.749,0,0,1-2.762,3.732c-1.191.559-2.309-.77-3.416-.127,1.74.907,2.942,6.632,4.913,4.418,2.942,3.4,3.669,8.024,5.6,11.6,1.223,2.235,3.743,3.985,4.8,6.558,1.423,3.479-.474,5.578,3.522,5.662,1.792,0,3.922-1.887,5.694-2.7,2.035-.9,3.026-1.845,4.639-2.657,2.109-1.054,3.342-.6,4.776-2.446.685-.812,2.109-2.921,2.984-2.509,0-2.109,0-2.235,1.466-2.9-.158-1.054-1.74-2.183-2.436-2.826-1.255-1.181,0-2.4-1.792-.453-.2-.917-.453-2.942-1.118-3.5a3.7,3.7,0,0,0-1.054,2.752c-2.773-.264-7.1-.148-2-1.16-.084-.348-3.985-1.55-4.217-1.676a10.3,10.3,0,0,1-2.615-3.732c-.527-3.511,1.054-2.362,2.9-.9,2.341,1.761,3.163,2.573,5.894,3.564.464.169,1.582-.179,2.225,0s.6,1.35,1.265,1.666a18.663,18.663,0,0,0,5.736,1.054c3.332.127,4.217-.2,6.938,1.476,1.444.907,1.582,2.045,3.743,2.488-3.827,0,.559,2.193,1.444,2.509,1.434.517.685-2.109,2.214.243.77,1.054.158,2.573.358,3.817a35.416,35.416,0,0,0,2,6.685c.548,1.55,1.539,6.611,2.91,7.486s2.878-.706,3.68-2.53A12.885,12.885,0,0,0,347,214.5a15.745,15.745,0,0,1,0-2.657c.717-2.045.559,0,1.908-1.508,2.594-2.741,5.651-6.906,8.055-8.361a24.252,24.252,0,0,1,5.04-1.455c.78.548,2.573,5,2.573,6,2.383,0-.348,2.193,1.392,3.69,1.17,1.054,2.5-1.139,2.71-1.054,1.856.559,3.163,5.926,3.1,8.129,0,1.181-1.655,2.425-.938,4.449.432,1.2,2.109,2.309,2.71,3.838.728,1.845,2.225,8.435,5.441,6.78-1.054-2.109-1.054-5.778-2.2-7.3-1.613-2.109-3.511-2.014-3.954-5.1-.105-.706-.728-3.8.327-4.766,1.7-1.518.3-.369,1.951.622,1.444.854,1.307.812,2.594,2.573.3.411,1.35.728,1.5.991.474.854-.137,1.6.548,2.921,1.381-2.109,3.49-2.71,4.586-4.365,2.024-3.037.759-5.588-.9-7.95-2.52-3.606-3.163-7.982,2.625-7.982.38,1.845-2.109,3.859-1.17,4.808,2.383,2.309,2.889-4.47,2.826-4.428,1.054-1.054,3.279-1.054,4.449-1.5a9.616,9.616,0,0,0,3.722-2.2c2.014-1.655,5.715-5.272,6.189-8.266.348-2.183-.706-.833-.907-2.32-.116-.812.612-.633.358-2.109-.316-1.761-2.541-3.943-2.5-5.209.074-2.425,2.32-1.613,3.163-2.9s.7-1.054-1.371-1.908c-.917-.337-.675,1.181-1.866,1.181.327-2.857-3.068-.854-1.56-3.522a20.032,20.032,0,0,0,2.847-1.244c3.037-1.265,2.109-1.666.9,1.845.9-.559,3.3-1.951,4.312-1.455,2.109,1.054.443,1.413.622,3.342,3.279-1.5,2.277,4.217,1.929,5.947,2.341.274,4.987-1.434,4.934-3.922,0-2.235-2.615-2.5-2.109-5.6.116-.622,1.149-.158,1.244-.453a23.2,23.2,0,0,1,.569-2.773,8.041,8.041,0,0,1,2.109-2.573c.506-.232,2.341.221,3.279-.084a5.071,5.071,0,0,0,2.552-1.676,33,33,0,0,0,4.66-6.02c1.255-2.045.9-3.669,1.74-5.767,2.689-6.959,1.476,6.748,1.476,8.656.506-.548.9-.253,1.35-1.371.622.643.074,1.16,1.4,1.223-.369-2.783-3.079-5.272.685-5.272.095,0-1.792-9.489-1.877-10.6h-.548c.105,2.267-.559,2.109-.559,4.217-1.582-1.054-1.265-3.258-4.154-4.217-.327,2.309-1.35,1.539-2.225,0a2.983,2.983,0,0,1,0,1.223c-1.223-.2,0-1.054-.9-1.908-1.951,2.109,0-1.054.685-1.982,1.054-1.328,2.235-2.225,3.427-3.859C428.2,135.754,430.446,135.5,434.21,135.5Zm-202.089,1.423a2.71,2.71,0,0,0-1.455,1.761c.58-.179,2.509-1.982,1.455-1.761-.253.116.084.032,0,.032Zm1.466,17.091c1.4,0,2.457-1.054,3.258-1.223,1.223-.211,2.963.432,3.954-.063a3.764,3.764,0,0,0,1.856-4.5c-.3-1.118-1.054.664-1.054.622-.464-.538-.39-1.413-.759-1.761-.622-.6-1.476-2.014-2.3-3.068-1.244-1.6-1.4-1.223-1.6-2.509-.116-.854,3.089-4.217-1.655-2.657.39-.749.453-1.371,1.191-1.845-1.56-1.719-2.246.938-2.826,1.455-.095.084-3.258,1.265-.78,1.74-.221.791-1.054,1.951-.97,2.446.812.105,1.845.833,2.056-.148-.19,2.973,1.234,1.328,2.246,3.732,1.149,2.783-1.213.875-2.436,2.53a8.95,8.95,0,0,0,1.381.148c0,.833-1.866,1.181-1.244,1.972.39.5,2.341-.232,2.984.453-.3.285-4.154,2.71-3.3,2.71Zm-1.191-7.844c3.079-.5-4.892-4.85-3.037-.78-1.466.306-3.437,2.552-1.054,2.425-3.163,4.977,1.223,1.676,3.88,2.32a33.656,33.656,0,0,0,.211-3.933Zm74.185,116.148c0-2.942,1.908-8.983-1.244-10.364a9.2,9.2,0,0,1-1.792,4c-1.17,1.181-2.984.685-4.217,1.951-.917.991.116,4.059,0,4.871-.211,1.539-.822,1.74-1.107,3.669-.38,2.509.148,6.221,3.163,5.493s1.982-1.7,2.5-4.576c0-.337.77-3.606.833-3.669.306-.327,1.866-.843,1.866-1.339Zm-23.027-72.751c-1.318-3.469-2.109-2.109-4.987-2.53-4.217-.559-7.433-2.035-11.366-3.026,0,4.217.074,3.416-2.5,3.458.527,0-2.256-.907-1.993-.77h-2.024a3.733,3.733,0,0,1-.411-1.223c-1.223-.453-4.924-1.118-5.694-2.256-1.423-2.109,1.6-2.488-.97-4.312.685-.622.6-.706,1.539-.917-1.307-2.446-4.892-.179-6.8-.137s-4.217-.938-6.79.306c-1.75.812-2.942,1.951-5.272,1.887-2.8,0-4.312-2.193-4.312,1.824h-2.109c.928,3.711-1.529,1.307-2.109,2.53-.886,1.951-.59,4.27-1.392,5.514-.485.728-2.32,1.719-3.058,2.741s-1.761,2.836-2.636,4.217-4.365,5.019-3.88,7.17c.137.59,2.109-.264,2.425.464s-.39.865-.274,1.2c.538,1.592-.369,4.217-.485,5.82-.148,1.951-.3,3.616,1.666,5.852a90.239,90.239,0,0,0,6.379,6.653c.8.77,1.191,2.53,2.91,2.91,1.929.39,2.183-.506,4.017-.77,1.592-.211,2.8.559,3.891.517,2.309-.084,2.109-1.054,4.017-1.761a11.155,11.155,0,0,1,5.672,0c1.392.685,1.054,1.8,3.089,2.32,3.543.854,3.353-1.054,3.427,3.047a9.12,9.12,0,0,1-1.655,5.493c4.439,1.539,7.381,11.535,6.642,16.3s-3.332,5-1.054,10.08a40.794,40.794,0,0,1,2.625,8.54c.8,3.6,3.363,6.041,4.291,9.31.8,2.784-.422,3.669.843,5.187,3.353,4.028,12.22-.728,14.835-3.817a22.858,22.858,0,0,0,3.311-4.724c.59-1.413-.19-3.427.137-4.291.3-.685,2.5-1.118,3.163-2.109,1.887-2.7-.959-3.859-.411-6.7.422-2.288,4.291-3.469,5.4-4.586,2.752-2.71,2.91-5.736,2.225-9.806-.39-2.3-2.32-5.7-1.529-8.5,1.054-3.754,5.43-7.381,8.034-9.911a25.061,25.061,0,0,0,5.135-6.558c.875-1.7,1.444-1.845,1.655-4.123.348-3.574.875-2.72-1.929-2.741-3.9,0-5.05,1.6-7.76-1.655-1.56-1.908-4.08-3.69-5.556-5.809s-2.984-6.843-3.88-9.31c-1.35-3.775-2.109-7.655-4.586-11.008C283.457,189.273,283.689,189.79,283.552,189.569Zm-141,116.739c-.538-.127-.506-1.054-.9-1.054.179,0-1.244,1.8-1.244,1.782a18.4,18.4,0,0,0,2.773,2.573.833.833,0,0,0-.137.622c-4.449,0-.9,4.312-1.6,6.094a3.246,3.246,0,0,1,1.054,0,.6.6,0,0,1-.622.706c.728.833.358.348,1.054.538a32.686,32.686,0,0,0,3.448,4.724c2.657,1.792,5.166.917,7.707.706-.116-.907-3.3-1.908-3.964-3.648s-2.045-6.01.5-5.725c0-1.761,3.163-3.743,2.984-5.008-.253-1.5-3.479-.59-2.362-3.574.348-.949,2.109-.432,2.5-.949s-.127-1.244.348-1.8c-.316.39,1.634-3.342,1.381-1.972.453-2.446-1.655.063-1.191-3.553,3.258,1.434,3.9.127,3.416-3.163,2.689.095,5.925.2,7.159-2.678,1.318-3.047-1.213-2.362-1.7-5.019,2.994.432,4.133,1.592,6.453-.685,1.054-1.054,1.951-5.388,3.163-5.187-.179.6-.274.664-.137,1.223,3.574-1.961,2.573-7.518,4.523-10.069a9.121,9.121,0,0,1,4.818-3.047c2.847-.9,3.627-.685,5.219-3.754,1.9-3.616,1.118-9.11,2.636-12.03,1.118-2.109,3.553-3.384,4.217-5.831a3.9,3.9,0,0,0,0-3.026c-.822-3.258-.78-1.118-2.636-2.731a9.352,9.352,0,0,0-5.325-2.615c-1.339-.3-6.094.063-4.112-1.054a9,9,0,0,0-2.9-1.582c-2.436-.517-1.9.084-3.606.9.148-.253.875-2.035.9-2.183a13.78,13.78,0,0,1-2.172-.643c-.622-.211-.264,1.539-1.571,1.371.253-.643,2.783-4.144.4-4.144.411-4.629-3.49-4.861-6.073-5.6-2.109-.548-6.769-2.91-6.769-5.5-1.191.443-3.311-.158-1.466-1.054-1.223-1.74-3.785.706-4.5.685-2.646-.105-3.922-2.552-6.453-3.068,0,1.508-.938,1.16-1.74,2.056-.116.137.243,2.193.137,2.53a3.469,3.469,0,0,1,.411-5.019c-2.341-.728-8.888,4.059-9.278,7.3-.211,1.8,1.5,3.69.39,6.179-.6,1.371-3.163,4.217-4.5,4.724.232,2.309-.643,2.741,1.518,2.91-.9,1.719-3,2.752-1.792,5.556.3.706,1.655.865,2.225,1.74a19.231,19.231,0,0,1,1.476,3.163c.759,2.056,1.466,5.493,2.678,7.033,1.655,2.109,3.638,2.71,5.7,4.481,3.49,3.026,2.2,9.489,1.645,14.181-.316,2.573-1.191,5.04-1.466,7.381-.316,2.836,0,5.788-1.054,8.435-1.149,2.963-1.054,4.692-1.792,8.024v1.582c0,.517-.938,1.054-.738,1.676.97,3.163,1.813-1.592,2.8-1.676a30.006,30.006,0,0,0-1.265,6.653c-.548-1.054-.685-.453-.875-1.845C141.646,303.682,142.616,305.77,142.553,306.307Zm3.479-98.456c2.414-.6,5.9-.148,8.319-1.054-1.054-1.455-4.365-.991-6.389-1.286-1.286-.169-3.943-1.845-4.154.39a1.782,1.782,0,0,0,2.225,1.972Zm-6.516-.474a2.668,2.668,0,0,0-2.91-1.054c.728,1.054,2.109,1.993,2.91,1.054-.116-.127-.211.3,0,.042Zm2.5-3.416c-1.054-1.866-5.388-2.973-7.222-3.754-1.181-.464-3.891-1.687-5.377-.749s-1.223,1.2.527,2.109c.759.422,1.213-.886,1.951-.738,1.054.179,1.655,1.139,2.2,1.36a18.7,18.7,0,0,0,7.918,1.845Zm66.962-82.746c1.276-.232,1.719-.2,2.109,1.213a6.769,6.769,0,0,0-2.762,0,7.033,7.033,0,0,0,.137.928c2.826-.517.643,1.244,2.109,1.824.306.105,3.564.474,3.743.453,2.488-.137,2.71-.717,4.85-1.982,1.814-1.054,2.615.432,3.163-1.676.232-.843-1.054-.865-1.392-.917.612-3.8-4.091-.411-6.411-.749-.348,0-2.425-.358-2.045-.306-1-.105.074-1.719-.981-.316-2.53-.928-3.163,1.676-2.478,1.529Zm-42.712,30.492c-.548.39-3.764,6.094-3.532,6.526.485.9,2.2,0,3.163.348,1.423.464,1.74,1.054,3.163,1.835,2.161-3.6.127-4.839-3.047-5.957,0,.063,1.929-3.775.274-2.752-.2.179.158-.042-.021.042Zm-7.486,3.374c-1.381-.5-1.993-1.139-3.332-.928,1.265.843,2.109,2.9,3.332.928-.2-.021-.063.148,0,.042Zm39.127-41.025c.39-.158.822.464,1.128.559,2.457.865,2.457-.158,4.47-1.054,1.792-.759,6.231-1.824,6.864-3.669-2.425,2.109-8.119-2.773-2.109-2.5-.253,0,2.72,3.427,3.4.453.253-1.054-2.225-3.732-2.994-4.217.422-.411,3.163,1.771,2.33-1.054-.39-1.339-1.054-1.36-2.689-.77.316-.527.622-.485.822-.981a3.3,3.3,0,0,1-.822-.4c.875,0,3.4,1.339,4.565.474,2.689-1.972-1.655-1.265-1.655-2.225,0-.232,4.091-.443,4.365-.981-.854-.938-3.163-2.541-.411-2.794.063-2.467-3.311-2.457-2.921-3.848.158-.569,1.792-.78,2.225-.612,1.771.749.306.917,1.054,2.668.485-3.163,1.6-3.922-1.877-3.922.959-1.17,0-.316,1.666-1.181-.981-1.634-3.374-.063-3.4-.074-2.478-2.193,6.263-8.15,7.075-9.289-1.107.074-2.183-.137-3.279-.169,2.267-.517,3.553-.443,5.5-1.835.527-.38,3.332,0,2.109-2.045-.211-.369-3.163-.2-3.4-.169a39.389,39.389,0,0,0-5.556,1.139c-1.054.337-5.4,2.868-6.02,2.752,2.488-3.448,3.859-3.964-.685-4.7,0,1.993-1.307,1.792-3.058,2.109.285-1.613,1.307-.97,2.362-1.518-2.583-2.109-7.3,1.16-10.122.675.759-2.5,12.315-2.7,14.972-3.037v-.654a26.232,26.232,0,0,1-5.894-.833c-3.079-.559-6.073.232-9.078-.105,2.2-1.666,6.685-.928,9.848-.928-.358-2.7-14.213-1.582-16.016-.949s-.19,1.392-2.583,1.676c-1.413.179-2.583-.738-4.017-.8a15.541,15.541,0,0,0-5.44.843c.443.981,1.5.559,1.5,1.94-.569-.474-3.058-1.624-2.256.074-.2-.422,4.407,2.573,3.1,2.573-2.931,0-5.135-2.583-8.235-2.583,0,.728,1.908,1.982,2.183,3.079-1.845-.58-3.1-2.436-5.082-2.646.506,1.054.664,3.785-.981,2.72,0,0,.78-2.214-.306-2.868-1.307-.812-5.462,2-6.326,1.518a9.415,9.415,0,0,1,3.363,1.9c-1.328,0-2.436-1.054-3.817-1.181-.9-.148-.664-.928-1.856-.306s-.232,1.55-.548,1.74c-1.054.7-3.353.97-5.419,2.183-.812.485-2.8.443-2.689,2a8.435,8.435,0,0,0,2.91,0c.791,0,0,2.857-.2,3.015-.369.358-2.109.264-2.646.411-1.423.411-3.985.232-5.43,1.181-4.692,3.037,3.985,3.29,6.537,3.29-.506,2.33-5.757.612-5.757,1.94,0,.654,2.288,1.371,2.773,1.487-.39,0-.432,0-.548.306.706.622,2.045,1.908,3.079,1.5-.074-.169-.527-.612-.285-.78,1.56-1.054,8.266-.243,10.111,1.054a13.222,13.222,0,0,1,4.977,9.3h.664c-2.657,5.272,3.722.938,5.535,5.651-1.719,0-3.332-1.265-4.913-.538.39,1.3-1.054,3.416,1.381,3.479,2.109,0,2.794-1.6.337-2.014,3.49-.464,2.646,1.054,3.627,3.732-1.56-.095-2.794.211-2.752,1.9-3.469-.5.179,4.492.39,5.272-.084-.211,1.054-.527,1.244,0s-1.128.886-.78,1.234c-.548-.559.622,2.109.485,1.761a5.082,5.082,0,0,1,1.6-.854c-1.054,2.393,0,6.453,2.362,8.435,1.054.875,6.242,3.089,7.075,2.573,1.149-.685.844-3.3,1.307-4.481.3-.706-.706-.917-.316-1.761.2-.453,1.234-.148,1.56-.833,1.4-2.836.548-5.535,4.059-5.873-.095-1.845.074-.517.97-1.139-.211,4.755,7.233-5.367,7.275-5.377ZM122.246,90.512c1.476,2.509,8.15,1.6,10.607,1.149.654,1.835,4.6.7,4.439-1.687-.369.2-.738.369-1.107.538-.116-.369-.232-.759-.358-1.139,1.582-.316,1.508-.77,1.118-2.288,1.982.6,3.669.274,2.277-1.74-.211-.316,2.109-.074,2.109-.39,0-2.109-3.532-1.423-4.428-.548-.095-.243-.19-.506-.274-.749,2.267-1.75,4.724.675,6.843-1.455-.4-.337-.812-.654-1.223-.981a5.883,5.883,0,0,0,4.365.063c-.685-.58-.58-1.054-1.455-1.444,3.269.865,7.127-3.068,10.175-3.954-.981-1.054-3.585,0-5.272-.253,1.371-1.94,8.952-.063,9.437-2.741.316-1.824-6.59-2.109-8.245-1.676-.643-.706-3.269-1.487-4.934-1.687-.643,2.552-8.087-1.16-7.539,1.771-2.109-.854-6.685-1.339-8.266,1.139,1.75-.105,3.659.3,4.523,1.835-1.761-.506-4.091-1.729-5.62-2.109s-2.9.59-3.353.654c-1.676.253-5.029,1.234-7.054,1.708a4,4,0,0,1-.063.7c1.719.59,1.835,1.676,3.743,2.309,2.731.928,2.826-.685,5.187-1.054-4.734,3.047,2.615,1.993,3.9,1.634,2.646-.717,4.481-2.414,7.275-2.309a5.43,5.43,0,0,0-3.068,1.508,14.931,14.931,0,0,1,2.847.158c-1.4,1.149-5.862,1.529-7.887,1.666v.759c1.339.622,2.109,1.719,3.743,1.687-2.362.706-5.894-1.845-8.54-2.214.211,2.488,4.217,4.492,6.526,4.355-.527.675-.759,1.181-1.191,1.74-3.954-4.27-9.879,2.362-2.552.928l-1.191.685c.865,1.539,2.436,1.054,3.606-.306-1.339,3.954-5.272.211-7.76.548C124.586,89.109,123.627,89.837,122.246,90.512Zm.622-4.966c.39-.517,1.054-.19.9-1.592,4.428.738,3.4-2.267.643-4.217.158.116-8.951-4.924-8.741-3.458.654.158,1.234-.358,1.392.538a12.917,12.917,0,0,1-2.71.453c.559.422.738,1.054.97,1.3a15.424,15.424,0,0,0-1.866.074,8.6,8.6,0,0,0-.5,2.372c1.666,1.835,4.1.264,5.894,1.908-1.054.074-2.109.664-3.163.833a6.537,6.537,0,0,0,7.18,1.792Zm-3.606,2.6c-.2.358-.411.706-.622,1.054a3.564,3.564,0,0,0,3.163-.232c-.7-1.318-1.339-1.075-2.541-.822Zm1.054,9.226c1.371-.306,16.691,1.054,14.424-2.8-1.339-2.341-7.381.169-9.236.116-3.88-.095-4.407-4.513-7.876-3.406,1.339,2.436-.011,5.04,2.741,6.094Zm-9.626.316h.97c-.38-1.149-.38-.243-.886,0Zm2.109-1.908c.717.7,4.481,2.615,4.091-.084-.221-2.193-3.363-1.139-4.007.084Zm3.416-3.29c1.539-1.771-.728-3.026-2.362-2.741-3.29.59.886,2.762,2.446,2.741Zm-2.847-3.659a14.762,14.762,0,0,0,3.659-.517v-.77c-1.455-.232-3.089-.369-3.574,1.286Zm.274-1.908c3.469-.928-2.32-2.657-3.4-2.277.527,1.813,1.676,2.91,3.479,2.277Zm-3.88-5.7c-.506-1.054-.865-1.634-2.109-1.381v.907a2.878,2.878,0,0,0,2.193.474Zm-.9,6.548c1.054-3.817-5.831-5.641-8.435-4.586a8.235,8.235,0,0,1,2.214,2h-1.054c1.023,1.539,5.388,1.75,7.359,2.583Zm-2.636.158c-.875-.38-1.149-.938-2.225-.612.5,1.307,1.181.875,2.309.612Zm-.643,6.642c1.423-.78,2.277-.179,2.573,1.592,1.856-.084,3.237-.791,3.026-2.973-.253-2.383-2.446-1.381-4.407-2.214a6.579,6.579,0,0,1,1.813,2.109,18.978,18.978,0,0,0-3.279-1.36c.137.643.158,1.244.348,1.9-1.286-1.054-1.845-2.847-3.659-3.058-.137,2.33,1.782,3.49,3.669,4.007Zm-4.017.612c.158.116,1.518,1.845,1.518.063.084-1.012-1.244-.063-1.434-.063Zm.485-5.736a4.418,4.418,0,0,0-2-1.972c.179,1.529.843,2.383,2.088,1.972Zm36.133,27.413c.991.327,3.743-.063,2.762-1.782a1.645,1.645,0,0,0-2.678,1.75Zm-22.405-12.895c.411-.822,1.054-.517,1.054-1.75,1.929.759,2.731-1.128,3.743-2.657-1.423-.58-4.428-1.676-5.694-.675s-1.539,5.831.981,5.05Zm-6.063,2.33c3.163,0,3.838-3.163.759-4.713,2.341-.822.506-2.393-.812-2.868-.243-.074-2.109,1.054-3.163.812,1.951,2.235.453,3.659-1.708,2.351C104.891,103.417,108.476,105.557,109.72,106.3Zm-7.76-4.8c.59-2.109-1.835-2.509-2.984-1.36,1.139,1.118,1.9,1.887,3.026,1.36Zm-4.576-1.75C97.5,99.874,98.259,100.8,97.384,99.748ZM90.742,85.872h4.934C94.769,83.837,92.038,84.428,90.742,85.872Zm1.4,3.353c1.381,0,3.163-.179,1.929-1.676.58-.285.8,0,1.191-.759a6.326,6.326,0,0,0-4.586.907c.232,1.023.717,1.16,1.423,1.529Zm-2.457-1.371c-.432-.991-.548-1.645-1.877-1.381C88.106,87.728,88.686,87.6,89.687,87.855ZM88.3,91.661c-1.961.633-3.933,2.868-2.552,4.091s5.736,0,7.275.116c-.527.675-3.764,0-3.553,1.255.3,1.423,2.71.538,3.511.369,1.7-.337,8.055-1.255,7.591-3.848.169,1.054-4.217-2.636-3.806-2.52-2.024-.654-2.784.643-1.74,2.668.39.179,1.054-.095,1.16.432.169.822-6.874-2.161-7.908-2.562Zm.411-1.444c.453.211.59,1.054,1.676.759a2.618,2.618,0,0,0-.074-.759,2.952,2.952,0,0,1-1.624,0ZM83.15,93.5l-.7.907c1.518,0,1.223.3,2.024-1.3Zm2.225-1.919A3.163,3.163,0,0,0,87.3,88.688c-4.217-1.128-5.535,3.163-9.363,3.574,1.8,3,4.492.274,6.1-1.36.369,1.371.875.38,1.328.675Zm.959,19.906c2.994-.274,3.079,1.455,5.419,2.109s4.091-1.054,6.157-1.529c1.244-.253,9.489,1.234,6.59-1.286,1.149,0,1.518-.654,2.225-1.054-2.562-1.929-3.606-1.919-4.892-4.6-.5-1.054-2.657-6.094-4.407-3.69-.8,1.128,2.109,3.754-.063,3.574-1.054-.116-1.054-3.384-3.163-3.511.253.474.453,1.054.685,1.518a10.7,10.7,0,0,1-2.2.77,12.061,12.061,0,0,0,.464-1.518,4.08,4.08,0,0,0-3.88.3c.685-2.857-1.771-1.5-3.037-.886-2.277,1.118-2.362,1.676-3.4,3.627,1.518.654,3.163-.422,4.565.759a5.641,5.641,0,0,0-2.984,1.392c1.55.917,6.537-.464,7.381,1.054.285.569-5.483.854-6.326,1.434a11.178,11.178,0,0,0,.865,1.539Zm11.6,2.984c1.244-.369,2.024-.654,2.3-1.824a10.132,10.132,0,0,0-3.68,1.518ZM78.6,106.221c2.457.411,3.448-3.163,5.567-4.4,3.458-1.951,4.291-2.53-.127-3.522C82.9,98.04,77.182,96.564,76,97.66c-.664.612-.865,5.1-2.32,6.9a4.217,4.217,0,0,1,3.743,2.741c.369-.348.759-.717,1.149-1.075ZM20.838,133.846C19.4,131.737,17.917,134.12,20.838,133.846Zm23.3-1.676c.337-2.425,3.279.559,4.8,1.054,1.972.643,3.838.169,5.757.854,3.363,1.2,5.694,4.586,9.078,5.272a7.38,7.38,0,0,0,1.054,2.109c.169.211,1.634.938,1.813,1.286,1.17,1.929,1.845,3.817,2.868,5.272,1.792,2.657,2.467,2.889,5.029,4.565,1.835,1.2,4.017,3.237,3.743,6.073-2.109-2.794-4.217-6.632-7.76-6.179,1.655,2.183,4.112,2.952,5.166,5.7s-.316,5.578-.316,7.939a24.345,24.345,0,0,0,4.724,13.812c1.571,1.908,4.017,1.993,5.451,4.46,1.17,1.951,2.172,4.439,3.258,6.453.369.643-.443.97.39,2.32.506.812,1.908,1.539,2.594,2.32.474.517,2.752,3.469,2.931,4.586,2.109-2.4-6.221-10.807-6.463-14.265,2.341-.316,5.019,5.556,6.727,7.6,2.2,2.594,4.217,6.1,6.453,8.941-3.269,2.446,9.732,7.76,11.862,8.108.643.105,1.36-.77,2.552-.39,1.36.432,1.972,2.024,3.058,2.731a12.283,12.283,0,0,0,4.776,1.223c1.9,1.455,2.847,4.3,3.848,5.356,1.434,1.466,4.713,2.573,6.758,3.564-.559-3.859,3.279-.348,3.437-1.634.306-2.53-4.818-.938-6.242-1.972-3.427-2.53.232-5.356-1.518-8.171-1.508-2.383-5.272-.5-7.18-1.392,1.645-1.972,4.08-8.235.548-8-3.163.232-1.634,2.678-3.606,4.4s-4.734.559-6.157-.791c-3.163-3.026-3-11.355-1.139-14.392,2.573-4.165,6.674-.137,9.489-1.118-.685-2.615,2-2.235,3.68-2.109-.158,0,3.827.822,3.321.432,1.244.97,3.269,8.15,4.576,8.024,1.582-.148-1.213-9.7.917-12.378,1.36-1.74,4.217-2.109,5.05-4.217.706-1.75-.316-2.615-.759-4.8,1.17.337.559-.717,1.792.685.443-1.054,1.423-3.933,2.109-4.681.875-.854,3.163-1.054,4.6-1.476-2.109-4.418,5.947-7.591,8.952-6.822-.411-.084-2.91.981-3.258,1.761-1.054,2.351,1.866.337,1.972.316a7.865,7.865,0,0,0,6.063-4.871c-1.993,1.054-2.562,2.794-5,1.381-3.237-1.94-.116-3.648-.854-4.934-2.045-3.479-7.191,2.826-9.342,4.333a9.912,9.912,0,0,1,2.225-3c-.527-.126-1.054-.306-1.6-.453,2.71.664,4.27-3.068,6.59-3.8,1.539-.5,3.69.127,5.272,0,2.436-.253,2.183-.559,4.217-1.55,1.887-.854,4.892-1.17,4-3.838s-4.133-.791-6.063-.58c.917-1.708,2.783-1.35,4.217-2.657a8.129,8.129,0,0,1-6.02-3.817c1.5-1.054-2.773-6.073-3.532-7.939-1.223,1.508-1.223,3.933-3.163,4.418s-1.655-1.729-3.806-1.107c1.35-5.114-2.393-6.864-6-7.876-4.091-1.181-6.822,1.118-3.922,5.788h-.97c-.316.791-.095,1.286-.548,2.109,3.838,1.75,2.963,8.171-1.466,8,1.276,1.5,2.4,7.1-.411,7.381s-3.363-5.62-3.163-7.823a21.783,21.783,0,0,1-7.8-2.636c-1.213-.675-2.636-1.16-3.7-1.634s-1.191.517-2.014,0c-.622-.411-.717-1.929-1.128-2.488-1.4-1.908-2.109-.812-1.856-3.922a9.268,9.268,0,0,1,2.109-4.27c.9-.991,3-1.265,2.784-2.71-.148-.938-3.585-1.476-4.217-1.75,1.8.19,5.135,2.035,5.62-.453,2.109,1.392,3.1-.19,3.669-2.109-1.919.148-3.353-.886-5-1.74,1.255,0,8.435,1.972,5.483-1.466,3.163-.264,1.054,5.356-.411,5.957,1.17,1.371,1.613,1.719,3.4,1.687a11.312,11.312,0,0,1,2.109-1.054c.622-.105,1.307.706,1.813.622,3.975-.749-3.838-3.775-4.5-5.356,1.792-.074.706,0,1.444-1.054,2.731-.232,3.975-2.773,2.109-5.272,3.722-.7-.875-3.363-2.2-4.038,2.288-.39,4.724.8,7.138-.169q-.548-.548-1.107-1.139c2.53.812,4.281,2.509,6.505,4.333.938.77,2.678,1.94,2.731,3.479.084,2.109-3.49,1.993-1.887,4.629-1.328.327-6.041-.822-5.831,1.75s3.669-.232,4.544-.127c2.784.39,2.994,2.509,4.776,4.123s4.544,1.328,6.621,2.573c.084-1.929-2.6-2.9-3.606-4.6,1.835.991,3.669,2,5.409,3.163a24.453,24.453,0,0,0,.759-2.6,44.9,44.9,0,0,1-5.325-5.788c1.265-2.035,1.75-.622,3.237.232,2.372,1.392,1.339,2.172,3.237,1.6-.137,0,2.341-2.109,2.32-2.109.8-1.645.938-.422-.137-1.908s-11.661-4.745-6.379-5.957L150.7,111.1a2.889,2.889,0,0,1,.97-.685c-.822-.358-1.128-1.054-2.109-1.286.148-.285.306-.559.485-.843-1.951-.453-2.868-.938-4.639-1.455.306-.221.643-.453.949-.685-3.5-.095-3.722-2.277-6.157-3.163-1.866-.643-5.483,1.666-6.273,1.191-1.234-.706.306-1.434-.5-2.7-1.36-2.183-1.17-1.9-3.384-1.455-3.353.7-3.163,3.648-1.487,6.094-3.511.506-3.015-5.272-.506-6.621-2.668-.127-5.166.2-6.242,3.332-1.434,4.281,1.444,2.341,2.847,4.6-1.054-.274-1.613.19-2.552.148.854,1.35,4.724,1.792,6.379,2.351-1.054.453-1.539,7.95-4.217,6.421-1.2-.685,0-2.784,0-2.826-1.054-1.318-2.045-.8-2.414-1.054s-2.488-1.054-3.29-2.32c-1.118-1.8-1.4-6.78-4.8-4.217-3.163,2.446,3.427,6.853-.316,6,.569,1.708,1.74,1.624,3.068.306,0,2.615-3.163,1.729-2.225,4.734-1.56-1.17-1.191-.685-1.118-2.446-1.455-.443-.274-.074-1.054-1.3h.9a2.8,2.8,0,0,0-2.488-3.047c-.39.432-1.307,1.518-1.655,1.972.717.316,1.286,1.139,2,1.455-1.655,3.3-4.871,1.8-7.623,1.107-1.792-.453-2-1.223-3.743-.432-2.552,1.191-1.36,1.381-1.74,4.217-1.128-4.439-6.474-2.952-9.7-3.279.264-.169.58-.938,1.518-1.286-1.6-1.423-6.98-3.163-8.878-3.522-2.351-.5-4.66,2.183-5.535-.97-.675,2.541-1.17.928-2.256.865-.358,0-.749-1.729-1.56-1.835-1.054-.137-.411.759-1.054.9a34.91,34.91,0,0,0-5.989,3.163c1.265-1.835,3.332-1.582,4.565-3.163-2.341,0-5.114,1.413-7.454,1.951-3.933.9-5.514-.9-9.489-1.392-3.026-.358-5.788-1.054-8.93-1.329-3.311-.3-5.029-1.592-8.435-1.149l.348-.833c-2.109-.432-4.955,1.054-6.822,1.676-2.573.843-2.752,2.562-4.544,3.775-2.552,1.708-4.365-.105-2.32,2.857,1.286,1.877,4.07,2.109,5.008,4.576-1.466.538-3.037.453-3.163-1.36-1.655,1.3-3.522.833-4.913,2.657,1.792.8,1.782,2.425,3.321,2.847,1.771.5,4.112-.833,5.767-1,.232,5.578-5.651,1.624-6.516,6.558-.211,1.339,2.573,6.906,4.376,3.648a3.479,3.479,0,0,1,.812,3.648c1.761-.39,3.722.285,4.586-.9.548,0,1.265.169,2,.148-1.307,6.389-7.918,5.335-11.018,9.247,4.492,1.2,11.935-6.326,15.815-8.709-.348-.559-.675-1.118-1.054-1.676,2.362-.854,3.237-5.166,5.968-3.216-1.929.253-3,1.5-2.436,3.522a10.069,10.069,0,0,1,4.639-1.845c-.084-.232-.179-.569-.316-.9Zm-5.672,6.242V137.04c-1.4,1.118-3.448,1.413-2.3,3.427a5.2,5.2,0,0,0,2.277-2.056Z" transform="translate(-18.17 -67.594)"/>
      </g>
    </g>
    <g id="freepik--Plant--inject-4" transform="translate(11.12 352.237)">
      <line id="Line_264" data-name="Line 264" y1="51.411" x2="0.032" transform="translate(40.498 25.115)" fill="none" stroke="#263238" stroke-linecap="round" stroke-linejoin="round" stroke-width="1"/>
      <path id="Path_13160" data-name="Path 13160" d="M27.64,370.618l22.648,17.84L66.145,368.32" transform="translate(-10.222 -333.284)" fill="none" stroke="#263238" stroke-linecap="round" stroke-linejoin="round" stroke-width="1"/>
      <path id="Path_13161" data-name="Path 13161" d="M49.61,368.081a26.844,26.844,0,0,1-7.475-12c-2.109-7.454,7.992-20.992,7.992-20.992s6.611,13.707,7.317,20.233S49.61,368.081,49.61,368.081Z" transform="translate(-9.45 -335.09)" fill="#f24405" stroke="#263238" stroke-linecap="round" stroke-miterlimit="10" stroke-width="1"/>
      <path id="Path_13162" data-name="Path 13162" d="M58.73,376.022a87.762,87.762,0,0,1,.822-11.6c.759-4.144,6.621-6.769,10.881-7.8s12.431.179,12.431.179a21.952,21.952,0,0,1-7.623,13.454C68.5,375.663,58.73,376.022,58.73,376.022Z" transform="translate(-8.532 -333.942)" fill="#f24405" stroke="#263238" stroke-linecap="round" stroke-miterlimit="10" stroke-width="1"/>
      <path id="Path_13163" data-name="Path 13163" d="M39.725,378.862s2.256-3.922-6.189-12.473S11.12,364.87,11.12,364.87,17.857,374.686,22.1,377.9,39.725,378.862,39.725,378.862Z" transform="translate(-11.12 -333.619)" fill="#f24405" stroke="#263238" stroke-linecap="round" stroke-miterlimit="10" stroke-width="1"/>
      <path id="Path_13164" data-name="Path 13164" d="M50.293,397.806a23.428,23.428,0,0,0-13.021-8.435c-8.382-1.866-13.6-.517-13.6-.517s5.356,10.986,11.514,12.5S50.293,397.806,50.293,397.806Z" transform="translate(-10.438 -332.193)" fill="#f24405" stroke="#263238" stroke-linecap="round" stroke-miterlimit="10" stroke-width="1"/>
      <path id="Path_13165" data-name="Path 13165" d="M48.92,397.7a11.166,11.166,0,0,1,4.492-4.639c3.522-2.214,12.874-2.794,12.874-2.794s-.243,4.671-5.778,7.191S48.92,397.7,48.92,397.7Z" transform="translate(-9.065 -332.09)" fill="#f24405" stroke="#263238" stroke-linecap="round" stroke-miterlimit="10" stroke-width="1"/>
      <line id="Line_265" data-name="Line 265" x1="20.971" y1="12.832" transform="translate(7.634 32.422)" fill="none" stroke="#263238" stroke-linecap="round" stroke-miterlimit="10" stroke-width="1"/>
      <line id="Line_266" data-name="Line 266" y1="21.804" transform="translate(40.161 11.187)" fill="none" stroke="#263238" stroke-linecap="round" stroke-miterlimit="10" stroke-width="1"/>
      <line id="Line_267" data-name="Line 267" y1="12.705" x2="11.408" transform="translate(50.198 29.385)" fill="none" stroke="#263238" stroke-linecap="round" stroke-miterlimit="10" stroke-width="1"/>
      <path id="Path_13166" data-name="Path 13166" d="M36.86,395.251l12.716,2.193,7.665-2.415" transform="translate(-9.721 -331.832)" fill="none" stroke="#263238" stroke-linecap="round" stroke-miterlimit="10" stroke-width="1"/>
      <path id="Path_13167" data-name="Path 13167" d="M64.462,402.79H32.8l2.636,24.651H61.827Z" transform="translate(-9.941 -331.41)" fill="#263238" stroke="#263238" stroke-linecap="round" stroke-miterlimit="10" stroke-width="1"/>
    </g>
    <g id="freepik--Character--inject-4" transform="translate(146.351 191.164)">
      <path id="Path_13168" data-name="Path 13168" d="M262.066,276.238l2.773,13.823s-18.662,5.535-31.452,8.646-19.885,5.272-18.852,11.883,0,21.087,0,21.087L200.554,393.4,199.5,397.89l29.048,4.808,5.219-17.249s3.11,5.525,3.11,9.331-3.458,39.855-3.458,39.855h107.8l12.094-75.45s8.635-39.4,9.331-45.274,3.8-12.441-1.381-16.933-52.539-7.254-53.572-7.6-3.8-1.381-3.8-1.381l-1.054-10.027a41.837,41.837,0,0,1-17.281,4.144c-9.331,0-23.2-9.331-23.2-9.331Z" transform="translate(-136.11 -177.403)" fill="#f24405" stroke="#263238" stroke-miterlimit="10" stroke-width="1"/>
      <path id="Path_13169" data-name="Path 13169" d="M263,379.89s19.453,8.182,32.748,9.89" transform="translate(-132.659 -171.581)" fill="none" stroke="#263238" stroke-miterlimit="10" stroke-width="1"/>
      <path id="Path_13170" data-name="Path 13170" d="M231.913,336.05s-6.221,25.916-5.187,33.866a20.961,20.961,0,0,0,5.567,12.093" transform="translate(-134.637 -173.964)" fill="none" stroke="#263238" stroke-miterlimit="10" stroke-width="1"/>
      <path id="Path_13171" data-name="Path 13171" d="M231.147,404.827s3.163-4.376-1.223-9.974-15.815-8.024-21.15-7.3-9,4.386-13.622,8.762-9.247,8.024-9.247,8.024-7.3-6.326-10.217-7.3-13.127,8.751-15.815,11.429-5.346,3.163.728,7.054,7.781,3.406,13.622,3.648,21.646-1.212,24.324-2.678,11.187-.97,17.513-3.163C226.466,409.74,226.519,409.445,231.147,404.827Z" transform="translate(-138.425 -171.171)" fill="#fff" stroke="#263238" stroke-miterlimit="10" stroke-width="1"/>
      <path id="Path_13172" data-name="Path 13172" d="M152.686,404.45s-6.727,1.118-8.688,2.52-5.883,5.05-4.217,7.011,6.442-2.53,7.286-2.53,9.837,2.014,9.837,2.014S156.06,405.852,152.686,404.45Z" transform="translate(-139.378 -170.246)" fill="#fff" stroke="#263238" stroke-miterlimit="10" stroke-width="1"/>
      <path id="Path_13173" data-name="Path 13173" d="M159.684,397s-8.688,1.676-9.489,4.217.274,15.415,1.118,17.1,3.363,1.676,4.481-.285,1.118-10.09,1.961-12.051S159.684,397,159.684,397Z" transform="translate(-138.806 -170.651)" fill="#fff" stroke="#263238" stroke-miterlimit="10" stroke-width="1"/>
      <path id="Path_13174" data-name="Path 13174" d="M169.711,396.027s-6.727-2.52-9.816-1.392-5.04,20.455-3.363,21.572a3.69,3.69,0,0,0,5.272-2.246c.843-2.52,2.53-8.677,2.53-8.677l4.217-3.363" transform="translate(-138.48 -170.795)" fill="#fff" stroke="#263238" stroke-miterlimit="10" stroke-width="1"/>
      <path id="Path_13175" data-name="Path 13175" d="M176.8,393.65s8.888,8.93,11.387,10.364a15.489,15.489,0,0,0,7.95,2.035c3.3-.116,6.136-2.847,9.437-1.118a3.163,3.163,0,0,1,1.792,2.109c.232,1.371-.833,2.594-1.919,3.458a17.924,17.924,0,0,1-16.016,3.11,2.509,2.509,0,0,0-1.054-.169,2.32,2.32,0,0,0-.959.5,20.793,20.793,0,0,1-5.546,3.406c-3.943,1.35-8.973.169-8.973.169" transform="translate(-137.556 -170.833)" fill="#fff" stroke="#263238" stroke-miterlimit="10" stroke-width="1"/>
      <path id="Path_13176" data-name="Path 13176" d="M172.88,404.314s2.414,2.414,5.641-1.054" transform="translate(-137.557 -170.31)" fill="none" stroke="#263238" stroke-miterlimit="10" stroke-width="1"/>
      <path id="Path_13177" data-name="Path 13177" d="M174.3,399.529s-2.52,10.934-3.638,12.895-3.933,2.8-5.609.844,2.246-16.87,2.52-19.063a2.541,2.541,0,0,1,2.52-2.235s4.217-.559,5.894.274,4.481,6.453,4.481,6.453" transform="translate(-138.006 -170.934)" fill="#fff" stroke="#263238" stroke-miterlimit="10" stroke-width="1"/>
      <path id="Path_13178" data-name="Path 13178" d="M305.162,289.376c-1.054-.348-3.8-1.381-3.8-1.381l-1.054-10.027a41.836,41.836,0,0,1-17.281,4.144c-9.331,0-23.2-9.331-23.2-9.331l-.348,3.458,2.773,13.823s-7.528,2.235-16.29,4.66c4.091,9.089,15.246,31.072,29.417,35.437,13.928,4.281,34.277-25.874,42.744-39.676C310.908,289.882,305.51,289.492,305.162,289.376Z" transform="translate(-133.584 -177.403)" fill="#fff" stroke="#263238" stroke-miterlimit="10" stroke-width="1"/>
      <path id="Path_13179" data-name="Path 13179" d="M264.054,299.439l-11.134-7.771,9.015-2.5Z" transform="translate(-133.206 -176.512)" fill="#263238" stroke="#263238" stroke-miterlimit="10" stroke-width="1"/>
      <path id="Path_13180" data-name="Path 13180" d="M261.612,289.883l2.119,10.269,17.355-10.807L258.85,276.06Z" transform="translate(-132.884 -177.225)" fill="#263238" stroke="#263238" stroke-miterlimit="10" stroke-width="1"/>
      <line id="Line_268" data-name="Line 268" x2="1.181" y2="8.351" transform="translate(167.782 110.591)" fill="none" stroke="#263238" stroke-miterlimit="10" stroke-width="1"/>
      <path id="Path_13181" data-name="Path 13181" d="M303.92,303s-16.785,4.555-19.632,5.409-5.4,1.993-5.968,3.416" transform="translate(-131.826 -175.761)" fill="none" stroke="#263238" stroke-miterlimit="10" stroke-width="1"/>
      <line id="Line_269" data-name="Line 269" x2="13.306" y2="5.999" transform="translate(124.3 130.034)" fill="none" stroke="#263238" stroke-miterlimit="10" stroke-width="1"/>
      <path id="Path_13182" data-name="Path 13182" d="M306.12,241.24s2.014-4.608,4.028-.865,3.458,8.351.865,12.652a22.394,22.394,0,0,1-4.892,6.041l-2.32-18.694Z" transform="translate(-130.441 -179.244)" fill="#fff" stroke="#263238" stroke-miterlimit="10" stroke-width="1"/>
      <path id="Path_13183" data-name="Path 13183" d="M242.689,252.964a17.292,17.292,0,0,0,.285,12.094c2.594,6.621,10.08,6.052,10.08,6.052s6.906,10.934,12.094,15.815,20.149,12.958,26.2,10.944,14.677-14.392,17.27-25.052.285-26.19.285-26.19,1.149-9.489-2.014-17.27-7.2-10.944-14.392-10.08-25.621,3.458-35.7,10.364-12.378,12.094-12.378,15.257S242.689,252.964,242.689,252.964Z" transform="translate(-133.814 -180.319)" fill="#fff" stroke="#263238" stroke-miterlimit="10" stroke-width="1"/>
      <path id="Path_13184" data-name="Path 13184" d="M295.987,229.087s2.878,6.326,5.462,8.066l2.594,1.729s1.444,6.326,2.014,8.635,2.594,1.434,2.878-1.444.285-6.621.285-6.621a18.979,18.979,0,0,0,6.052-8.635c2.014-5.757,4.028-13.823-2.309-20.444s-13.243-8.055-16.406-7.191S293.393,220.737,295.987,229.087Z" transform="translate(-130.968 -181.199)" fill="#263238" stroke="#263238" stroke-miterlimit="10" stroke-width="1"/>
      <path id="Path_13185" data-name="Path 13185" d="M243.5,254.965a3.163,3.163,0,0,1,4.323.58c2.014,2.3,1.149,5.472,2.3,6.621s3.743,2.014,4.028-1.434-2.014-8.93-.865-11.524,4.9-5.462,8.35-3.448,9.489,6.621,13.823,1.149,4.028-14.107,7.2-14.392,2.583,2.878,10.069,2.014,10.649-2.594,11.229-18.43-7.486-29.364-18.135-32.812-39.728,2.3-50.377,17.27-10.08,30.228-5.757,36.27S244.367,253.531,243.5,254.965Z" transform="translate(-134.627 -182.321)" fill="#263238" stroke="#263238" stroke-miterlimit="10" stroke-width="1"/>
      <path id="Path_13186" data-name="Path 13186" d="M292.149,205.39s-11.239-3.269-15.952,2.172-5.071,17.4-10.544,19.2-9.426-3.616-13.411,0-1.054,9.784-6.526,11.967S233.4,235.46,233.4,235.46" transform="translate(-134.268 -181.119)" fill="none" stroke="#737373" stroke-miterlimit="10" stroke-width="1"/>
      <path id="Path_13187" data-name="Path 13187" d="M259.317,215.014a12.652,12.652,0,0,0-10.544,2.541c-4.7,3.985-.358,9.784-6.885,10.87S230.66,224.8,230.66,224.8" transform="translate(-134.417 -180.558)" fill="none" stroke="#737373" stroke-miterlimit="10" stroke-width="1"/>
      <path id="Path_13188" data-name="Path 13188" d="M286.882,257.78l.865,7.191s5.472,6.621-.58,8.066-5.757-2.309-5.757-2.309" transform="translate(-131.658 -178.219)" fill="none" stroke="#263238" stroke-miterlimit="10" stroke-width="1"/>
      <path id="Path_13189" data-name="Path 13189" d="M276,276.263s6.917,4.028,12.094,3.163,8.351-6.906,8.351-6.906" transform="translate(-131.952 -177.417)" fill="none" stroke="#263238" stroke-miterlimit="10" stroke-width="1"/>
      <path id="Path_13190" data-name="Path 13190" d="M273.738,259.465c0,1.982-1.054,3.6-2.309,3.6s-2.3-1.613-2.3-3.6,1.054-3.6,2.3-3.6S273.738,257.473,273.738,259.465Z" transform="translate(-132.325 -178.322)" fill="#263238"/>
      <path id="Path_13191" data-name="Path 13191" d="M295.848,255.365c0,1.993-1.054,3.606-2.3,3.606s-2.309-1.613-2.309-3.606,1.054-3.6,2.309-3.6S295.848,253.383,295.848,255.365Z" transform="translate(-131.123 -178.545)" fill="#263238"/>
      <path id="Path_13192" data-name="Path 13192" d="M261.75,252.782s6.326-4.892,14.107-3.458" transform="translate(-132.726 -178.693)" fill="none" stroke="#263238" stroke-miterlimit="10" stroke-width="1"/>
      <path id="Path_13193" data-name="Path 13193" d="M288.51,247.007a10.259,10.259,0,0,1,10.364-2.309" transform="translate(-131.272 -178.959)" fill="none" stroke="#263238" stroke-miterlimit="10" stroke-width="1"/>
      <path id="Path_13194" data-name="Path 13194" d="M278.477,252.562l-16.364,3.068a2.72,2.72,0,0,0-2.161,3.163l1.16,5.7a2.994,2.994,0,0,0,3.564,2.341l15.183-3.258a3,3,0,0,0,2.362-3.237l-.569-5.44a2.731,2.731,0,0,0-3.174-2.341Z" transform="translate(-132.827 -178.504)" fill="none" stroke="#263238" stroke-miterlimit="10" stroke-width="1"/>
      <path id="Path_13195" data-name="Path 13195" d="M289.4,250.28l16.785-2.857A2.288,2.288,0,0,1,309,249.669l.063,5.757a3.606,3.606,0,0,1-3.037,3.437l-15.71,2.288a2.52,2.52,0,0,1-3-2.214l-.58-5.272a3.163,3.163,0,0,1,2.667-3.384Z" transform="translate(-131.369 -178.785)" fill="none" stroke="#263238" stroke-miterlimit="10" stroke-width="1"/>
      <path id="Path_13196" data-name="Path 13196" d="M281.21,256.077a5.272,5.272,0,0,1,5.947-.991" transform="translate(-131.669 -178.393)" fill="none" stroke="#263238" stroke-miterlimit="10" stroke-width="1"/>
      <line id="Line_270" data-name="Line 270" x1="13.359" y1="6.758" transform="translate(114.252 75.829)" fill="none" stroke="#263238" stroke-miterlimit="10" stroke-width="1"/>
      <path id="Path_13197" data-name="Path 13197" d="M325.215,330.943l-3,56.429s2.109,1.054,11.746,7.254,24.535,6.917,26.612,4.492-6.674-89.947-6.674-89.947" transform="translate(-129.44 -175.425)" fill="#f24405" stroke="#263238" stroke-miterlimit="10" stroke-width="1"/>
      <path id="Path_13198" data-name="Path 13198" d="M200.849,405.625s-.97.97-4.618,1.455-8.519-1.213-9.732,2.436,4.376,5.831,7.539,5.346a62.835,62.835,0,0,0,8.994-2.678s6.811.243,9.974,1.466,5.6,3.163,10.459,1.94,9.11-.38,10.638-2.383,5.662-4.217-6.505-7.381a47.448,47.448,0,0,0-21.646-.738Z" transform="translate(-136.826 -170.261)" fill="#fff" stroke="#263238" stroke-miterlimit="10" stroke-width="1"/>
      <path id="Path_13199" data-name="Path 13199" d="M210.3,396.58s-4.386-1.455-6.811.243-5.841,14.35-6.811,18-.97,7.539.728,8.266,3.648-.727,4.861-3.891,8.034-17.028,8.762-18.725S213.206,396.095,210.3,396.58Z" transform="translate(-136.3 -170.705)" fill="#fff" stroke="#263238" stroke-miterlimit="10" stroke-width="1"/>
      <path id="Path_13200" data-name="Path 13200" d="M220.867,397.393s-8.656-1.56-10.839-.833-7.539,13.622-7.792,16.047-2.91,10.459.253,11.187,5.1-2.183,6.558-5.1,4.386-12.157,6.084-14.35a15.393,15.393,0,0,1,4.618-3.648S223.439,398.953,220.867,397.393Z" transform="translate(-136.031 -170.685)" fill="#fff" stroke="#263238" stroke-miterlimit="10" stroke-width="1"/>
      <path id="Path_13201" data-name="Path 13201" d="M365.251,397.922s8.5-2.646-4.639-10.248-26.612-8.635-31.1-6.917-71.644,23.407-71.644,23.407-32.485-5.177-37.324-5.873-7.212,4.481-9.321,8.625-4.839,15.552-4.144,16.933,4.144.348,4.84-1.381,2.762-7.6,3.448-8.635,5.883-4.144,5.883-4.144l8.287,1.381s-5.472,7.3-9.858,9.964-2.668,5.6-.485,5.6,8.762-3.891,11.187-5.841a81.965,81.965,0,0,1,6.811-4.618,16.309,16.309,0,0,0,6.569,1.455,84.1,84.1,0,0,0,14.592-2.182c2.678-.728,61.754-3.9,69.535-5.609S355.287,405.229,365.251,397.922Z" transform="translate(-135.705 -171.573)" fill="#fff" stroke="#263238" stroke-miterlimit="10" stroke-width="1"/>
    </g>
    <g id="freepik--Device--inject-4" transform="translate(66.683 351.257)">
      <rect id="Rectangle_19630" data-name="Rectangle 19630" width="196.448" height="3.595" transform="translate(15.733 92.995)" fill="#9c9c9c" stroke="#263238" stroke-miterlimit="10" stroke-width="1"/>
      <rect id="Rectangle_19631" data-name="Rectangle 19631" width="69.883" height="3.595" transform="translate(142.309 92.995)" fill="#263238" stroke="#263238" stroke-miterlimit="10" stroke-width="1"/>
      <path id="Path_13202" data-name="Path 13202" d="M208.595,427.154H81.692L66,338.968a4.091,4.091,0,0,1,4.028-4.808h118.6a4.091,4.091,0,0,1,4.028,3.374Z" transform="translate(-63.703 -334.16)" fill="#263238" stroke="#263238" stroke-miterlimit="10" stroke-width="1"/>
      <path id="Path_13203" data-name="Path 13203" d="M206.454,427.154H79.551L63.883,338.968a4.08,4.08,0,0,1,4.028-4.808H186.495a4.08,4.08,0,0,1,4.028,3.374Z" transform="translate(-63.818 -334.16)" fill="#9c9c9c" stroke="#263238" stroke-miterlimit="10" stroke-width="1"/>
    </g>
    <g id="freepik--Books--inject-4" transform="translate(292.159 413.222)">
      <path id="Path_13204" data-name="Path 13204" d="M463.417,409.61H378.563a8.593,8.593,0,0,0-8.582,8.593h0a8.593,8.593,0,0,0,8.583,8.583h84.855Z" transform="translate(-272.652 -392.023)" fill="#fff" stroke="#263238" stroke-miterlimit="10" stroke-width="1"/>
      <path id="Path_13205" data-name="Path 13205" d="M377.309,418.2a8.583,8.583,0,0,1,8.582-8.593H383.3a8.593,8.593,0,0,0,0,17.176h2.594A8.582,8.582,0,0,1,377.309,418.2Z" transform="translate(-272.379 -392.023)" fill="#fff" stroke="#263238" stroke-miterlimit="10" stroke-width="1"/>
      <path id="Path_13206" data-name="Path 13206" d="M401.289,418.2a8.582,8.582,0,0,1,8.583-8.593h-2.594a8.593,8.593,0,0,0,0,17.176h2.594A8.582,8.582,0,0,1,401.289,418.2Z" transform="translate(-271.075 -392.023)" fill="#fff" stroke="#263238" stroke-miterlimit="10" stroke-width="1"/>
      <path id="Path_13207" data-name="Path 13207" d="M417.315,409.61l-7.507,3.627-1.508,5.514,2,4.5,4.977,3.532h46.054V409.61Z" transform="translate(-270.569 -392.023)" fill="#fff" stroke="#263238" stroke-miterlimit="10" stroke-width="1"/>
      <path id="Path_13208" data-name="Path 13208" d="M415.906,424.192a5.989,5.989,0,1,1,0-11.977h48.5v-2.6H415.348a8.593,8.593,0,0,0,0,17.176h49.091v-2.594Z" transform="translate(-270.637 -392.023)" fill="#fff" stroke="#263238" stroke-miterlimit="10" stroke-width="1"/>
      <line id="Line_271" data-name="Line 271" x2="12.768" transform="translate(141.738 24.725)" fill="none" stroke="#263238" stroke-miterlimit="10" stroke-width="1"/>
      <line id="Line_272" data-name="Line 272" x2="9.257" transform="translate(150.499 27.73)" fill="none" stroke="#263238" stroke-miterlimit="10" stroke-width="1"/>
      <line id="Line_273" data-name="Line 273" x1="13.517" transform="translate(176.531 24.472)" fill="none" stroke="#263238" stroke-miterlimit="10" stroke-width="1"/>
      <line id="Line_274" data-name="Line 274" x1="13.264" transform="translate(168.518 28.478)" fill="none" stroke="#263238" stroke-miterlimit="10" stroke-width="1"/>
      <line id="Line_275" data-name="Line 275" x1="3.258" transform="translate(171.523 24.725)" fill="none" stroke="#263238" stroke-miterlimit="10" stroke-width="1"/>
      <path id="Path_13209" data-name="Path 13209" d="M463.417,392.93H378.563a8.593,8.593,0,0,0-8.582,8.593h0a8.593,8.593,0,0,0,8.583,8.583h84.855Z" transform="translate(-272.652 -392.93)" fill="#9c9c9c" stroke="#263238" stroke-miterlimit="10" stroke-width="1"/>
      <path id="Path_13210" data-name="Path 13210" d="M377.309,401.523a8.583,8.583,0,0,1,8.582-8.593H383.3a8.593,8.593,0,0,0,0,17.176h2.594A8.582,8.582,0,0,1,377.309,401.523Z" transform="translate(-272.379 -392.93)" fill="#fff" stroke="#263238" stroke-miterlimit="10" stroke-width="1"/>
      <path id="Path_13211" data-name="Path 13211" d="M401.289,401.523a8.582,8.582,0,0,1,8.583-8.593h-2.594a8.593,8.593,0,0,0,0,17.176h2.594a8.582,8.582,0,0,1-8.583-8.583Z" transform="translate(-271.075 -392.93)" fill="#fff" stroke="#263238" stroke-miterlimit="10" stroke-width="1"/>
      <path id="Path_13212" data-name="Path 13212" d="M417.315,392.93l-7.507,3.627-1.508,5.514,2,4.5,4.977,3.532h46.054V392.93Z" transform="translate(-270.569 -392.93)" fill="#fff" stroke="#263238" stroke-miterlimit="10" stroke-width="1"/>
      <path id="Path_13213" data-name="Path 13213" d="M415.906,407.512a6,6,0,0,1,0-11.988h48.5V392.93H415.348a8.593,8.593,0,0,0,0,17.176h49.091v-2.594Z" transform="translate(-270.637 -392.93)" fill="#263238" stroke="#263238" stroke-linecap="round" stroke-miterlimit="10" stroke-width="1"/>
      <line id="Line_276" data-name="Line 276" x2="12.768" transform="translate(141.738 7.138)" fill="none" stroke="#263238" stroke-miterlimit="10" stroke-width="1"/>
      <line id="Line_277" data-name="Line 277" x2="9.257" transform="translate(150.499 10.143)" fill="none" stroke="#263238" stroke-miterlimit="10" stroke-width="1"/>
      <line id="Line_278" data-name="Line 278" x1="13.517" transform="translate(176.531 6.885)" fill="none" stroke="#263238" stroke-miterlimit="10" stroke-width="1"/>
      <line id="Line_279" data-name="Line 279" x1="13.264" transform="translate(168.518 10.892)" fill="none" stroke="#263238" stroke-miterlimit="10" stroke-width="1"/>
      <line id="Line_280" data-name="Line 280" x1="3.258" transform="translate(171.523 7.138)" fill="none" stroke="#263238" stroke-miterlimit="10" stroke-width="1"/>
      <path id="Path_13214" data-name="Path 13214" d="M424.463,422.65H277.77v4.08h34.636l55.248-2.509,50.6,2.509h6.21Z" transform="translate(-277.665 -391.314)" fill="#bababa" stroke="#263238" stroke-miterlimit="10" stroke-width="1"/>
      <path id="Path_13215" data-name="Path 13215" d="M310.41,422.65v4.08l50.05-.654.78.654h9.278l1.086-.812,51.084.812v-4.08Z" transform="translate(-275.89 -391.314)" fill="#263238" stroke="#263238" stroke-miterlimit="10" stroke-width="1"/>
      <path id="Path_13216" data-name="Path 13216" d="M277.67,414.418s28.341-1.339,38.769-3.954,22.859-3.163,27.782-2.6a100.594,100.594,0,0,1,10.7,2.035s20.265-2.035,34.151-.875S404.415,423.2,404.415,423.2H280.833Z" transform="translate(-277.67 -392.129)" fill="#fff" stroke="#263238" stroke-miterlimit="10" stroke-width="1"/>
      <path id="Path_13217" data-name="Path 13217" d="M365.218,423.388v-8.593s-14.951-8.15-28.984-4.987-26.254,4.534-26.254,4.534v9.046Z" transform="translate(-275.914 -392.052)" fill="#fff" stroke="#263238" stroke-miterlimit="10" stroke-width="1"/>
      <path id="Path_13218" data-name="Path 13218" d="M362.37,423.388v-8.593s14.94-8.15,28.974-4.987,26.264,4.534,26.264,4.534v9.046Z" transform="translate(-273.066 -392.052)" fill="#fff" stroke="#263238" stroke-miterlimit="10" stroke-width="1"/>
      <rect id="Rectangle_19632" data-name="Rectangle 19632" width="34.056" height="9.057" transform="translate(0 22.289)" fill="#fff" stroke="#263238" stroke-miterlimit="10" stroke-width="1"/>
      <path id="Path_13219" data-name="Path 13219" d="M332.11,416.271c4.913-.517,10.027-1.054,13.422-1.318,6.969-.6,16.364,3.332,16.364,3.332" transform="translate(-274.711 -391.736)" fill="none" stroke="#263238" stroke-miterlimit="10" stroke-width="1"/>
      <path id="Path_13220" data-name="Path 13220" d="M320.11,417.588c1.75-.221,4.713-.559,8.119-.928" transform="translate(-275.363 -391.64)" fill="none" stroke="#263238" stroke-miterlimit="10" stroke-width="1"/>
      <path id="Path_13221" data-name="Path 13221" d="M359.618,420.484s-7.275-2.109-13.338-1.212" transform="translate(-273.94 -391.51)" fill="none" stroke="#263238" stroke-miterlimit="10" stroke-width="1"/>
      <path id="Path_13222" data-name="Path 13222" d="M349.221,412.652a56.866,56.866,0,0,0-12.431.907" transform="translate(-274.456 -391.86)" fill="none" stroke="#263238" stroke-miterlimit="10" stroke-width="1"/>
      <path id="Path_13223" data-name="Path 13223" d="M393.723,417.349c-5.114-.474-11.366-.959-15.151-.959a56.727,56.727,0,0,0-13.025,1.517" transform="translate(-272.893 -391.655)" fill="none" stroke="#263238" stroke-miterlimit="10" stroke-width="1"/>
      <path id="Path_13224" data-name="Path 13224" d="M400.52,418.13l-3.69-.39" transform="translate(-271.193 -391.581)" fill="none" stroke="#263238" stroke-miterlimit="10" stroke-width="1"/>
      <path id="Path_13225" data-name="Path 13225" d="M369.85,415.062a26.876,26.876,0,0,1,14.856-.306" transform="translate(-272.659 -391.792)" fill="none" stroke="#263238" stroke-miterlimit="10" stroke-width="1"/>
      <path id="Path_13226" data-name="Path 13226" d="M370.14,420.763a55.936,55.936,0,0,1,12.431-1.212c5.451.306,19.4,1.518,19.4,1.518" transform="translate(-272.643 -391.483)" fill="none" stroke="#263238" stroke-miterlimit="10" stroke-width="1"/>
    </g>
    <g id="freepik--Table--inject-4" transform="translate(17.003 448.395)">
      <line id="Line_281" data-name="Line 281" x2="494.663" fill="none" stroke="#263238" stroke-miterlimit="10" stroke-width="1"/>
    </g>
    <g id="freepik--Texts--inject-4" transform="translate(88.341 141.207)">
      <path id="Path_13227" data-name="Path 13227" d="M144.9,180.8V148.22h5.915v13.633h6.642V148.22H163.4V180.8h-5.947V166.039h-6.642V180.8Z" transform="translate(-81.069 -134.218)" fill="#263238"/>
      <path id="Path_13228" data-name="Path 13228" d="M173.906,180.707a8.182,8.182,0,0,1-4.27-.991,5.82,5.82,0,0,1-2.425-2.889,12.062,12.062,0,0,1-.791-4.608v-7a12.146,12.146,0,0,1,.791-4.671,5.725,5.725,0,0,1,2.446-2.857,8.435,8.435,0,0,1,4.217-.959,7.686,7.686,0,0,1,4.323,1.054,5.694,5.694,0,0,1,2.214,3.037,15.436,15.436,0,0,1,.664,4.85v3.3h-9.257v4.586a6.442,6.442,0,0,0,.221,1.845,1.8,1.8,0,0,0,.706,1.054,1.993,1.993,0,0,0,1.17.327,1.71,1.71,0,0,0,1.8-1.4,5.756,5.756,0,0,0,.2-1.666v-1.94h5.114v1.56a7.634,7.634,0,0,1-1.771,5.43A7.022,7.022,0,0,1,173.906,180.707ZM171.8,166.262h4.1v-2.214a7.581,7.581,0,0,0-.2-1.951,1.94,1.94,0,0,0-.643-1.054,2.035,2.035,0,0,0-1.244-.337,1.782,1.782,0,0,0-1.17.358,2.172,2.172,0,0,0-.643,1.213,11.44,11.44,0,0,0-.2,2.4Z" transform="translate(-79.9 -133.756)" fill="#263238"/>
      <path id="Path_13229" data-name="Path 13229" d="M184.2,180.8V148.22h5.43V180.8Z" transform="translate(-78.933 -134.218)" fill="#263238"/>
      <path id="Path_13230" data-name="Path 13230" d="M193.82,180.8V148.22h5.462V180.8Z" transform="translate(-78.41 -134.218)" fill="#263238"/>
      <path id="Path_13231" data-name="Path 13231" d="M210.147,180.706a8.34,8.34,0,0,1-4.217-.949,5.926,5.926,0,0,1-2.467-2.752,10.544,10.544,0,0,1-.822-4.386v-7.8a10.544,10.544,0,0,1,.822-4.386,5.82,5.82,0,0,1,2.467-2.752,8.34,8.34,0,0,1,4.217-.949,8.435,8.435,0,0,1,4.217.949,5.83,5.83,0,0,1,2.5,2.752,10.543,10.543,0,0,1,.822,4.386v7.8a10.543,10.543,0,0,1-.822,4.386,5.936,5.936,0,0,1-2.5,2.752A8.435,8.435,0,0,1,210.147,180.706Zm0-3.785a1.687,1.687,0,0,0,1.371-.517,2.689,2.689,0,0,0,.559-1.434,14.409,14.409,0,0,0,.127-1.993v-8.53a13.824,13.824,0,0,0-.127-1.961,2.762,2.762,0,0,0-.559-1.434,2.014,2.014,0,0,0-2.741,0,2.963,2.963,0,0,0-.58,1.434,12.352,12.352,0,0,0-.137,1.961v8.53a12.859,12.859,0,0,0,.232,1.961,2.878,2.878,0,0,0,.58,1.434,1.708,1.708,0,0,0,1.318.548Z" transform="translate(-77.931 -133.756)" fill="#263238"/>
      <path id="Path_13232" data-name="Path 13232" d="M106.2,250.863V219h4.449v13.759h8.171V219h4.439v31.831h-4.439V235.975h-8.171v14.888Z" transform="translate(-83.173 -130.371)" fill="#263238"/>
      <path id="Path_13233" data-name="Path 13233" d="M133.055,250.727a6.79,6.79,0,0,1-3.975-1.054,5.4,5.4,0,0,1-2.109-2.91,14.286,14.286,0,0,1-.612-4.439v-6.6a14.286,14.286,0,0,1,.612-4.439,5.4,5.4,0,0,1,2.109-2.91,6.79,6.79,0,0,1,3.975-1.054,6.7,6.7,0,0,1,3.954,1.054,5.472,5.472,0,0,1,2.035,2.91,14.286,14.286,0,0,1,.612,4.439v6.6a14.287,14.287,0,0,1-.612,4.439,5.472,5.472,0,0,1-2.035,2.91A6.7,6.7,0,0,1,133.055,250.727Zm0-3.1a1.951,1.951,0,0,0,1.708-.706,3.8,3.8,0,0,0,.59-1.877c.063-.77.095-1.571.095-2.415v-7.106a20.2,20.2,0,0,0-.095-2.446,3.87,3.87,0,0,0-.59-1.866,1.908,1.908,0,0,0-1.708-.728,1.961,1.961,0,0,0-1.729.728,3.764,3.764,0,0,0-.612,1.866c-.063.759-.095,1.582-.095,2.446v7.106a19.925,19.925,0,0,0,.095,2.414,3.7,3.7,0,0,0,.612,1.877,2,2,0,0,0,1.729.706Z" transform="translate(-82.077 -129.919)" fill="#263238"/>
      <path id="Path_13234" data-name="Path 13234" d="M143,250.863V219h4.217v31.831Z" transform="translate(-81.172 -130.371)" fill="#263238"/>
      <path id="Path_13235" data-name="Path 13235" d="M155.236,250.725a3.8,3.8,0,0,1-2.362-.77,5.356,5.356,0,0,1-1.613-1.961,5.715,5.715,0,0,1-.59-2.53,8.256,8.256,0,0,1,.706-3.585,7.275,7.275,0,0,1,1.951-2.457,13.39,13.39,0,0,1,2.868-1.74c1.054-.506,2.235-.991,3.437-1.455v-1.613a13.548,13.548,0,0,0-.158-2.277,2.235,2.235,0,0,0-.643-1.36,2.109,2.109,0,0,0-1.476-.453,2.246,2.246,0,0,0-1.392.39,2.193,2.193,0,0,0-.77,1.128,5.536,5.536,0,0,0-.232,1.708v1.139l-4.165-.158a7.989,7.989,0,0,1,1.729-5.567,6.611,6.611,0,0,1,5.1-1.782q3.384,0,4.8,1.845a8.635,8.635,0,0,1,1.413,5.346V244.9c0,.706,0,1.392.063,2.045s.095,1.265.158,1.824.127,1.054.179,1.592h-3.859c-.074-.411-.179-.949-.3-1.592s-.2-1.223-.253-1.74a6.052,6.052,0,0,1-1.518,2.488,4.038,4.038,0,0,1-3.079,1.2Zm1.645-3.616a2.172,2.172,0,0,0,1.181-.348,5.271,5.271,0,0,0,.981-.812,3.543,3.543,0,0,0,.59-.728v-6.442c-.654.369-1.265.738-1.845,1.054a10.546,10.546,0,0,0-1.508,1.16,4.618,4.618,0,0,0-1.054,1.381,4.513,4.513,0,0,0,.137,3.912,1.666,1.666,0,0,0,1.56.822Z" transform="translate(-80.756 -129.916)" fill="#263238"/>
      <path id="Path_13236" data-name="Path 13236" d="M344.775,271.395a6.252,6.252,0,0,1-3.891-1.054,5.272,5.272,0,0,1-1.9-2.815,13.856,13.856,0,0,1-.517-3.922v-9.911a13.938,13.938,0,0,1,.538-4.07,5.124,5.124,0,0,1,1.919-2.741,6.6,6.6,0,0,1,3.848-.981,6.231,6.231,0,0,1,3.532.865,4.755,4.755,0,0,1,1.824,2.446,11.146,11.146,0,0,1,.559,3.764v1.518h-2.172v-1.455a13.31,13.31,0,0,0-.264-2.794,3.163,3.163,0,0,0-1.054-1.824,3.68,3.68,0,0,0-2.372-.643,3.891,3.891,0,0,0-2.509.7,3.479,3.479,0,0,0-1.139,1.951,13.4,13.4,0,0,0-.285,2.931V263.93a11.526,11.526,0,0,0,.348,3.079,3.3,3.3,0,0,0,1.223,1.845,3.975,3.975,0,0,0,2.362.612,3.564,3.564,0,0,0,2.372-.675,3.29,3.29,0,0,0,1.054-1.887,14.078,14.078,0,0,0,.264-2.847v-1.634h2.214v1.508a13.579,13.579,0,0,1-.506,3.88,4.966,4.966,0,0,1-1.782,2.636,6.084,6.084,0,0,1-3.669.949Z" transform="translate(-70.547 -128.909)" fill="#263238"/>
      <path id="Path_13237" data-name="Path 13237" d="M353.33,250.727V247.68h2.246v3.047Zm0,20.254V253.194h2.246v17.787Z" transform="translate(-69.739 -128.812)" fill="#263238"/>
      <path id="Path_13238" data-name="Path 13238" d="M362.124,271a3.237,3.237,0,0,1-1.845-.538,3.849,3.849,0,0,1-1.255-1.434,4.218,4.218,0,0,1-.464-2,5.809,5.809,0,0,1,.4-2.309A4.682,4.682,0,0,1,360.2,263a10.879,10.879,0,0,1,2.214-1.476c.917-.485,2.024-1.054,3.342-1.613V258.65a12.65,12.65,0,0,0-.2-2.573,2.362,2.362,0,0,0-.675-1.339,2.046,2.046,0,0,0-1.339-.4,2.857,2.857,0,0,0-1.265.274,2.108,2.108,0,0,0-.9.938,4.154,4.154,0,0,0-.337,1.835V258h-2.214a6.147,6.147,0,0,1,1.149-4.017,4.618,4.618,0,0,1,3.68-1.318,3.817,3.817,0,0,1,3.363,1.434,7.992,7.992,0,0,1,.98,4.449v9.837a9.568,9.568,0,0,0,.063,1.371c.063.432.063.759.084.981h-2c-.063-.39-.126-.822-.2-1.307s-.116-.865-.137-1.149a4.6,4.6,0,0,1-1.307,1.908,3.522,3.522,0,0,1-2.383.812Zm.738-1.908a2.383,2.383,0,0,0,1.223-.327,4.219,4.219,0,0,0,.981-.812,5.019,5.019,0,0,0,.7-.991v-5.5c-.886.464-1.634.886-2.267,1.244a9.171,9.171,0,0,0-1.518,1.054,3.321,3.321,0,0,0-.865,1.181,3.91,3.91,0,0,0-.274,1.55,2.794,2.794,0,0,0,.6,2.024A1.951,1.951,0,0,0,362.862,269.088Z" transform="translate(-69.455 -128.542)" fill="#263238"/>
      <path id="Path_13239" data-name="Path 13239" d="M375.065,271a4.681,4.681,0,0,1-2.868-.791,4.06,4.06,0,0,1-1.455-2.277,13.875,13.875,0,0,1-.422-3.648v-4.934a13.875,13.875,0,0,1,.422-3.648,4.133,4.133,0,0,1,1.455-2.277,4.681,4.681,0,0,1,2.868-.791,4.628,4.628,0,0,1,2.878.791,4.218,4.218,0,0,1,1.444,2.277,13.444,13.444,0,0,1,.422,3.648v4.924a13.442,13.442,0,0,1-.422,3.648,4.1,4.1,0,0,1-1.445,2.277,4.629,4.629,0,0,1-2.878.8Zm0-1.7a2.109,2.109,0,0,0,1.708-.612,3.163,3.163,0,0,0,.664-1.729,22.78,22.78,0,0,0,.127-2.552v-5.177a22.563,22.563,0,0,0-.126-2.541,3.163,3.163,0,0,0-.664-1.719,2.608,2.608,0,0,0-3.406,0,3.227,3.227,0,0,0-.654,1.719,20.176,20.176,0,0,0-.137,2.541v5.177a20.35,20.35,0,0,0,.137,2.552,3.164,3.164,0,0,0,.654,1.729A2.109,2.109,0,0,0,375.065,269.3Z" transform="translate(-68.816 -128.543)" fill="#263238"/>
      <path id="Path_13240" data-name="Path 13240" d="M167.75,284.806V259.87h2.372v11.05h7.855V259.87h2.341v24.936h-2.341V272.659h-7.855V284.8Z" transform="translate(-79.827 -128.149)" fill="#263238"/>
      <path id="Path_13241" data-name="Path 13241" d="M186.454,284.725a3.247,3.247,0,0,1-1.856-.538,3.764,3.764,0,0,1-1.255-1.434,4.281,4.281,0,0,1-.464-2,5.978,5.978,0,0,1,.4-2.3,4.755,4.755,0,0,1,1.244-1.719,12.008,12.008,0,0,1,2.214-1.476c.917-.474,2.035-1.054,3.342-1.613v-1.265a12.548,12.548,0,0,0-.2-2.562,2.33,2.33,0,0,0-.675-1.35,2.045,2.045,0,0,0-1.339-.4,2.731,2.731,0,0,0-1.265.285,1.972,1.972,0,0,0-.886.938,4,4,0,0,0-.348,1.835v.612h-2.214a6.189,6.189,0,0,1,1.16-4.017,4.6,4.6,0,0,1,3.68-1.307,3.753,3.753,0,0,1,3.353,1.434,7.971,7.971,0,0,1,.981,4.449v9.827a9.566,9.566,0,0,0,.063,1.371c.063.422.053.759.074.991h-2c-.063-.39-.127-.822-.2-1.307s-.116-.865-.137-1.16a4.439,4.439,0,0,1-1.307,1.908,3.437,3.437,0,0,1-2.362.8Zm.77-1.877a2.246,2.246,0,0,0,1.213-.327,4.217,4.217,0,0,0,.981-.812,4.015,4.015,0,0,0,.7-.981v-5.578c-.886.474-1.634.886-2.256,1.244a8.871,8.871,0,0,0-1.529,1.054,3.416,3.416,0,0,0-.865,1.181,4.122,4.122,0,0,0-.274,1.561,2.784,2.784,0,0,0,.6,2.014A1.95,1.95,0,0,0,187.224,282.849Z" transform="translate(-79.005 -127.795)" fill="#263238"/>
      <path id="Path_13242" data-name="Path 13242" d="M195.26,284.806V259.87h2.246v24.936Z" transform="translate(-78.332 -128.149)" fill="#263238"/>
      <path id="Path_13243" data-name="Path 13243" d="M205.245,284.726a4.691,4.691,0,0,1-2.857-.78,4.091,4.091,0,0,1-1.466-2.277,13.928,13.928,0,0,1-.422-3.648v-4.934a13.927,13.927,0,0,1,.422-3.648,4.091,4.091,0,0,1,1.466-2.277,5.662,5.662,0,0,1,5.736,0,4.217,4.217,0,0,1,1.444,2.277,13.493,13.493,0,0,1,.422,3.648v4.934a13.494,13.494,0,0,1-.422,3.648,4.218,4.218,0,0,1-1.444,2.277A4.692,4.692,0,0,1,205.245,284.726Zm0-1.687a2.109,2.109,0,0,0,1.708-.622,3.078,3.078,0,0,0,.664-1.719,22.843,22.843,0,0,0,.127-2.562V272.97a22.3,22.3,0,0,0-.126-2.541,3.163,3.163,0,0,0-.664-1.729,2.627,2.627,0,0,0-3.4.021,3.268,3.268,0,0,0-.664,1.729,19.937,19.937,0,0,0-.137,2.541v5.166a20.413,20.413,0,0,0,.137,2.562,3.163,3.163,0,0,0,.664,1.719A2.109,2.109,0,0,0,205.245,283.039Z" transform="translate(-78.047 -127.795)" fill="#263238"/>
      <path id="Path_13244" data-name="Path 13244" d="M382.945,371.516A39.173,39.173,0,0,1,376.5,372a24.357,24.357,0,0,1-4.154-.274c-2.562-.569-3.659-2.183-3.659-4.049a6.748,6.748,0,0,1,2.161-4.523l1.223.633a5.8,5.8,0,0,0-1.866,3.764c0,1.234.833,2.351,2.657,2.752a17.44,17.44,0,0,0,3.448.264,35.606,35.606,0,0,0,6.527-.58Zm-9.489-10.691a25.62,25.62,0,0,1,3.743-2.457h0c-1.6.19-5.272.274-7.644.253v-1.487c.464,0,8.6.148,12.072-.675l.169,1.56c-2.52.306-5.757,2.5-7.117,3.585Z" transform="translate(-68.904 -122.898)" fill="#263238"/>
      <path id="Path_13245" data-name="Path 13245" d="M384.34,372.3c1.56-4.492,4.217-11.988,5-14.234.4-1.139.949-2.752,1.054-3.279l2.288.59c-.105.306-.4.411-.822.411-1.17,2.9-2.963,7.855-3.754,9.974h0a6.79,6.79,0,0,1,4.639-2.615c1.845,0,2.731,1.255,2.668,3.226l-.063,2.52a2.109,2.109,0,0,0,2.2,2.457c1.908,0,3.669-2.183,4.639-5.831a8.631,8.631,0,0,0,1.381.791c-1.17,4.038-3.269,6.579-6.084,6.579a3.374,3.374,0,0,1-3.7-3.511c0-.4.063-2.351.063-2.794,0-1.339-.559-2.035-1.487-2.035-2.436,0-4.892,3.532-5.419,4.913-.3.738-.759,2.109-1.17,3.321Z" transform="translate(-68.053 -122.989)" fill="#263238"/>
      <path id="Path_13246" data-name="Path 13246" d="M408.693,355.661c-.063.232-.274.358-.7.337a50.976,50.976,0,0,0-1.118,9.489,23.353,23.353,0,0,0,.274,4.217c.4-1.054,1.307-3.258,1.6-4.007l.9.938c-.875,2.109-1.508,3.342-1.8,4.3a3.614,3.614,0,0,0-.169.991,2.234,2.234,0,0,0,.105.654l-1.508.274a23.268,23.268,0,0,1-.928-7.286,62.207,62.207,0,0,1,1.118-10.312Zm13.5,15.478c-.77,0-1.55.063-2.33.063a29.383,29.383,0,0,1-3.943-.232c-2.6-.39-3.806-1.824-3.806-3.522,0-1.455.8-2.689,1.982-4.08l1.381.59a5.029,5.029,0,0,0-1.8,3.321c0,2.457,3.606,2.457,5.81,2.457a23.732,23.732,0,0,0,2.731-.105ZM412.362,358.2a71.142,71.142,0,0,0,9.226-.812l.137,1.487a80.708,80.708,0,0,1-9.321.78Z" transform="translate(-66.912 -122.964)" fill="#263238"/>
      <path id="Path_13247" data-name="Path 13247" d="M439.531,358.419a48.924,48.924,0,0,1-9.1,1.223,25.537,25.537,0,0,1-1.054,5.609,10.849,10.849,0,0,1,6.02-2.246c3.163,0,5.082,1.7,5.082,4.555,0,4.217-4.217,5.641-11.145,5.81a6.179,6.179,0,0,0-.422-1.4c6.084-.126,10.016-1.16,10.016-4.365,0-1.9-1.265-3.216-3.722-3.216-1.887,0-5.124,1.139-6.527,3.237l-1.476-.7c.675-.759,1.371-3.8,1.687-7.265H424V358.2h5.082c.084-1.212.127-2.573.127-3.838l2.246.211c0,.358-.3.422-.675.464,0,1.054-.105,2.109-.19,3.163a41.124,41.124,0,0,0,8.677-1.286Z" transform="translate(-65.897 -123.012)" fill="#263238"/>
      <path id="Path_13248" data-name="Path 13248" d="M444.367,372.583c-.654-1.518-.907-4.681-.907-7.454a54.25,54.25,0,0,1,1.139-9.89l2.056.4a.538.538,0,0,1-.548.39,40.193,40.193,0,0,0-1.234,9.12,25.214,25.214,0,0,0,.19,4.007c.475-1.276,1.318-3.3,1.761-4.3l.949.9c-.7,1.434-2.172,4.65-2.172,5.651a2.889,2.889,0,0,0,.211,1.054Zm5.377-12.473c1.782,0,3.564,0,5.335-.084-.084-1.813-.148-3.384-.19-4.956l2.109.063c0,.211-.211.38-.548.443,0,1.36.063,2.741.105,4.344a18.887,18.887,0,0,0,4.154-.844l.19,1.476a19.787,19.787,0,0,1-4.217.77c.084,2.351.19,4.829.253,6.179a15.678,15.678,0,0,1,4.323,2.689l-.822,1.36A12.811,12.811,0,0,0,457,369.135c0,1.8-.358,3.806-3.532,3.806-2.478,0-4.133-1.181-4.133-3.047,0-2.161,2.183-3.11,4.133-3.11a7.383,7.383,0,0,1,2.014.274c-.074-1.339-.2-3.553-.306-5.63-.654,0-1.539.063-2.109.063h-3.226Zm5.81,8.329a7.3,7.3,0,0,0-2.109-.39c-1.3,0-2.836.474-2.836,1.8s1.265,1.782,2.815,1.782,2.109-.759,2.109-2.457Z" transform="translate(-64.84 -122.974)" fill="#263238"/>
      <path id="Path_13249" data-name="Path 13249" d="M356.34,218.086V193.15h12.747v24.936h-2.341v-23.2h-8.066v23.2Z" transform="translate(-69.575 -131.776)" fill="#263238"/>
      <path id="Path_13250" data-name="Path 13250" d="M372.11,223.584V199.934h2.246v1.476a6.782,6.782,0,0,1,1.381-1.2,3.6,3.6,0,0,1,2.035-.548,3.311,3.311,0,0,1,2.109.6,3.848,3.848,0,0,1,1.213,1.613,8.191,8.191,0,0,1,.59,2.277,21.078,21.078,0,0,1,.158,2.615V210.5a18.208,18.208,0,0,1-.39,3.964,5.272,5.272,0,0,1-1.307,2.625,3.5,3.5,0,0,1-2.583.917,3.163,3.163,0,0,1-1.866-.548,7.507,7.507,0,0,1-1.307-1.139v7.265Zm5.05-7.328a1.845,1.845,0,0,0,1.539-.664,3.881,3.881,0,0,0,.685-1.94,23.533,23.533,0,0,0,.169-3.089v-3.8a20.626,20.626,0,0,0-.169-2.931,3.458,3.458,0,0,0-.685-1.8,1.951,1.951,0,0,0-1.571-.622,2.921,2.921,0,0,0-1.592.464,7.2,7.2,0,0,0-1.181.928v12.125a4.788,4.788,0,0,0,1.213.928A3.279,3.279,0,0,0,377.16,216.256Z" transform="translate(-68.718 -131.422)" fill="#263238"/>
      <path id="Path_13251" data-name="Path 13251" d="M384.28,217.718v-17.8h1.908v13.707l5.947-13.707h1.814v17.8H392.04V204.011l-5.873,13.707Z" transform="translate(-68.057 -131.408)" fill="#263238"/>
      <path id="Path_13252" data-name="Path 13252" d="M396.72,217.718v-17.8h4.312a5.082,5.082,0,0,1,2.71.622,3.479,3.479,0,0,1,1.4,1.582,5.5,5.5,0,0,1,0,4.376,2.794,2.794,0,0,1-1.814,1.55,3.036,3.036,0,0,1,1.613.97,4.334,4.334,0,0,1,.822,1.613,7.823,7.823,0,0,1,.243,1.94,8.035,8.035,0,0,1-.4,2.678,3.4,3.4,0,0,1-1.413,1.824,5.566,5.566,0,0,1-2.931.643Zm2.214-10.28h2.3a2.109,2.109,0,0,0,1.687-.77,3.426,3.426,0,0,0,.654-2.256,2.436,2.436,0,0,0-2.741-2.762h-1.856Zm0,8.551h1.94a3.248,3.248,0,0,0,1.687-.38,2.225,2.225,0,0,0,.917-1.191,5.461,5.461,0,0,0,.3-1.929,4.9,4.9,0,0,0-.359-2.109,1.961,1.961,0,0,0-.97-1,3.312,3.312,0,0,0-1.413-.285h-2.109Z" transform="translate(-67.38 -131.408)" fill="#263238"/>
      <path id="Path_13253" data-name="Path 13253" d="M412.588,218.006a5.051,5.051,0,0,1-2.72-.664,3.869,3.869,0,0,1-1.571-2.193,13.538,13.538,0,0,1-.506-4.1v-4.492a12.754,12.754,0,0,1,.527-4.144,3.785,3.785,0,0,1,1.592-2.109,5.272,5.272,0,0,1,2.678-.633,4.481,4.481,0,0,1,2.9.8,4.217,4.217,0,0,1,1.371,2.414,18.6,18.6,0,0,1,.38,4.144v1.6h-7.2v3.1a10.952,10.952,0,0,0,.264,2.731,2.541,2.541,0,0,0,.833,1.434,2.362,2.362,0,0,0,1.455.432,2.941,2.941,0,0,0,1.234-.264,1.866,1.866,0,0,0,.875-1.054,5.45,5.45,0,0,0,.327-2.109V211.68h2.182v.991a6.7,6.7,0,0,1-1.054,3.891,4.07,4.07,0,0,1-3.564,1.444Zm-2.552-10.681h4.987v-1.476a17.3,17.3,0,0,0-.148-2.414,2.815,2.815,0,0,0-.664-1.539,2.109,2.109,0,0,0-1.624-.548,2.552,2.552,0,0,0-1.487.4,2.393,2.393,0,0,0-.822,1.434,13.822,13.822,0,0,0-.243,2.942Z" transform="translate(-66.779 -131.422)" fill="#263238"/>
      <path id="Path_13254" data-name="Path 13254" d="M421.918,217.718V201.649H418.07V199.92h9.879v1.729h-3.785v16.068Z" transform="translate(-66.22 -131.408)" fill="#263238"/>
      <path id="Path_13255" data-name="Path 13255" d="M432.608,254.5a4.217,4.217,0,0,1-2.3-.569,3.669,3.669,0,0,1-1.371-1.613,7.191,7.191,0,0,1-.559-2.414l1.4-.422a8.8,8.8,0,0,0,.369,1.887,2.826,2.826,0,0,0,.865,1.35,2.372,2.372,0,0,0,4-1.961,3.437,3.437,0,0,0-.559-1.94,10.289,10.289,0,0,0-1.518-1.729l-2.994-2.868a5.365,5.365,0,0,1-1.17-1.6,4.217,4.217,0,0,1-.38-1.8,3.469,3.469,0,0,1,1.054-2.71,4.028,4.028,0,0,1,2.784-.938,5.209,5.209,0,0,1,1.624.232,2.994,2.994,0,0,1,1.234.738,3.606,3.606,0,0,1,.8,1.329,7.643,7.643,0,0,1,.4,1.993l-1.36.358a7.191,7.191,0,0,0-.348-1.835,2.256,2.256,0,0,0-.812-1.16,3.058,3.058,0,0,0-3.258.148,2.109,2.109,0,0,0-.664,1.7,3.069,3.069,0,0,0,.253,1.255,4.219,4.219,0,0,0,.938,1.212l2.994,2.826a11.43,11.43,0,0,1,1.74,2.109,4.766,4.766,0,0,1,.728,2.594,4.281,4.281,0,0,1-.5,2.109,3.163,3.163,0,0,1-1.371,1.286,4.576,4.576,0,0,1-2.025.443Z" transform="translate(-65.659 -129.383)" fill="#263238"/>
      <path id="Path_13256" data-name="Path 13256" d="M439.9,254.231a2.214,2.214,0,0,1-1.255-.358,2.584,2.584,0,0,1-.854-.981,2.879,2.879,0,0,1-.316-1.36,4.111,4.111,0,0,1,.274-1.571,3.279,3.279,0,0,1,.843-1.16,7.937,7.937,0,0,1,1.508-1q.939-.5,2.277-1.107v-.854a9.383,9.383,0,0,0-.127-1.719,1.571,1.571,0,0,0-.464-.907,1.371,1.371,0,0,0-.907-.274,1.9,1.9,0,0,0-.865.19,1.4,1.4,0,0,0-.6.633,2.74,2.74,0,0,0-.232,1.255v.411H437.67a4.218,4.218,0,0,1,.78-2.731,3.163,3.163,0,0,1,2.509-.886,2.573,2.573,0,0,1,2.277.97,5.356,5.356,0,0,1,.675,3.026v7.623a2.374,2.374,0,0,0,.053.675H442.6a8.106,8.106,0,0,0-.137-.9c-.042-.327-.084-.59-.095-.78a3.047,3.047,0,0,1-.9,1.3,2.32,2.32,0,0,1-1.582.506Zm.506-1.3a1.55,1.55,0,0,0,.822-.221,2.574,2.574,0,0,0,.675-.548,3.285,3.285,0,0,0,.474-.675v-3.764c-.6.316-1.118.6-1.539.844a5.944,5.944,0,0,0-1.054.727,2.225,2.225,0,0,0-.58.8,2.731,2.731,0,0,0-.19,1.054,1.919,1.919,0,0,0,.411,1.381A1.35,1.35,0,0,0,440.4,252.934Z" transform="translate(-65.165 -129.131)" fill="#263238"/>
      <path id="Path_13257" data-name="Path 13257" d="M445.89,254.295V237.33h1.529v16.965Z" transform="translate(-64.707 -129.374)" fill="#263238"/>
      <path id="Path_13258" data-name="Path 13258" d="M451.562,254.044,449,241.94h1.55l1.972,10.343,1.94-10.343h1.487l-2.53,12.1Z" transform="translate(-64.538 -129.124)" fill="#263238"/>
      <path id="Path_13259" data-name="Path 13259" d="M460.038,254.233a3.533,3.533,0,0,1-1.856-.443,2.72,2.72,0,0,1-1.054-1.5,9.1,9.1,0,0,1-.348-2.784v-3.058a8.657,8.657,0,0,1,.358-2.815,2.531,2.531,0,0,1,1.054-1.444,3.49,3.49,0,0,1,1.824-.432,3.163,3.163,0,0,1,1.972.538,2.931,2.931,0,0,1,.928,1.645,12.262,12.262,0,0,1,.264,2.815v1.054h-4.9v2.109a7.791,7.791,0,0,0,.179,1.856,1.655,1.655,0,0,0,.569.97,1.56,1.56,0,0,0,.991.3,1.792,1.792,0,0,0,.833-.179,1.265,1.265,0,0,0,.6-.685,3.827,3.827,0,0,0,.221-1.455v-.843h1.487v.675a4.544,4.544,0,0,1-.7,2.646A2.762,2.762,0,0,1,460.038,254.233Zm-1.74-7.265h3.4v-1a10.546,10.546,0,0,0-.105-1.645,1.919,1.919,0,0,0-.453-1.054,1.445,1.445,0,0,0-1.054-.369,1.718,1.718,0,0,0-1.054.274,1.582,1.582,0,0,0-.559.97,8.929,8.929,0,0,0-.169,2Z" transform="translate(-64.116 -129.134)" fill="#263238"/>
      <path id="Path_13260" data-name="Path 13260" d="M250.265,138.384c.337-.063.612-.169.612-.422a.791.791,0,0,0-.19-.422c-.19-.148-.274-.243-.274-.327s.084-.105.274-.105c.633,0,1.381.348,1.381.664s-.253.443-.3.7c2.436.559,3.5,2.109,3.5,3.6,0,1.887-1.676,3.732-4.4,3.732-2.889,0-4.586-1.761-4.586-3.732C246.29,140.43,247.545,138.806,250.265,138.384Zm-2.657,3.68a2.9,2.9,0,0,0,3.163,2.836,2.857,2.857,0,1,0,0-5.683,2.921,2.921,0,0,0-3.163,2.847Zm4.312,7.233c0-.4-.5-.59-1.571-.907-.232-.063-.39-.137-.39-.243s.179-.211.664-.3a15.994,15.994,0,0,1,2.225.148c.369.084.453.211.453.39a1.786,1.786,0,0,1-.063.548v2.889c0,.485.3.675,1.054.717h3.785c1.571-.127.822-.612,2.689-.612.685,0,1.571.084,1.571.717,0,.253-.211.453-.569.453h-7.56c-1.4,0-2.183-.348-2.267-1.4Zm7.085-12.4c0-.232-.548-.612-1.8-1.149-.316-.105-.485-.232-.485-.316s.253-.211.759-.232c.084,0,2.952.358,2.952,1.054,0,.148-.084.316-.084.527v6.579h.938c.97-.19.527-.59,2.109-.59.422,0,1.191,0,1.191.569a.548.548,0,0,1-.6.517l-3.69.084c0,3.8-.148,4.734-.358,5.325-.19.4-.422.706-.6.706s-.316-.242-.337-.938Z" transform="translate(-75.558 -134.926)" fill="#263238"/>
      <path id="Path_13261" data-name="Path 13261" d="M267.688,138.952c0-.39-.865-.664-1.655-.9-.211-.063-.443-.148-.443-.274s.169-.211.654-.337c2.488.127,2.762.38,2.762.717v5.2c0,.306.084.474.675.474a18.979,18.979,0,0,0,6.326-2.109,1.233,1.233,0,0,1,.422-.127h.063a1.482,1.482,0,0,1-.358.39,22.679,22.679,0,0,1-7.381,3.037c-.6,0-.875-1.054-.959-1.508Zm8.751,8.024a.38.38,0,0,0,.337-.348.538.538,0,0,0-.211-.4c-.148-.127-.211-.232-.211-.3s.063-.105.19-.105c.38,0,1.276.337,1.276.633s-.148.327-.19.6c2.33.38,3.4,1.845,3.4,3.332,0,1.761-1.508,3.543-4.123,3.543s-4.217-1.782-4.217-3.543c0-1.529,1.128-3.058,3.532-3.353Zm-2.573,3.374a2.794,2.794,0,0,0,3.079,2.741,2.731,2.731,0,1,0,0-5.462,2.784,2.784,0,0,0-3.079,2.72Zm5.968-13.549c0-.211-.875-.738-1.866-1.17-.211-.063-.58-.19-.58-.316s.517-.274.643-.274c.443,0,3.247.422,3.247,1.054,0,.19-.127.38-.148.654v5.8c0,3.522-.274,4.144-.685,4.734-.084.127-.169.169-.232.169a1.907,1.907,0,0,1-.337-1.3v-2.478c-.959,0-1.908.105-2.594.148-.38.084-.422.253-.7.253a4.218,4.218,0,0,1-1.845-.833c0-.084.127-.105.358-.105h1.423c.991,0,2.014-.063,3.353-.148v-3.627c-1.255,0-2.183.084-2.678.127s-.527.274-.8.274-1.7-.527-1.7-.865c0-.063.084-.095.274-.095h1.676c1.054,0,1.866,0,3.226-.095Z" transform="translate(-74.508 -134.935)" fill="#263238"/>
      <path id="Path_13262" data-name="Path 13262" d="M293.014,140.7c1.719-.105.78-.559,3.037-.643.97,0,1.36.337,1.36.6,0,0,0,.464-.833.464-1.3.084-5.219.19-7.75.3-.675.148-.843.4-1.234.4s-2.225-.78-2.225-1.054c0-.063.084-.105.3-.105a1.822,1.822,0,0,1,.316,0,26.615,26.615,0,0,0,3.163.169C289.725,140.8,292.413,140.7,293.014,140.7Zm-2.3,2.6c.285-.063.664-.127.664-.485a.4.4,0,0,0-.169-.316.632.632,0,0,1-.148-.3c0-.084.084-.127.232-.127.506,0,1.139.4,1.139.675s-.211.358-.3.548c2.446.348,3.6,1.814,3.6,3.311,0,1.666-1.487,3.321-4.217,3.321s-4.217-1.75-4.217-3.363S288.407,143.649,290.716,143.3Zm-.063-4.671a4.218,4.218,0,0,1-2.161-1.36c0-.063.063-.105.211-.105a2.034,2.034,0,0,1,.422.063,21.973,21.973,0,0,0,4.333.285c.506,0,.812.253.812.506s-.39.569-1.339.59Zm-2.056,7.855a2.984,2.984,0,1,0,2.952-2.562,2.636,2.636,0,0,0-2.952,2.562Zm10.164-9.763c0-.358-1.16-.865-2.035-1.255-.232-.084-.38-.19-.38-.274s.253-.232.875-.253a17.818,17.818,0,0,1,2.415.569c.443.169.548.306.548.517s-.063.358-.063.675v7.623h1.054c.981-.148.654-.548,1.993-.548.39,0,1.276,0,1.276.654,0,.3-.253.548-.717.548H300.11v6.073a8,8,0,0,1-.527,3.1c-.169.253-.337.38-.485.38s-.306-.274-.306-.97Z" transform="translate(-73.433 -134.94)" fill="#263238"/>
      <path id="Path_13263" data-name="Path 13263" d="M311.046,140.155c0-.232-.5-.612-1.234-1.118-.4-.2-.506-.453.316-.453.358,0,2.488.749,2.488,1.3A32.04,32.04,0,0,1,310.9,143.4a15.652,15.652,0,0,0,1.139,1.381c.728.875,1.423.6,1.75,2.678v.169c0,.4-.211.664-.464.664a.685.685,0,0,1-.548-.411c-.485-.822-1.191-2.393-2.256-4.049-2.024,2.762-4.481,4.871-5.124,4.871,0,0-.084,0-.084-.063s.148-.253.422-.474A19.306,19.306,0,0,0,311,140.355Zm5.862-1.719c0-.506-.812-.928-1.624-1.318-.253-.105-.506-.253-.506-.38s.169-.19.685-.211a11.882,11.882,0,0,1,2.183.506c.464.169.569.369.569.58s-.063.337-.063.527v11.313c0,2.741-.569,3.479-.843,3.479s-.358-.506-.358-1.529v-7.76l-1.94.084c-.612.105-.717.316-.97.316s-1.571-.538-1.571-.812c0-.063.126-.127.358-.127h1.054c1.054,0,2.109-.063,3.089-.105Zm3.374-1.508c0-.358-.791-.886-1.634-1.339-.306-.127-.474-.253-.474-.358s.211-.19.685-.211a19.849,19.849,0,0,1,2.33.654c.359.158.432.306.432.474s-.074.316-.074.548v14.761c-.084,1.951-.464,2.984-.865,3.1-.19,0-.38-.2-.4-1.276Z" transform="translate(-72.349 -134.936)" fill="#263238"/>
      <path id="Path_13264" data-name="Path 13264" d="M342.78,151.478c-1.413-.084-3.163-.127-4.945-.127-3.5,0-7.233.148-9.215.337-.464.169-.59.38-.949.38a6.7,6.7,0,0,1-2.741-1.234c0-.063.084-.105.274-.105a1.723,1.723,0,0,1,.3,0,36.7,36.7,0,0,0,5.546.232c-.063-.422-.105-1.508-.211-2.2-.084-.3-.38-.422-1.4-.791-.211,0-.358-.127-.358-.211s.19-.19.654-.253c2.109.148,2.446.358,2.446.675v.369c0,.148,0,1.972.063,2.393.717,0,3.015,0,4.439-.127.063-.485.148-1.423.19-2.72,0-.464-.474-.654-.981-.907-.169,0-.3-.127-.3-.19s.169-.169.633-.232c1.845.316,2.235.506,2.235.759a2.878,2.878,0,0,1-.232.612c-.095.622-.306,1.771-.5,2.615a12.464,12.464,0,0,0,1.951-.148c.706,0,.58-.4,1.613-.4.559,0,2.3,0,2.3.843,0,.232-.19.411-.612.411Zm-9.426-13.907a.59.59,0,0,0,.58-.517.569.569,0,0,0-.148-.358q-.285-.253-.285-.38c0-.084.074-.127.264-.127.717,0,1.318.422,1.318.675s-.306.411-.327.706c2.973.443,4.355,2.33,4.355,4.217,0,2.109-1.782,4.217-4.924,4.217s-4.9-2.161-4.9-4.291c0-1.877,1.276-3.7,4.07-4.144Zm-2.878,4.133a3.722,3.722,0,1,0,3.711-3.311,3.384,3.384,0,0,0-3.711,3.311Z" transform="translate(-71.283 -134.872)" fill="#263238"/>
      <path id="Path_13265" data-name="Path 13265" d="M403.457,304.321a6.727,6.727,0,0,1-3.448-.8,5.029,5.029,0,0,1-2.109-2.362,9.985,9.985,0,0,1-.791-3.817l3.585-.706a11.383,11.383,0,0,0,.327,2.351,3.332,3.332,0,0,0,.822,1.56,1.94,1.94,0,0,0,1.455.559,1.613,1.613,0,0,0,1.434-.611,2.6,2.6,0,0,0,.422-1.539,4.144,4.144,0,0,0-.675-2.457,10.742,10.742,0,0,0-1.8-1.919l-2.889-2.541a8.561,8.561,0,0,1-1.929-2.341,6.326,6.326,0,0,1-.727-3.163,5.43,5.43,0,0,1,1.582-4.217,6.1,6.1,0,0,1,4.323-1.466,6.484,6.484,0,0,1,2.689.5,4.218,4.218,0,0,1,1.708,1.371,6.22,6.22,0,0,1,.949,1.993,11.882,11.882,0,0,1,.39,2.362l-3.553.622a12.338,12.338,0,0,0-.242-1.93,2.72,2.72,0,0,0-.654-1.328,1.813,1.813,0,0,0-1.371-.474,1.729,1.729,0,0,0-1.423.6,2.362,2.362,0,0,0-.5,1.518,3.448,3.448,0,0,0,.485,1.908,7.466,7.466,0,0,0,1.381,1.539l2.857,2.509a12.019,12.019,0,0,1,2.415,2.784,7.148,7.148,0,0,1,1,3.859,5.842,5.842,0,0,1-.717,2.91,5.272,5.272,0,0,1-2.014,1.993A5.978,5.978,0,0,1,403.457,304.321Z" transform="translate(-67.359 -127.009)" fill="#263238"/>
      <path id="Path_13266" data-name="Path 13266" d="M413.842,303.929a3.068,3.068,0,0,1-1.887-.58,3.827,3.827,0,0,1-1.223-1.466,4.218,4.218,0,0,1-.422-1.856,5.092,5.092,0,0,1,2.109-4.323,10.325,10.325,0,0,1,2.109-1.223c.791-.358,1.592-.664,2.393-.949V292.12a6.332,6.332,0,0,0-.095-1.191,1.4,1.4,0,0,0-.369-.738,1.17,1.17,0,0,0-.833-.253,1.3,1.3,0,0,0-.78.232,1.244,1.244,0,0,0-.422.633,3.581,3.581,0,0,0-.148.949l-.063.991-3.638-.148a6.02,6.02,0,0,1,1.392-4.165,5.366,5.366,0,0,1,4-1.339,4.376,4.376,0,0,1,3.574,1.35,5.6,5.6,0,0,1,1.118,3.68v9.173a11.787,11.787,0,0,0,.116,1.328c.042.4.084.738.127,1.054h-3.448a8.325,8.325,0,0,0-.211-1.286c-.084-.474-.148-.833-.179-1.054a4.217,4.217,0,0,1-1.054,1.8,2.91,2.91,0,0,1-2.161.791Zm1.413-2.857a1.487,1.487,0,0,0,.7-.179,3.014,3.014,0,0,0,.58-.443,2.013,2.013,0,0,0,.359-.453v-4.565c-.411.243-.8.485-1.17.738a5.154,5.154,0,0,0-.959.8,3.35,3.35,0,0,0-.622.949,3.163,3.163,0,0,0-.211,1.181,2.467,2.467,0,0,0,.358,1.434A1.054,1.054,0,0,0,415.255,301.072Z" transform="translate(-66.642 -126.67)" fill="#263238"/>
      <path id="Path_13267" data-name="Path 13267" d="M423,304V281.11h3.817V304Z" transform="translate(-65.952 -126.994)" fill="#263238"/>
      <path id="Path_13268" data-name="Path 13268" d="M432.143,303.915a2.467,2.467,0,0,1-1.581-.5,2.73,2.73,0,0,1-.907-1.328,5.41,5.41,0,0,1-.285-1.761v-13H433.2v12.3a2.288,2.288,0,0,0,.232,1.139.959.959,0,0,0,.9.411,1.845,1.845,0,0,0,.854-.221,8.366,8.366,0,0,0,.865-.538v-13.1h3.848v16.332h-3.848V302.1a7.709,7.709,0,0,1-1.8,1.307A4.618,4.618,0,0,1,432.143,303.915Z" transform="translate(-65.606 -126.656)" fill="#263238"/>
      <path id="Path_13269" data-name="Path 13269" d="M446.975,304.1a4.935,4.935,0,0,1-2.446-.517,2.72,2.72,0,0,1-1.255-1.466,6.231,6.231,0,0,1-.369-2.288v-9.721H441.26v-2.541H442.9V282.68h3.87v4.892h2.488v2.541h-2.488V299.5a1.613,1.613,0,0,0,.369,1.2,1.539,1.539,0,0,0,1.054.348,5.8,5.8,0,0,0,.611,0l.612-.105v2.942l-1.118.127A6.024,6.024,0,0,1,446.975,304.1Z" transform="translate(-64.959 -126.909)" fill="#263238"/>
      <path id="Path_13270" data-name="Path 13270" d="M84.36,308.688V281h1.877v12.473h9.711V281h1.845v27.687H95.947v-13.77H86.237v13.77Z" transform="translate(-84.36 -127)" fill="#263238"/>
      <path id="Path_13271" data-name="Path 13271" d="M106.05,308.6a5.441,5.441,0,0,1-2.7-.633,4.07,4.07,0,0,1-1.729-2.288,14.37,14.37,0,0,1-.6-4.7v-5.272a13.707,13.707,0,0,1,.622-4.713A3.827,3.827,0,0,1,103.4,288.8a5.8,5.8,0,0,1,2.678-.58,4.766,4.766,0,0,1,2.91.791,4.3,4.3,0,0,1,1.5,2.509,18.884,18.884,0,0,1,.453,4.565v1.877h-8.108v3.163a16.037,16.037,0,0,0,.327,3.69,3.3,3.3,0,0,0,1.054,1.887,2.994,2.994,0,0,0,1.845.538,4.533,4.533,0,0,0,1.434-.232,2.235,2.235,0,0,0,1.2-1.128,6.147,6.147,0,0,0,.474-2.773v-1.466h1.782v1.3a7.275,7.275,0,0,1-1.054,4.1C109.2,308.074,107.916,308.6,106.05,308.6Zm-3.216-11.724h6.326v-1.508a21.245,21.245,0,0,0-.19-3.058,3.617,3.617,0,0,0-.833-1.982,2.689,2.689,0,0,0-2.109-.7,3.364,3.364,0,0,0-1.824.453,2.773,2.773,0,0,0-1.054,1.708,14.245,14.245,0,0,0-.348,3.606Z" transform="translate(-83.455 -126.608)" fill="#263238"/>
      <path id="Path_13272" data-name="Path 13272" d="M112.193,313.879h-.527a2.494,2.494,0,0,1-.5,0v-1.466a1.415,1.415,0,0,0,.411,0h.464a2.7,2.7,0,0,0,1.729-.443,1.835,1.835,0,0,0,.643-1.118,7.38,7.38,0,0,0,.127-1.381V288.817h1.719v20.718a3.652,3.652,0,0,1-4.07,4.344Zm2.3-27.656V283.06h1.771v3.163Z" transform="translate(-82.903 -126.888)" fill="#263238"/>
    </g>
  </g>
</svg>
