<svg xmlns="http://www.w3.org/2000/svg" xmlns:xlink="http://www.w3.org/1999/xlink" width="749.968" height="738.037" viewBox="0 0 749.968 738.037">
  <defs>
    <clipPath id="clip-path">
      <rect width="749.968" height="738.037" fill="none"/>
    </clipPath>
  </defs>
  <g id="Enter_OTP" data-name="Enter OTP" clip-path="url(#clip-path)">
    <g id="Enter_OTP-2" data-name="Enter OTP" transform="translate(-12.783 -16.36)">
      <g id="freepik--background-simple--inject-2" transform="translate(14.767 25.585)">
        <path id="Path_12869" data-name="Path 12869" d="M744.579,425.405c-21.343,64.692-67.334,135.618-135.033,158.7-102.267,34.9-111.444,118.769-297.009,118.2a374.808,374.808,0,0,1-80.592-8.654,312.153,312.153,0,0,1-38.16-11.075C83.828,642.913,23.629,548.588,15.007,447.792c-11.312-132.581,78.9-199.456,137.643-238.9S278.475,23.076,460.955,22.205a361.873,361.873,0,0,1,82.823,8.844C605.734,45.288,669.493,79.573,707.8,131.83c2.864,3.924,5.616,7.911,8.274,12.056C767.789,224.3,773.69,337.187,744.579,425.405Z" transform="translate(-14.037 -22.191)" fill="#f24405"/>
        <path id="Path_12870" data-name="Path 12870" d="M744.579,425.405c-21.343,64.692-67.334,135.618-135.033,158.7-102.267,34.9-111.444,118.769-297.009,118.2a374.808,374.808,0,0,1-80.592-8.654,312.153,312.153,0,0,1-38.16-11.075C83.828,642.913,23.629,548.588,15.007,447.792c-11.312-132.581,78.9-199.456,137.643-238.9S278.475,23.076,460.955,22.205a361.873,361.873,0,0,1,82.823,8.844C605.734,45.288,669.493,79.573,707.8,131.83c2.864,3.924,5.616,7.911,8.274,12.056C767.789,224.3,773.69,337.187,744.579,425.405Z" transform="translate(-14.037 -22.191)" fill="#fff" opacity="0.7"/>
      </g>
      <g id="freepik--Window--inject-2" transform="translate(24.992 16.36)">
        <path id="Path_12871" data-name="Path 12871" d="M227.9,43.8H21.483a.791.791,0,0,1-.728-.459.807.807,0,0,1,.127-.854L32.416,29.116a.807.807,0,0,1,1.123-.079.775.775,0,0,1,.079,1.107l-10.41,12.1h203.9V29.591a.791.791,0,1,1,1.582,0v13.4a.791.791,0,0,1-.791.807Z" transform="translate(-20.392 -9.119)" fill="#263238"/>
        <path id="Path_12872" data-name="Path 12872" d="M227.9,56.04H21.484a.791.791,0,0,1-.728-.459.775.775,0,0,1,.127-.839l11.534-13.4a.791.791,0,1,1,1.2,1.028L23.208,54.458h203.9V41.8a.791.791,0,1,1,1.582,0V55.233a.791.791,0,0,1-.791.807Z" transform="translate(-20.392 -2.011)" fill="#263238"/>
        <path id="Path_12873" data-name="Path 12873" d="M227.9,68.28H21.483a.789.789,0,0,1-.6-1.313l11.534-13.4a.807.807,0,0,1,1.123-.079.775.775,0,0,1,.079,1.107L23.208,66.7h203.9V54.041a.791.791,0,1,1,1.582,0v13.4a.791.791,0,0,1-.791.839Z" transform="translate(-20.392 5.114)" fill="#263238"/>
        <path id="Path_12874" data-name="Path 12874" d="M227.9,80.53H21.483a.791.791,0,0,1-.728-.459.807.807,0,0,1,.127-.854L32.416,65.832a.791.791,0,0,1,1.2,1.028L23.208,78.948h203.9V66.291a.791.791,0,1,1,1.582,0v13.4a.791.791,0,0,1-.791.839Z" transform="translate(-20.392 12.245)" fill="#263238"/>
        <path id="Path_12875" data-name="Path 12875" d="M227.9,92.721H21.484a.807.807,0,0,1-.728-.475.775.775,0,0,1,.127-.839l11.534-13.4a.807.807,0,0,1,1.123,0,.775.775,0,0,1,.079,1.107l-10.41,12.1h203.9V78.561a.791.791,0,1,1,1.582,0v13.4A.791.791,0,0,1,227.9,92.721Z" transform="translate(-20.392 19.387)" fill="#263238"/>
        <path id="Path_12876" data-name="Path 12876" d="M227.9,104.98H21.483a.791.791,0,0,1-.728-.459.807.807,0,0,1,.127-.854l11.534-13.4a.8.8,0,0,1,1.2,1.044L23.208,103.4h203.9V90.741a.791.791,0,0,1,1.582,0v13.527A.791.791,0,0,1,227.9,104.98Z" transform="translate(-20.392 26.477)" fill="#263238"/>
        <path id="Path_12877" data-name="Path 12877" d="M227.9,117.21H21.484a.791.791,0,0,1-.728-.459.775.775,0,0,1,.127-.839l11.534-13.4a.823.823,0,0,1,1.123-.095.807.807,0,0,1,.079,1.123l-10.41,12.087h203.9V102.971a.791.791,0,1,1,1.582,0v13.4a.791.791,0,0,1-.791.839Z" transform="translate(-20.392 33.596)" fill="#263238"/>
        <path id="Path_12878" data-name="Path 12878" d="M227.9,129.45H21.483a.789.789,0,0,1-.6-1.313l11.534-13.4a.807.807,0,0,1,1.123-.079.775.775,0,0,1,.079,1.107l-10.41,12.1h203.9V115.211a.791.791,0,1,1,1.582,0v13.4a.791.791,0,0,1-.791.839Z" transform="translate(-20.392 40.721)" fill="#263238"/>
        <path id="Path_12879" data-name="Path 12879" d="M227.9,141.68H21.484a.791.791,0,0,1-.728-.459.775.775,0,0,1,.127-.839l11.534-13.4a.791.791,0,0,1,1.2,1.028L23.208,140.1h203.9V127.441a.791.791,0,1,1,1.582,0v13.4a.791.791,0,0,1-.791.839Z" transform="translate(-20.392 47.841)" fill="#263238"/>
        <path id="Path_12880" data-name="Path 12880" d="M227.9,153.92H21.484a.807.807,0,0,1-.728-.475.775.775,0,0,1,.127-.839l11.534-13.4a.807.807,0,0,1,1.123-.079.775.775,0,0,1,.079,1.107l-10.41,12.1h203.9V139.681a.791.791,0,1,1,1.582,0v13.4a.791.791,0,0,1-.791.839Z" transform="translate(-20.392 54.966)" fill="#263238"/>
        <path id="Path_12881" data-name="Path 12881" d="M227.9,166.15H21.483a.791.791,0,0,1-.728-.459.807.807,0,0,1,.127-.854l11.534-13.4a.8.8,0,0,1,1.2,1.044l-10.41,12.087h203.9V151.911a.791.791,0,0,1,1.582,0v13.4a.791.791,0,0,1-.791.839Z" transform="translate(-20.392 62.085)" fill="#263238"/>
        <path id="Path_12882" data-name="Path 12882" d="M227.9,178.38H21.484a.791.791,0,0,1-.728-.459.775.775,0,0,1,.127-.839l11.534-13.4a.807.807,0,0,1,1.123-.079.775.775,0,0,1,.079,1.107L23.208,176.8h203.9V164.141a.791.791,0,0,1,1.582,0v13.4a.791.791,0,0,1-.791.839Z" transform="translate(-20.392 69.204)" fill="#263238"/>
        <path id="Path_12883" data-name="Path 12883" d="M227.9,190.591H21.483a.789.789,0,0,1-.6-1.313l11.534-13.4a.807.807,0,0,1,1.123,0,.775.775,0,0,1,.079,1.108l-10.41,12.1h203.9V176.431a.791.791,0,0,1,1.582,0v13.4a.791.791,0,0,1-.791.759Z" transform="translate(-20.392 76.358)" fill="#263238"/>
        <path id="Path_12884" data-name="Path 12884" d="M227.9,202.867H21.484a.791.791,0,0,1-.728-.459.775.775,0,0,1,.127-.839l11.534-13.448a.791.791,0,1,1,1.2,1.028l-10.41,12.087h203.9V188.581a.791.791,0,1,1,1.582,0v13.4a.791.791,0,0,1-.791.886Z" transform="translate(-20.392 83.431)" fill="#263238"/>
        <path id="Path_12885" data-name="Path 12885" d="M227.9,215.061H21.483a.789.789,0,0,1-.6-1.313l11.534-13.4a.807.807,0,0,1,1.123,0,.775.775,0,0,1,.079,1.107l-10.41,12.1h203.9V200.9a.791.791,0,1,1,1.582,0v13.4A.791.791,0,0,1,227.9,215.061Z" transform="translate(-20.392 90.602)" fill="#263238"/>
        <path id="Path_12886" data-name="Path 12886" d="M227.9,227.32H21.483a.791.791,0,0,1-.728-.459.807.807,0,0,1,.127-.854l11.534-13.4a.8.8,0,0,1,1.2,1.044l-10.41,12.087h203.9V213.081a.791.791,0,1,1,1.582,0v13.4a.791.791,0,0,1-.791.839Z" transform="translate(-20.392 97.692)" fill="#263238"/>
        <path id="Path_12887" data-name="Path 12887" d="M227.9,239.53H21.486a.775.775,0,0,1-.6-1.3l11.534-13.4a.807.807,0,0,1,1.123,0,.775.775,0,0,1,.079,1.107L23.21,237.948h203.9V225.291a.791.791,0,1,1,1.582,0v13.385a.791.791,0,0,1-.791.854Z" transform="translate(-20.394 104.8)" fill="#263238"/>
        <path id="Path_12888" data-name="Path 12888" d="M237.85,37.829H21.291a.791.791,0,0,1-.791-.791V17.151a.791.791,0,0,1,.791-.791H237.85a.791.791,0,0,1,.791.791V37.038A.791.791,0,0,1,237.85,37.829ZM22.066,36.247H237.059v-18.3H22.066Z" transform="translate(-20.5 -16.36)" fill="#263238"/>
        <path id="Path_12889" data-name="Path 12889" d="M155.081,227.754a.791.791,0,0,1-.791-.791V30.291a.791.791,0,0,1,1.582,0V226.947a.791.791,0,0,1-.791.807Z" transform="translate(57.38 -8.711)" fill="#263238"/>
        <path id="Path_12890" data-name="Path 12890" d="M160.077,169.681h-7.056a.791.791,0,0,1-.791-.791V155.031a.791.791,0,0,1,.791-.791h7.056a.791.791,0,0,1,.791.791V168.89A.791.791,0,0,1,160.077,169.681Zm-6.328-1.582h5.474V155.822h-5.474Z" transform="translate(56.181 63.901)" fill="#263238"/>
      </g>
      <g id="freepik--Plant--inject-2" transform="translate(12.784 334.021)">
        <path id="Path_12891" data-name="Path 12891" d="M76.941,278.959h0a.124.124,0,1,0-.19-.127,198.078,198.078,0,0,0-10.458,32.781A307.558,307.558,0,0,0,60.439,345.6l-.807,8.591c-.127,1.44-.285,2.864-.4,4.3l-.221,4.3c-.127,2.879-.3,5.743-.4,8.622l.079,8.622.095,4.319c.079,1.44.174,2.879.269,4.3.221,2.879.4,5.743.664,8.607.538,5.711,1.408,11.407,2.294,17.071a.127.127,0,0,0,.142.127.158.158,0,0,0,.158-.142h0c0-2.879-.142-5.743-.206-8.591s-.332-5.711-.285-8.575,0-5.711-.095-8.559l-.079-4.287V371.48l.237-8.543.079-4.272c0-1.424.158-2.848.237-4.272l.522-8.543a306.54,306.54,0,0,1,4.841-33.889A198.475,198.475,0,0,1,76.941,278.959Z" transform="translate(13.898 -181.285)" fill="#263238"/>
        <path id="Path_12892" data-name="Path 12892" d="M75.316,307.224a.174.174,0,0,0-.095-.19.142.142,0,0,0-.19.095,198.047,198.047,0,0,0-9.682,44.03c-.759,7.483-1.582,14.983-1.709,22.5a188.668,188.668,0,0,0,.807,22.561.151.151,0,0,0,.3,0c.87-7.483,1.392-14.967,1.914-22.434s.6-14.951,1.092-22.419a198.126,198.126,0,0,1,2.626-22.229,203.784,203.784,0,0,1,4.936-21.912Z" transform="translate(16.788 -164.823)" fill="#263238"/>
        <path id="Path_12893" data-name="Path 12893" d="M98.061,317.107a.158.158,0,0,0-.221,0,75.483,75.483,0,0,0-16.628,14.4,65.493,65.493,0,0,0-6.487,9.018L73.4,343.037l-1.044,2.61a27.519,27.519,0,0,0-.918,2.642c-.269.886-.554,1.788-.807,2.674a107.156,107.156,0,0,0-3.417,21.865,124.892,124.892,0,0,0,.823,22.023.158.158,0,0,0,.127.142.174.174,0,0,0,.174-.142l1.883-21.8a194.316,194.316,0,0,1,2.769-21.5c.19-.87.443-1.74.664-2.595a23.087,23.087,0,0,1,.759-2.579l.949-2.516,1.139-2.373a62.54,62.54,0,0,1,5.949-9.018A74.361,74.361,0,0,1,98,317.312h0a.174.174,0,0,0,.063-.206Z" transform="translate(18.804 -158.98)" fill="#263238"/>
        <path id="Path_12894" data-name="Path 12894" d="M84.192,334.791a24.222,24.222,0,0,0-7.531,9.065,52.683,52.683,0,0,0-4.224,11.075,29.557,29.557,0,0,0-.744,2.879l-.68,2.9a49.047,49.047,0,0,0-.728,5.885c0,1.978-.095,3.955,0,5.917a49.04,49.04,0,0,0,.775,5.885.174.174,0,0,0,.127.127.142.142,0,0,0,.174-.127,52.991,52.991,0,0,0,1.044-5.791c.3-1.914.6-3.829.839-5.727s.522-3.8.68-5.711a40.49,40.49,0,0,1,.823-5.7,51.024,51.024,0,0,1,3.164-11,24.222,24.222,0,0,1,6.328-9.493h0a.127.127,0,0,0,0-.19A.163.163,0,0,0,84.192,334.791Z" transform="translate(20.664 -148.661)" fill="#263238"/>
        <path id="Path_12895" data-name="Path 12895" d="M62.579,380.262c-.823-9.667-2.421-19.254-3.924-28.826s-3.164-19.128-4.936-28.668-3.7-18.985-5.759-28.478a.158.158,0,0,0-.3,0c1.661,9.493,3.164,19.112,4.572,28.684s2.816,19.159,4.034,28.747,2.1,19.238,3.307,28.81l3.544,28.858a.142.142,0,0,0,.142.142.174.174,0,0,0,.158-.142c.111-2.436.111-4.857.174-7.293s-.111-4.857-.142-7.278C63.354,389.944,62.943,385.119,62.579,380.262Z" transform="translate(7.518 -172.299)" fill="#263238"/>
        <path id="Path_12896" data-name="Path 12896" d="M62.47,372.218c-.522-3.845-1.218-7.657-1.962-11.454l-1.345-5.648c-.459-1.883-.87-3.765-1.424-5.632a159.158,159.158,0,0,0-7.4-22.007l-1.187-2.658-1.3-2.61c-.807-1.756-1.8-3.417-2.753-5.11a42.419,42.419,0,0,0-6.977-9.271.145.145,0,1,0-.206.206h0a42.006,42.006,0,0,1,6.328,9.493c.854,1.709,1.74,3.4,2.452,5.189l1.139,2.626,1.013,2.69a158.211,158.211,0,0,1,6.439,22.023c.886,3.718,1.471,7.515,2.2,11.265l.9,5.68c.332,1.883.728,3.75,1,5.648.6,3.781,1.3,7.562,1.962,11.344s1.282,7.594,2.073,11.375a.158.158,0,0,0,.158.127.142.142,0,0,0,.142-.142q0-5.806-.269-11.6C63.388,379.907,62.866,376.062,62.47,372.218Z" transform="translate(1.82 -164.382)" fill="#263238"/>
        <path id="Path_12897" data-name="Path 12897" d="M53.543,359.526c-1.8-5.079-3.876-10.046-6.139-14.919a132.906,132.906,0,0,0-7.7-14.144.174.174,0,0,0-.206,0,.158.158,0,0,0,0,.206,133.991,133.991,0,0,1,6.582,14.587c1.962,4.936,3.734,9.967,5.205,15.062s2.61,10.3,3.955,15.426S57.815,386.026,59.4,391.2a.154.154,0,0,0,.3-.032,77.523,77.523,0,0,0-1.5-16.106,101.806,101.806,0,0,0-4.651-15.536Z" transform="translate(2.742 -151.199)" fill="#263238"/>
        <path id="Path_12898" data-name="Path 12898" d="M55.2,367.474a34.663,34.663,0,0,0-4.272-8.939,36.83,36.83,0,0,0-6.2-7.689,28.892,28.892,0,0,0-4-2.99,16.359,16.359,0,0,0-4.477-2.025.158.158,0,0,0-.174.095.142.142,0,0,0,0,.19h0a22.007,22.007,0,0,1,7.42,5.759,34.807,34.807,0,0,1,5.173,7.831c1.471,2.784,2.231,5.854,3.512,8.717.554,1.471,1.123,2.943,1.772,4.414A37.755,37.755,0,0,0,55.9,377.3h0a.158.158,0,0,0,.127.079.174.174,0,0,0,.174-.142,36.924,36.924,0,0,0-.19-4.952A26.8,26.8,0,0,0,55.2,367.474Z" transform="translate(0.752 -142.235)" fill="#263238"/>
        <path id="Path_12899" data-name="Path 12899" d="M59.39,340.73A27.513,27.513,0,0,1,39.883,320c-3.67-17.087,8.132-9.762-2.436-36.61s-8.132-32.924-4.477-40.66,5.7-5.284,8.939,4.889,15.077,26.026,19.523,55.706S59.39,340.73,59.39,340.73Z" transform="translate(-2.852 -204.896)" fill="#f24405"/>
        <path id="Path_12900" data-name="Path 12900" d="M72.365,324.12s-10.584-3.671-10.98-23.589,7.721-15.821,8.939-40.66,2.848-42.29,7.325-42.717,16.264,12.2,20.33,39.853S92.7,302.888,84.563,311.084,72.365,324.12,72.365,324.12Z" transform="translate(15.499 -217.143)" fill="#f24405"/>
        <path id="Path_12901" data-name="Path 12901" d="M61.1,340.517s-2.452-14.634-7.325-21.548S38.318,305.948,31.4,292.532s-14.634-19.919-14.239-.807S26.1,320.583,36.689,327.1,61.1,340.517,61.1,340.517Z" transform="translate(-10.242 -180.682)" fill="#f24405"/>
        <path id="Path_12902" data-name="Path 12902" d="M59.165,352.154s-9.762-18.7-23.985-32.528S9.55,298.884,13.616,305.8s8.955,6.518,15.821,18.716,4.873,21.137,14.634,28.051S59.165,352.154,59.165,352.154Z" transform="translate(-12.784 -167.116)" fill="#f24405"/>
        <path id="Path_12903" data-name="Path 12903" d="M56.047,357.338c-.411-1.218-.823-10.173-14.634-17.4s-26.9-4.477-25.219-.823,10.173,9.762,18.7,13.416S56.047,357.338,56.047,357.338Z" transform="translate(-10.884 -148.3)" fill="#f24405"/>
        <path id="Path_12904" data-name="Path 12904" d="M69.186,346.209s-6.012-7.721-2.848-23.985,10.568-12.2,18.716-20.741,6.5-9.762,14.634-18.7,15.441-13.828,18.7-10.173-1.582,15.046-6.5,21.548-12.657,9.762-16.264,17.894S93.582,333.2,84.232,339.295,69.186,346.209,69.186,346.209Z" transform="translate(17.855 -185.567)" fill="#f24405"/>
        <path id="Path_12905" data-name="Path 12905" d="M80.65,338.2s14.65-16.628,25.219-28.873,14.634-21.548,15.046-13.416,3.655,14.634-4.889,25.2S80.65,338.2,80.65,338.2Z" transform="translate(26.722 -173.077)" fill="#f24405"/>
        <path id="Path_12906" data-name="Path 12906" d="M75.77,351.841s-.411-6.5,22.767-21.548,32.939-17.894,30.5-11.787-12.657,12.2-23.589,23.178S75.77,351.841,75.77,351.841Z" transform="translate(23.881 -159.889)" fill="#f24405"/>
        <path id="Path_12907" data-name="Path 12907" d="M56.959,333.623a.807.807,0,0,1-.791-.648c0-.285-5.49-29.38-11.075-49.837s-9.319-33.224-9.35-33.335a.775.775,0,0,1,.538-.981.791.791,0,0,1,.981.538c0,.127,3.718,12.847,9.35,33.351s11.075,49.678,11.154,49.979a.791.791,0,0,1-.633.918Z" transform="translate(0.56 -198.722)" fill="#263238"/>
        <path id="Path_12908" data-name="Path 12908" d="M68.008,320.1h-.237a.791.791,0,0,1-.506-1c.095-.316,9.9-31.784,13.1-50.627,2.911-17.039.269-30.155-1.471-38.825-.206-.981-.4-1.914-.554-2.769a.805.805,0,1,1,1.582-.3c.174.854.348,1.772.554,2.753,1.756,8.8,4.43,22.15,1.487,39.41C78.8,287.729,68.894,319.261,68.8,319.577A.791.791,0,0,1,68.008,320.1Z" transform="translate(18.907 -212.031)" fill="#263238"/>
        <path id="Path_12909" data-name="Path 12909" d="M57.257,336.439a.791.791,0,0,1-.7-.4,153.94,153.94,0,0,0-14.9-21.232c-2.278-2.705-4.4-5.047-6.455-7.309-5.87-6.5-10.521-11.644-13.59-19.333a.775.775,0,0,1,.443-1.028.791.791,0,0,1,1.028.443c2.959,7.42,7.531,12.467,13.306,18.859,2.057,2.278,4.177,4.62,6.487,7.341a155.816,155.816,0,0,1,15.062,21.485.791.791,0,0,1-.3,1.076.839.839,0,0,1-.38.095Z" transform="translate(-7.68 -176.43)" fill="#263238"/>
        <path id="Path_12910" data-name="Path 12910" d="M68.09,344.037h-.127a.775.775,0,0,1-.649-.9c.127-.807,3.37-19.824,11.075-30.06,3.006-3.955,7.135-8.717,11.5-13.749,6.9-7.911,14.033-16.2,17.735-22.371a.791.791,0,1,1,1.345.807c-3.765,6.328-10.948,14.587-17.894,22.592-4.351,5.015-8.448,9.762-11.423,13.669-7.515,9.888-10.79,29.142-10.837,29.332a.775.775,0,0,1-.728.68Z" transform="translate(18.952 -182.604)" fill="#263238"/>
        <path id="Path_12911" data-name="Path 12911" d="M49.632,355.149a.887.887,0,0,1-.427-.127c-.127-.095-13.749-8.955-23.368-13.748a.807.807,0,0,1-.348-1.06.791.791,0,0,1,1.06-.364c9.682,4.857,23.384,13.749,23.526,13.843a.791.791,0,0,1,.221,1.092.759.759,0,0,1-.664.364Z" transform="translate(-5.434 -145.762)" fill="#263238"/>
        <path id="Path_12912" data-name="Path 12912" d="M126.569,415.925c-.918-24.665-28.336-41.135-28.336-41.135H56.213s-27.418,16.454-28.336,41.135S58.95,531.07,58.95,531.07H95.5S127.471,440.606,126.569,415.925Z" transform="translate(-4.009 -125.376)" fill="#263238"/>
        <path id="Path_12913" data-name="Path 12913" d="M95.787,532.164H59.241a.791.791,0,0,1-.744-.522c-1.313-3.7-32.022-90.892-31.12-115.494.918-24.807,28.478-41.609,28.715-41.768a.759.759,0,0,1,.411-.111H98.524a.759.759,0,0,1,.411.111c.269.158,27.782,16.96,28.7,41.768h0c.918,24.554-29.807,111.744-31.1,115.494a.791.791,0,0,1-.744.522ZM59.81,530.582H95.218c2.626-7.452,31.642-91.05,30.851-114.323-.854-22.909-25.314-38.872-27.766-40.36H56.725c-2.373,1.487-26.9,17.4-27.766,40.36C28.1,439.532,57.184,523.13,59.81,530.582Z" transform="translate(-4.3 -125.679)" fill="#263238"/>
        <path id="Path_12914" data-name="Path 12914" d="M95.488,359.46H41.87l6.186,24.269H89.3Z" transform="translate(4.148 -134.3)" fill="#263238"/>
        <path id="Path_12915" data-name="Path 12915" d="M89.594,384.812H48.348a.807.807,0,0,1-.775-.6l-6.186-24.254a.854.854,0,0,1,.142-.68.775.775,0,0,1,.633-.316H95.78a.807.807,0,0,1,.759,1L90.353,384.21A.775.775,0,0,1,89.594,384.812ZM48.965,383.23H88.977l5.775-22.624H43.175Z" transform="translate(3.855 -134.591)" fill="#263238"/>
      </g>
      <g id="freepik--Device--inject-2" transform="translate(19.976 45.344)">
        <path id="Path_12916" data-name="Path 12916" d="M753.294,474.652H18.121a.791.791,0,1,1,0-1.582H753.294a.791.791,0,1,1,0,1.582Z" transform="translate(-17.33 220.51)" fill="#263238"/>
        <path id="Path_12917" data-name="Path 12917" d="M410.5,68.408V612.052a27.022,27.022,0,0,1-27.022,27.022H148.562a27.022,27.022,0,0,1-27.022-27.022V68.392a27.007,27.007,0,0,1,27.007-27.007H249.374l.095.3c2.531,9.05,8.29,14.919,14.714,14.919h3.639c6.423,0,12.2-5.885,14.714-14.935l.111-.3H383.474A27.022,27.022,0,0,1,410.5,68.408Z" transform="translate(43.331 -30.786)" fill="#fff"/>
        <path id="Path_12918" data-name="Path 12918" d="M383.788,640.15H148.877A27.845,27.845,0,0,1,121,612.337V68.678a27.829,27.829,0,0,1,27.8-27.8H250.227l.253.886c2.421,8.717,7.911,14.35,13.954,14.35h3.7c6.059,0,11.534-5.632,13.954-14.35l.285-.886H383.788A27.845,27.845,0,0,1,411.6,68.693V612.337a27.845,27.845,0,0,1-27.813,27.813ZM148.861,42.462a26.247,26.247,0,0,0-26.279,26.215V612.337a26.263,26.263,0,0,0,26.231,26.231H383.788a26.263,26.263,0,0,0,26.231-26.231V68.693a26.263,26.263,0,0,0-26.231-26.231H283.577c-2.658,9.255-8.686,15.236-15.41,15.236H264.5c-6.724,0-12.752-5.98-15.41-15.236Z" transform="translate(43.017 -31.071)" fill="#263238"/>
        <rect id="Rectangle_19602" data-name="Rectangle 19602" width="99.119" height="30.883" rx="4.84" transform="translate(262.25 365.736)" fill="#263238"/>
        <path id="Path_12919" data-name="Path 12919" d="M274.85,297.815H191a8.464,8.464,0,0,1-8.448-8.448V273.8A8.448,8.448,0,0,1,191,265.35H274.85a8.464,8.464,0,0,1,8.464,8.448v15.568A8.464,8.464,0,0,1,274.85,297.815ZM191,266.932a6.866,6.866,0,0,0-6.866,6.866v15.568A6.882,6.882,0,0,0,191,296.233H274.85a6.882,6.882,0,0,0,6.882-6.866V273.8a6.866,6.866,0,0,0-6.882-6.866Z" transform="translate(78.846 99.595)" fill="#263238"/>
        <path id="Path_12920" data-name="Path 12920" d="M121.54,312.26v142.1a27.022,27.022,0,0,0,27.022,27.022H383.474A27.022,27.022,0,0,0,410.5,454.365V312.26Z" transform="translate(43.331 126.901)" fill="#dbdbdb"/>
        <path id="Path_12921" data-name="Path 12921" d="M383.788,482.469H148.877A27.845,27.845,0,0,1,121,454.656v-142.1a.791.791,0,0,1,.791-.791H410.81a.791.791,0,0,1,.791.791v142.1A27.845,27.845,0,0,1,383.788,482.469ZM122.582,313.342V454.656a26.263,26.263,0,0,0,26.231,26.231H383.788a26.263,26.263,0,0,0,26.231-26.231V313.342Z" transform="translate(43.017 126.61)" fill="#263238"/>
        <rect id="Rectangle_19603" data-name="Rectangle 19603" width="79.216" height="26.611" rx="2.27" transform="translate(177.243 456.311)" fill="#fff"/>
        <rect id="Rectangle_19604" data-name="Rectangle 19604" width="79.216" height="26.611" rx="2.27" transform="translate(265.905 456.311)" fill="#fff"/>
        <rect id="Rectangle_19605" data-name="Rectangle 19605" width="79.216" height="26.611" rx="2.27" transform="translate(354.55 456.311)" fill="#fff"/>
        <rect id="Rectangle_19606" data-name="Rectangle 19606" width="79.216" height="26.611" rx="2.27" transform="translate(177.243 490.326)" fill="#fff"/>
        <rect id="Rectangle_19607" data-name="Rectangle 19607" width="79.216" height="26.611" rx="2.27" transform="translate(265.905 490.326)" fill="#fff"/>
        <rect id="Rectangle_19608" data-name="Rectangle 19608" width="79.216" height="26.611" rx="2.27" transform="translate(354.55 490.326)" fill="#fff"/>
        <rect id="Rectangle_19609" data-name="Rectangle 19609" width="79.216" height="26.611" rx="2.27" transform="translate(177.243 524.326)" fill="#fff"/>
        <rect id="Rectangle_19610" data-name="Rectangle 19610" width="79.216" height="26.611" rx="2.27" transform="translate(265.905 524.326)" fill="#fff"/>
        <rect id="Rectangle_19611" data-name="Rectangle 19611" width="79.216" height="26.611" rx="2.27" transform="translate(354.55 524.326)" fill="#fff"/>
        <rect id="Rectangle_19612" data-name="Rectangle 19612" width="79.216" height="26.611" rx="2.27" transform="translate(265.905 558.341)" fill="#fff"/>
        <path id="Path_12922" data-name="Path 12922" d="M307.568,414.2H258.143L247.48,401.813l10.663-14.223h49.425Z" transform="translate(116.642 170.751)" fill="#fff"/>
        <path id="Path_12923" data-name="Path 12923" d="M234.826,119.4l-.712-.538-.712.538s-36.388,20.71-52.842,28.573c0,0,7.911,44.3,13.559,64.265s27.861,30.709,40,37.844c12.151-7.135,34.284-17.846,40-37.844s13.574-64.265,13.574-64.265C271.246,140.108,234.826,119.4,234.826,119.4Z" transform="translate(77.687 14.322)" fill="#f24405"/>
        <path id="Path_12924" data-name="Path 12924" d="M221.646,191.065,197.5,170.371a5.538,5.538,0,0,1,7.2-8.417l15.821,13.574,27.117-30.835A5.538,5.538,0,0,1,255.962,152Z" transform="translate(86.422 28.263)" fill="#fff"/>
        <rect id="Rectangle_19613" data-name="Rectangle 19613" width="32.845" height="32.845" transform="translate(184.679 289.13)" fill="#fff"/>
        <path id="Path_12925" data-name="Path 12925" d="M168,251.357H133.56V216.93H168Zm-32.86-1.582H166.42V218.512H135.142Z" transform="translate(50.328 71.409)" fill="#263238"/>
        <rect id="Rectangle_19614" data-name="Rectangle 19614" width="32.845" height="32.845" transform="translate(228.962 289.13)" fill="#fff"/>
        <path id="Path_12926" data-name="Path 12926" d="M195.977,251.357H161.55V216.93h34.427Zm-32.845-1.582h31.262V218.512H163.132Z" transform="translate(66.621 71.409)" fill="#263238"/>
        <rect id="Rectangle_19615" data-name="Rectangle 19615" width="32.845" height="32.845" transform="translate(273.246 289.13)" fill="#fff"/>
        <path id="Path_12927" data-name="Path 12927" d="M223.967,251.357H189.54V216.93h34.427Zm-32.845-1.582h31.262V218.512H191.122Z" transform="translate(82.915 71.409)" fill="#263238"/>
        <rect id="Rectangle_19616" data-name="Rectangle 19616" width="32.845" height="32.845" transform="translate(317.513 289.13)" fill="#fff"/>
        <path id="Path_12928" data-name="Path 12928" d="M251.962,251.357H217.52V216.93h34.442Zm-32.86-1.582H250.38V218.512H219.1Z" transform="translate(99.202 71.409)" fill="#263238"/>
        <rect id="Rectangle_19617" data-name="Rectangle 19617" width="32.845" height="32.845" transform="translate(361.796 289.13)" fill="#fff"/>
        <path id="Path_12929" data-name="Path 12929" d="M279.937,251.357H245.51V216.93h34.427Zm-32.845-1.582h31.262V218.512H247.092Z" transform="translate(115.495 71.409)" fill="#263238"/>
        <rect id="Rectangle_19618" data-name="Rectangle 19618" width="32.845" height="32.845" transform="translate(406.079 289.13)" fill="#fff"/>
        <path id="Path_12930" data-name="Path 12930" d="M307.927,251.357H273.5V216.93h34.427Zm-32.845-1.582h31.262V218.512H275.082Z" transform="translate(131.788 71.409)" fill="#263238"/>
        <path id="Path_12931" data-name="Path 12931" d="M410.5,93.69V68.377a27.022,27.022,0,0,0-27.022-26.991H282.662l-.095.3c-2.516,9.05-8.29,14.919-14.745,14.919h-3.639c-6.423,0-12.214-5.885-14.714-14.935l-.095-.3H148.547A27.007,27.007,0,0,0,121.54,68.377V93.69Z" transform="translate(43.331 -30.786)" fill="#dbdbdb"/>
        <path id="Path_12932" data-name="Path 12932" d="M410.771,94.772H121.831a.791.791,0,0,1-.791-.791V68.668a27.829,27.829,0,0,1,27.8-27.8H249.665a.775.775,0,0,1,.759.585l.095.3c2.421,8.717,7.911,14.35,13.954,14.35h3.639c6.06,0,11.534-5.632,13.954-14.35l.111-.332a.775.775,0,0,1,.744-.554H383.765a27.829,27.829,0,0,1,27.8,27.813V94A.791.791,0,0,1,410.771,94.772ZM122.559,93.19H409.98V68.7a26.247,26.247,0,0,0-26.216-26.231H283.554C280.9,51.723,274.868,57.7,268.144,57.7h-3.671c-6.724,0-12.752-5.98-15.41-15.236H148.838a26.247,26.247,0,0,0-26.279,26.215Z" transform="translate(43.04 -31.077)" fill="#263238"/>
        <path id="Path_12933" data-name="Path 12933" d="M433.835,201.855v-54.3h-4.92V78.039A42.843,42.843,0,0,0,386.072,35.18H155.907A42.859,42.859,0,0,0,113,78.039V630.432a42.843,42.843,0,0,0,42.859,42.843H386.072a42.828,42.828,0,0,0,42.843-42.843v-382.3h4.92V216.046h-4.92V201.807ZM415.467,599.818a42.859,42.859,0,0,1-42.859,42.859H169.37a42.859,42.859,0,0,1-42.859-42.859V87.833A42.859,42.859,0,0,1,169.37,44.989h84.975l.095.3c2.531,9.05,8.29,14.919,14.714,14.919h3.639c6.423,0,12.2-5.885,14.714-14.935l.111-.3h84.959a42.859,42.859,0,0,1,42.859,42.843Z" transform="translate(38.36 -34.389)" fill="#f24405"/>
        <path id="Path_12934" data-name="Path 12934" d="M386.345,674.357H156.18a43.7,43.7,0,0,1-43.65-43.635V78.33a43.714,43.714,0,0,1,43.65-43.65H386.345A43.7,43.7,0,0,1,429.98,78.33v68.727h4.129a.791.791,0,0,1,.791.791v54.3a.791.791,0,0,1-.791.791H429.98v12.657h4.129a.791.791,0,0,1,.791.791V248.47a.791.791,0,0,1-.791.791H429.98V630.723a43.682,43.682,0,0,1-43.634,43.634ZM156.18,36.262A42.116,42.116,0,0,0,114.112,78.33V630.723a42.1,42.1,0,0,0,42.068,42.052H386.345A42.1,42.1,0,0,0,428.4,630.723v-382.3a.791.791,0,0,1,.791-.791h4.129v-30.5h-4.129a.807.807,0,0,1-.791-.791V202.1a.791.791,0,0,1,.791-.791h4.129V148.639h-4.129a.807.807,0,0,1-.791-.791V78.33a42.1,42.1,0,0,0-42.052-42.068ZM372.929,643.791H169.644a43.714,43.714,0,0,1-43.714-43.682V88.124a43.7,43.7,0,0,1,43.65-43.635h84.975a.759.759,0,0,1,.759.585l.095.3c2.421,8.717,7.911,14.35,13.954,14.35h3.7c6.059,0,11.534-5.632,13.954-14.35l.111-.332a.775.775,0,0,1,.744-.554H372.85A43.7,43.7,0,0,1,416.5,88.124V600.109a43.714,43.714,0,0,1-43.619,43.65ZM169.644,46.071a42.1,42.1,0,0,0-42.132,42.052V600.109a42.116,42.116,0,0,0,42.068,42.068h203.3a42.116,42.116,0,0,0,42.068-42.068V88.124a42.1,42.1,0,0,0-42.068-42.052H288.508c-2.658,9.255-8.686,15.236-15.41,15.236h-3.671c-6.724,0-12.752-5.98-15.41-15.236Z" transform="translate(38.087 -34.68)" fill="#263238"/>
        <path id="Path_12935" data-name="Path 12935" d="M380.793,38.91h-223.3A41.34,41.34,0,0,0,116.17,80.187V623.878A41.325,41.325,0,0,0,157.495,665.2h223.3a41.325,41.325,0,0,0,41.325-41.325V80.187A41.34,41.34,0,0,0,380.793,38.91Zm32.829,560.208a41.34,41.34,0,0,1-41.34,41.325H166.006a41.34,41.34,0,0,1-41.34-41.325V84.127a41.309,41.309,0,0,1,41.325-41.309H252.5l.095.3c2.531,9.05,8.29,14.919,14.714,14.919h3.639c6.423,0,12.2-5.885,14.714-14.935l.111-.3H372.25a41.325,41.325,0,0,1,41.372,41.34Z" transform="translate(40.205 -32.218)" fill="#263238"/>
        <path id="Path_12936" data-name="Path 12936" d="M381.084,666.3h-223.3a42.163,42.163,0,0,1-42.116-42.116V80.5A42.163,42.163,0,0,1,157.786,38.38h223.3A42.163,42.163,0,0,1,423.2,80.5V624.187A42.163,42.163,0,0,1,381.084,666.3ZM157.786,40.025A40.581,40.581,0,0,0,117.252,80.5V624.187a40.581,40.581,0,0,0,40.534,40.534h223.3a40.581,40.581,0,0,0,40.534-40.534V80.5a40.581,40.581,0,0,0-40.534-40.534Zm214.787,601.58H166.3A42.179,42.179,0,0,1,124.1,599.427V84.435a42.163,42.163,0,0,1,42.116-42.1h86.51a.759.759,0,0,1,.759.585l.095.3c2.421,8.717,7.911,14.35,13.954,14.35h3.7c6.06,0,11.534-5.632,13.954-14.35l.111-.332a.775.775,0,0,1,.744-.554h86.494A42.179,42.179,0,0,1,414.7,84.451V599.427a42.179,42.179,0,0,1-42.132,42.179ZM166.282,43.917a40.565,40.565,0,0,0-40.6,40.518V599.427a40.6,40.6,0,0,0,40.549,40.534H372.572a40.6,40.6,0,0,0,40.549-40.534V84.451a40.581,40.581,0,0,0-40.549-40.534H286.68c-2.658,9.255-8.686,15.236-15.41,15.236H267.6c-6.724,0-12.752-5.98-15.41-15.236Z" transform="translate(39.914 -32.526)" fill="#263238"/>
        <path id="Path_12937" data-name="Path 12937" d="M217.8,44.143a4.019,4.019,0,1,0-1.171,2.852,4.019,4.019,0,0,0,1.171-2.852Z" transform="translate(94.685 -31.502)" fill="#fff"/>
        <path id="Path_12938" data-name="Path 12938" d="M140.015,53.683c0,4.066-4.572,5.537-4.6,8.638v.19h4.446v1.376H133.94V62.733c0-4.367,4.572-5.205,4.572-9.018,0-1.376-.475-2.12-1.582-2.12s-1.582.791-1.582,1.993v1.187H133.94V53.683c0-2.073.933-3.433,3.022-3.433S140.015,51.611,140.015,53.683Z" transform="translate(50.549 -25.617)" fill="#263238"/>
        <path id="Path_12939" data-name="Path 12939" d="M144.7,53.646v.348a2.705,2.705,0,0,1-1.582,2.785,2.69,2.69,0,0,1,1.582,2.8v1.044c0,2.057-.965,3.4-3.053,3.4s-3.022-1.345-3.022-3.4v-.933h1.408v1.028c0,1.2.49,1.946,1.582,1.946s1.582-.712,1.582-2.088V59.531c0-1.329-.57-1.962-1.709-1.993h-.807V56.177h.886a1.582,1.582,0,0,0,1.582-1.851v-.617c0-1.392-.49-2.1-1.582-2.1s-1.582.759-1.582,1.978v.68H138.58v-.617c0-2.057.965-3.386,3.022-3.386S144.7,51.589,144.7,53.646Z" transform="translate(53.25 -25.611)" fill="#263238"/>
        <path id="Path_12940" data-name="Path 12940" d="M144.826,53.05v1.867H143.37V53.05Zm0,7.357v1.867H143.37V60.407Z" transform="translate(56.039 -23.987)" fill="#263238"/>
        <path id="Path_12941" data-name="Path 12941" d="M146.8,55.846a2.152,2.152,0,0,1,1.993-1.123c1.74,0,2.516,1.282,2.516,3.164v2.642c0,2.057-.981,3.4-3.053,3.4s-3.022-1.345-3.022-3.4v-.918h1.408v1.013c0,1.2.506,1.946,1.582,1.946s1.582-.744,1.582-1.946V58.045c0-1.218-.506-1.946-1.582-1.946a1.456,1.456,0,0,0-1.582,1.44v.316h-1.392l.364-7.515h5.316V51.7h-3.971Z" transform="translate(57.121 -25.564)" fill="#263238"/>
        <path id="Path_12942" data-name="Path 12942" d="M156.092,53.63v.253h-1.408v-.348c0-1.218-.49-1.93-1.582-1.93s-1.582.744-1.582,2.183V56.81a2.2,2.2,0,0,1,2.183-1.44c1.74,0,2.516,1.25,2.516,3.164v2.057c0,2.057-1.028,3.4-3.164,3.4s-3.164-1.345-3.164-3.4V53.725c0-2.136.965-3.465,3.164-3.465S156.092,51.573,156.092,53.63Zm-4.651,5.063v2.025c0,1.2.506,1.946,1.582,1.946s1.582-.744,1.582-1.946V58.693c0-1.218-.522-1.946-1.582-1.946S151.44,57.474,151.44,58.693Z" transform="translate(59.834 -25.611)" fill="#263238"/>
        <rect id="Rectangle_19619" data-name="Rectangle 19619" width="3.813" height="9.524" transform="translate(359.518 28.62)" fill="#263238"/>
        <rect id="Rectangle_19620" data-name="Rectangle 19620" width="3.813" height="11.439" transform="translate(364.596 26.706)" fill="#263238"/>
        <rect id="Rectangle_19621" data-name="Rectangle 19621" width="3.813" height="12.799" transform="translate(369.675 25.345)" fill="#263238"/>
        <rect id="Rectangle_19622" data-name="Rectangle 19622" width="3.813" height="15.157" transform="translate(374.769 22.988)" fill="#263238"/>
        <path id="Path_12943" data-name="Path 12943" d="M294.83,63.776H272V49.79h22.861Zm-21.6-1.282h20.33V51.056h-20.33Z" transform="translate(130.915 -25.884)" fill="#263238"/>
        <rect id="Rectangle_19623" data-name="Rectangle 19623" width="12.071" height="8.67" transform="translate(406.048 26.564)" fill="#263238"/>
        <rect id="Rectangle_19624" data-name="Rectangle 19624" width="2.879" height="3.291" transform="translate(424.954 29.253)" fill="#263238"/>
        <path id="Path_12944" data-name="Path 12944" d="M270.271,57.814a.87.87,0,0,1-.443-.111c-4.651-2.769-7.737-.206-7.911-.095a.854.854,0,0,1-1.2,0,.87.87,0,0,1,.079-1.2c.158-.142,4.1-3.512,9.857-.095a.854.854,0,0,1,.3,1.171.838.838,0,0,1-.68.332Z" transform="translate(124.227 -22.976)" fill="#263238"/>
        <path id="Path_12945" data-name="Path 12945" d="M272.6,56.2a.712.712,0,0,1-.427-.127c-6.74-4-11.265-.127-11.312-.095a.854.854,0,0,1-1.2,0,.886.886,0,0,1,.079-1.218s5.522-4.746,13.306,0a.854.854,0,0,1-.443,1.582Z" transform="translate(123.61 -24.221)" fill="#263238"/>
        <path id="Path_12946" data-name="Path 12946" d="M274.739,54.276a.838.838,0,0,1-.427-.127c-8.528-5.063-14.239-.3-14.429-.095a.854.854,0,0,1-1.218,0,.87.87,0,0,1,.079-1.2c.079,0,6.8-5.822,16.438-.095a.87.87,0,0,1,.3,1.171A.886.886,0,0,1,274.739,54.276Z" transform="translate(123.034 -25.624)" fill="#263238"/>
        <path id="Path_12947" data-name="Path 12947" d="M266.633,58.4a2.136,2.136,0,1,1-.62-1.52,2.152,2.152,0,0,1,.62,1.52Z" transform="translate(125.286 -22.124)" fill="#263238"/>
        <path id="Path_12948" data-name="Path 12948" d="M276.849,400.727l7.7-7.7a2.373,2.373,0,0,0-3.354-3.354l-7.7,7.7-7.7-7.7a2.377,2.377,0,1,0-3.37,3.354l7.673,7.7-7.721,7.7a2.377,2.377,0,1,0,3.37,3.354l7.7-7.7,7.7,7.7a2.326,2.326,0,0,0,1.677.7,2.3,2.3,0,0,0,1.677-.7,2.357,2.357,0,0,0,0-3.354Z" transform="translate(124.911 171.553)" fill="#263238"/>
        <path id="Path_12949" data-name="Path 12949" d="M152.869,344.353V328.769l-.554.221-.918.269-.918.253a3.307,3.307,0,0,0-.57.19V327.25l.823-.332,1.06-.49a8.514,8.514,0,0,0,1.044-.6,4.351,4.351,0,0,0,.791-.7h2.516v19.223Z" transform="translate(59.846 134.393)" fill="#263238"/>
        <path id="Path_12950" data-name="Path 12950" d="M207.8,344.434v-2.31l4.746-7.341c.348-.538.68-1.044.981-1.582a7.169,7.169,0,0,0,.759-1.582,4.873,4.873,0,0,0,.3-1.756,2.959,2.959,0,0,0-.38-1.582,1.329,1.329,0,0,0-1.187-.57,1.582,1.582,0,0,0-1.187.427,2.262,2.262,0,0,0-.585,1.107,7.465,7.465,0,0,0-.158,1.582v.823h-3.164V330.8a7.911,7.911,0,0,1,.522-3.006,4.225,4.225,0,0,1,1.582-2.041,5.378,5.378,0,0,1,2.832-.744,4.746,4.746,0,0,1,3.7,1.329,5.237,5.237,0,0,1,1.234,3.7,6.6,6.6,0,0,1-.332,2.152,9.334,9.334,0,0,1-.886,1.835q-.538.886-1.187,1.8l-3.939,5.98h5.838v2.626Z" transform="translate(93.544 134.311)" fill="#263238"/>
        <path id="Path_12951" data-name="Path 12951" d="M268.154,344.72a5.633,5.633,0,0,1-2.911-.665,3.923,3.923,0,0,1-1.582-1.93,7.7,7.7,0,0,1-.49-2.9v-.664h3.164v.554a8.086,8.086,0,0,0,.174,1.582,1.835,1.835,0,0,0,.522.981,1.661,1.661,0,0,0,1.092.332,1.487,1.487,0,0,0,1.092-.364,1.915,1.915,0,0,0,.506-1.044,9.811,9.811,0,0,0,.127-1.582,4.984,4.984,0,0,0-.459-2.31,1.962,1.962,0,0,0-1.788-.9h-.554v-2.737h.6a2.183,2.183,0,0,0,1.8-.7,3.781,3.781,0,0,0,.49-2.183,4.224,4.224,0,0,0-.364-1.9,1.456,1.456,0,0,0-1.408-.68,1.376,1.376,0,0,0-1.376.759,5.158,5.158,0,0,0-.364,1.962v.712h-3.164v-.918a6.2,6.2,0,0,1,.57-2.785,3.987,3.987,0,0,1,1.709-1.756,5.521,5.521,0,0,1,2.705-.6,5.807,5.807,0,0,1,2.753.585A3.956,3.956,0,0,1,272.7,327.3a6.012,6.012,0,0,1,.585,2.753,5.031,5.031,0,0,1-.886,2.864,3.164,3.164,0,0,1-1.835,1.424,3.164,3.164,0,0,1,1.329.823,3.972,3.972,0,0,1,.886,1.582,6.85,6.85,0,0,1,.332,2.278,8.923,8.923,0,0,1-.49,3.038,4.1,4.1,0,0,1-1.582,2.057,5.173,5.173,0,0,1-2.879.6Z" transform="translate(125.774 134.31)" fill="#263238"/>
        <path id="Path_12952" data-name="Path 12952" d="M154.9,365.9v-4.746H149.16v-2.8l5-11.708h3.829v11.9h1.993v2.61H158.02V365.9Zm-2.99-7.325h2.99v-8.354Z" transform="translate(59.409 146.92)" fill="#263238"/>
        <path id="Path_12953" data-name="Path 12953" d="M212.782,366.177a5.269,5.269,0,0,1-2.974-.712,3.576,3.576,0,0,1-1.456-2.009,9.936,9.936,0,0,1-.411-3.069h3.164a9.49,9.49,0,0,0,.127,1.724,2.072,2.072,0,0,0,.522,1.155,1.376,1.376,0,0,0,1.139.4,1.3,1.3,0,0,0,1.187-.538,3.466,3.466,0,0,0,.427-1.487c0-.649.095-1.392.095-2.247a11.8,11.8,0,0,0-.127-1.946,2.627,2.627,0,0,0-.506-1.3,1.471,1.471,0,0,0-1.187-.459,1.582,1.582,0,0,0-1.139.459,2.894,2.894,0,0,0-.664,1.234h-2.832l.19-10.711h8.638v2.943h-5.87l-.19,4.636a2.31,2.31,0,0,1,1.028-.7,4.872,4.872,0,0,1,1.582-.3,3.7,3.7,0,0,1,2.468.633,4.13,4.13,0,0,1,1.392,2.073,10.235,10.235,0,0,1,.459,3.164,17.116,17.116,0,0,1-.206,2.8,6.2,6.2,0,0,1-.744,2.215,3.781,3.781,0,0,1-1.582,1.456A5.4,5.4,0,0,1,212.782,366.177Z" transform="translate(93.624 146.931)" fill="#263238"/>
        <path id="Path_12954" data-name="Path 12954" d="M268.224,366.233a4.338,4.338,0,0,1-4.477-3.1,9.777,9.777,0,0,1-.506-3.164v-6.74a12.388,12.388,0,0,1,.427-3.386,4.54,4.54,0,0,1,1.582-2.389,4.747,4.747,0,0,1,3.054-.87,5.837,5.837,0,0,1,2.753.554,3.449,3.449,0,0,1,1.582,1.582,6.185,6.185,0,0,1,.49,2.626s0,.095,0,.158a.536.536,0,0,1,0,.158h-3.164a4.746,4.746,0,0,0-.3-1.93,1.313,1.313,0,0,0-1.329-.633,1.345,1.345,0,0,0-1,.38,2.357,2.357,0,0,0-.554,1.234,11.424,11.424,0,0,0-.19,2.326v2.294a2.4,2.4,0,0,1,1.013-.87,4.477,4.477,0,0,1,4.05.38,3.94,3.94,0,0,1,1.3,1.962,10,10,0,0,1,.38,2.88,11.073,11.073,0,0,1-.475,3.354,4.351,4.351,0,0,1-4.636,3.2Zm0-2.547a1.282,1.282,0,0,0,1.044-.427,2.564,2.564,0,0,0,.506-1.187,9.679,9.679,0,0,0,.142-1.772,13.532,13.532,0,0,0-.079-1.867,2.737,2.737,0,0,0-.443-1.313,1.392,1.392,0,0,0-1.187-.475,1.884,1.884,0,0,0-.744.142,2.327,2.327,0,0,0-.6.4,2.627,2.627,0,0,0-.4.475v3.022a7.265,7.265,0,0,0,.158,1.487,2.357,2.357,0,0,0,.554,1.107,1.376,1.376,0,0,0,1.06.4Z" transform="translate(125.815 146.876)" fill="#263238"/>
        <path id="Path_12955" data-name="Path 12955" d="M151.023,387.433l3.892-16.707H149.71V368.21h8.369v2.009L154.2,387.433Z" transform="translate(59.729 159.47)" fill="#263238"/>
        <path id="Path_12956" data-name="Path 12956" d="M212.75,387.775a5.269,5.269,0,0,1-2.943-.728,3.987,3.987,0,0,1-1.582-2.057,8.97,8.97,0,0,1-.475-3.053,7.517,7.517,0,0,1,.142-1.582,5.112,5.112,0,0,1,.459-1.281,3.845,3.845,0,0,1,.728-1,3.606,3.606,0,0,1,.965-.728,4.842,4.842,0,0,1-1.44-1.582,5.553,5.553,0,0,1-.6-2.626,6.709,6.709,0,0,1,.506-2.705,3.654,3.654,0,0,1,1.582-1.756,5.238,5.238,0,0,1,2.658-.617,5.158,5.158,0,0,1,2.658.617,3.734,3.734,0,0,1,1.582,1.756,6.218,6.218,0,0,1,.49,2.705,5.585,5.585,0,0,1-.585,2.642,4.524,4.524,0,0,1-1.408,1.582,3.687,3.687,0,0,1,.981.728,3.8,3.8,0,0,1,.712,1,5.111,5.111,0,0,1,.459,1.281,7.469,7.469,0,0,1,.158,1.582,8.258,8.258,0,0,1-.475,3.053,4.066,4.066,0,0,1-1.582,2.057,5.285,5.285,0,0,1-2.99.712Zm0-2.484a1.408,1.408,0,0,0,1.171-.475,2.389,2.389,0,0,0,.522-1.2,9.139,9.139,0,0,0,.111-1.487,7.169,7.169,0,0,0-.111-1.582,2.784,2.784,0,0,0-.538-1.218,1.424,1.424,0,0,0-1.155-.475,1.36,1.36,0,0,0-1.123.475,2.736,2.736,0,0,0-.554,1.2,8.245,8.245,0,0,0-.142,1.582,7.915,7.915,0,0,0,.127,1.5,2.406,2.406,0,0,0,.538,1.2,1.471,1.471,0,0,0,1.155.554Zm0-9.192a1.2,1.2,0,0,0,.933-.411,2.2,2.2,0,0,0,.49-1.076,7.768,7.768,0,0,0,.142-1.582,3.908,3.908,0,0,0-.348-1.788,1.266,1.266,0,0,0-1.218-.68,1.281,1.281,0,0,0-1.218.68,3.433,3.433,0,0,0-.4,1.756,6.865,6.865,0,0,0,.158,1.582,2.2,2.2,0,0,0,.506,1.092,1.266,1.266,0,0,0,.949.427Z" transform="translate(93.514 159.381)" fill="#263238"/>
        <path id="Path_12957" data-name="Path 12957" d="M212.75,408.888a5.015,5.015,0,0,1-2.784-.7,4.414,4.414,0,0,1-1.661-1.978,6.946,6.946,0,0,1-.554-2.9v-8.528a7.4,7.4,0,0,1,.538-2.943,4.113,4.113,0,0,1,1.582-1.978,6,6,0,0,1,5.664,0,4.224,4.224,0,0,1,1.582,1.978,7.688,7.688,0,0,1,.538,2.943v8.528a6.946,6.946,0,0,1-.57,2.9,4.414,4.414,0,0,1-1.661,1.978A5.015,5.015,0,0,1,212.75,408.888Zm0-2.816a1.345,1.345,0,0,0,1.092-.443,2.516,2.516,0,0,0,.475-1.107,6.688,6.688,0,0,0,.127-1.25v-8.433a9.383,9.383,0,0,0-.111-1.313,2.5,2.5,0,0,0-.459-1.107,1.345,1.345,0,0,0-1.123-.443,1.313,1.313,0,0,0-1.107.443,2.515,2.515,0,0,0-.475,1.108,9.335,9.335,0,0,0-.095,1.313v8.433a5.585,5.585,0,0,0,.127,1.25,2.532,2.532,0,0,0,.491,1.107A1.3,1.3,0,0,0,212.75,406.072Z" transform="translate(93.514 171.665)" fill="#263238"/>
        <path id="Path_12958" data-name="Path 12958" d="M268.02,387.769a5.807,5.807,0,0,1-2.737-.57,3.465,3.465,0,0,1-1.582-1.661,6.329,6.329,0,0,1-.49-2.658v-.253h3.164a4.556,4.556,0,0,0,.316,1.914,1.376,1.376,0,0,0,1.361.649,1.3,1.3,0,0,0,1-.38,2.563,2.563,0,0,0,.522-1.266,12.649,12.649,0,0,0,.174-2.294v-2.31a2.215,2.215,0,0,1-1,.854,4.035,4.035,0,0,1-1.582.332,3.719,3.719,0,0,1-2.452-.712,4.146,4.146,0,0,1-1.3-2.041,9.634,9.634,0,0,1-.4-2.9,10.062,10.062,0,0,1,.49-3.322,4.589,4.589,0,0,1,1.582-2.262,4.889,4.889,0,0,1,2.927-.823,4.746,4.746,0,0,1,2.9.807,4.493,4.493,0,0,1,1.582,2.183,9.493,9.493,0,0,1,.506,3.164v6.8a11.978,11.978,0,0,1-.443,3.4,4.588,4.588,0,0,1-1.582,2.4A4.636,4.636,0,0,1,268.02,387.769Zm0-10.125a1.582,1.582,0,0,0,1.06-.332,2.929,2.929,0,0,0,.633-.712v-2.99a7.246,7.246,0,0,0-.142-1.5,2.341,2.341,0,0,0-.506-1.092,1.345,1.345,0,0,0-1.06-.427,1.266,1.266,0,0,0-1.028.427,2.421,2.421,0,0,0-.522,1.187,9.855,9.855,0,0,0-.142,1.788,16.406,16.406,0,0,0,.1,1.851,2.532,2.532,0,0,0,.427,1.313,1.361,1.361,0,0,0,1.2.49Z" transform="translate(125.687 159.386)" fill="#263238"/>
        <path id="Path_12959" data-name="Path 12959" d="M197.21,288.513V269.29h8.069v2.468h-4.556v5.522h3.591v2.452h-3.591v6.328h4.6v2.421Z" transform="translate(87.379 101.888)" fill="#f24405"/>
        <path id="Path_12960" data-name="Path 12960" d="M203.63,288.513V269.29h2.452l4.667,10.964V269.29h2.959v19.223h-2.326l-4.746-11.486v11.486Z" transform="translate(91.116 101.888)" fill="#f24405"/>
        <path id="Path_12961" data-name="Path 12961" d="M214.123,288.513V271.869H211.07V269.29h9.588v2.579h-3.022v16.644Z" transform="translate(95.447 101.888)" fill="#f24405"/>
        <path id="Path_12962" data-name="Path 12962" d="M218.26,288.513V269.29h8.069v2.468h-4.556v5.522h3.576v2.452h-3.576v6.328h4.6v2.421Z" transform="translate(99.633 101.888)" fill="#f24405"/>
        <path id="Path_12963" data-name="Path 12963" d="M224.68,288.514V269.291h4.6a10.014,10.014,0,0,1,3.291.459,3.8,3.8,0,0,1,2.041,1.582,5.759,5.759,0,0,1,.7,3.038,9.284,9.284,0,0,1-.221,2.088,3.97,3.97,0,0,1-.712,1.582,3.291,3.291,0,0,1-1.424,1.013l2.69,9.493h-3.512l-2.326-8.812h-1.582v8.812Zm3.512-11.075h1.092a3.892,3.892,0,0,0,1.582-.3,1.8,1.8,0,0,0,.854-.949,4.588,4.588,0,0,0,.269-1.677,3.559,3.559,0,0,0-.538-2.167,2.342,2.342,0,0,0-2.025-.728h-1.281Z" transform="translate(103.37 101.887)" fill="#f24405"/>
        <path id="Path_12964" data-name="Path 12964" d="M168.474,112.41,165.12,95.75h2.69l2.2,11.787,2.057-11.787h2.753l-3.354,16.66Z" transform="translate(68.7 0.869)" fill="#263238"/>
        <path id="Path_12965" data-name="Path 12965" d="M172.33,112.41V95.75h6.993v2.136h-3.939v4.746h3.164v2.12h-3.164v5.632h3.987v2.088Z" transform="translate(72.896 0.869)" fill="#263238"/>
        <path id="Path_12966" data-name="Path 12966" d="M177.89,112.41V95.751h4a8.733,8.733,0,0,1,2.848.411,3.275,3.275,0,0,1,1.772,1.361,5,5,0,0,1,.6,2.626,7.907,7.907,0,0,1-.19,1.819,3.481,3.481,0,0,1-.617,1.361,2.9,2.9,0,0,1-1.234.886l2.326,8.2h-3.006l-2.025-7.626h-1.392v7.626Zm3.053-9.493h.949a3.164,3.164,0,0,0,1.408-.253,1.471,1.471,0,0,0,.744-.823,3.859,3.859,0,0,0,.221-1.456,3.164,3.164,0,0,0-.459-1.883,2.057,2.057,0,0,0-1.756-.617h-1.107Z" transform="translate(76.133 0.868)" fill="#263238"/>
        <path id="Path_12967" data-name="Path 12967" d="M185.21,112.41V95.75h3.006v16.66Z" transform="translate(80.394 0.869)" fill="#263238"/>
        <path id="Path_12968" data-name="Path 12968" d="M188.74,112.41V95.75h6.851v2.1h-3.813v4.857h3.164v2.12h-3.164v7.578Z" transform="translate(82.449 0.869)" fill="#263238"/>
        <path id="Path_12969" data-name="Path 12969" d="M194.12,112.41V95.75h2.974v16.66Z" transform="translate(85.581 0.869)" fill="#263238"/>
        <path id="Path_12970" data-name="Path 12970" d="M202.222,112.714a5.031,5.031,0,0,1-2.879-.728,3.686,3.686,0,0,1-1.44-1.962,8.812,8.812,0,0,1-.411-2.864v-5.949a9.224,9.224,0,0,1,.411-2.959,3.449,3.449,0,0,1,1.44-1.93,5.173,5.173,0,0,1,2.879-.68,5.284,5.284,0,0,1,2.705.585,3.164,3.164,0,0,1,1.376,1.677,6.883,6.883,0,0,1,.411,2.516v1.408H203.8v-1.44a10.5,10.5,0,0,0,0-1.281,1.582,1.582,0,0,0-.4-.918,1.455,1.455,0,0,0-1.092-.332,1.582,1.582,0,0,0-1.139.364,1.8,1.8,0,0,0-.475.965,8.728,8.728,0,0,0-.095,1.361v7.246a6.488,6.488,0,0,0,.142,1.487,1.429,1.429,0,0,0,1.566,1.187,1.376,1.376,0,0,0,1.076-.364,1.582,1.582,0,0,0,.4-.949,8.672,8.672,0,0,0,.095-1.345v-1.582h2.911v1.345a8.416,8.416,0,0,1-.38,2.626,3.528,3.528,0,0,1-1.376,1.788,4.968,4.968,0,0,1-2.816.728Z" transform="translate(87.541 0.802)" fill="#263238"/>
        <path id="Path_12971" data-name="Path 12971" d="M204.13,112.41l3.322-16.66h3.259l3.322,16.66h-2.816l-.649-3.845h-2.911l-.664,3.845Zm3.845-5.775h2.278l-1.139-6.993Z" transform="translate(91.408 0.869)" fill="#263238"/>
        <path id="Path_12972" data-name="Path 12972" d="M212.978,112.41V98H210.32V95.75h8.306V98h-2.61V112.41Z" transform="translate(95.011 0.869)" fill="#263238"/>
        <path id="Path_12973" data-name="Path 12973" d="M216.59,112.41V95.75H219.6v16.66Z" transform="translate(98.661 0.869)" fill="#263238"/>
        <path id="Path_12974" data-name="Path 12974" d="M224.747,112.737a5.189,5.189,0,0,1-2.816-.664,3.686,3.686,0,0,1-1.5-1.9A8.448,8.448,0,0,1,220,107.31v-6.328a8.291,8.291,0,0,1,.459-2.9,3.592,3.592,0,0,1,1.44-1.851,5.348,5.348,0,0,1,2.816-.633,5.427,5.427,0,0,1,2.848.633,3.67,3.67,0,0,1,1.5,1.835,8.29,8.29,0,0,1,.427,2.911v6.328a8.417,8.417,0,0,1-.459,2.9,3.8,3.8,0,0,1-1.5,1.883,5.269,5.269,0,0,1-2.785.649Zm0-2.247a1.409,1.409,0,0,0,1.6-1.234,6.185,6.185,0,0,0,.127-1.25v-7.673a6.123,6.123,0,0,0-.127-1.266,1.582,1.582,0,0,0-.475-.87,1.693,1.693,0,0,0-1.123-.38,1.661,1.661,0,0,0-1.092.316,1.582,1.582,0,0,0-.49.87,5.2,5.2,0,0,0-.127,1.266v7.673a6.234,6.234,0,0,0,.111,1.25,1.515,1.515,0,0,0,1.6,1.281Z" transform="translate(100.645 0.779)" fill="#263238"/>
        <path id="Path_12975" data-name="Path 12975" d="M227.44,112.41V95.75h2.12l4.05,9.493V95.75h2.5v16.66H234.1l-4.066-9.936v9.951Z" transform="translate(104.976 0.869)" fill="#263238"/>
        <path id="Path_12976" data-name="Path 12976" d="M242.251,112.714a5.015,5.015,0,0,1-2.864-.728,3.686,3.686,0,0,1-1.44-1.962,8.8,8.8,0,0,1-.427-2.864v-5.949a9.19,9.19,0,0,1,.427-2.959,3.449,3.449,0,0,1,1.44-1.93,5.142,5.142,0,0,1,2.864-.68,5.205,5.205,0,0,1,2.705.585,3.164,3.164,0,0,1,1.392,1.677,6.881,6.881,0,0,1,.411,2.516v1.408h-2.911v-1.44a10.5,10.5,0,0,0-.079-1.281,1.582,1.582,0,0,0-.4-.918,1.456,1.456,0,0,0-1.092-.332,1.582,1.582,0,0,0-1.139.364,1.693,1.693,0,0,0-.475.965,8.735,8.735,0,0,0-.095,1.361v7.246a6.486,6.486,0,0,0,.142,1.487,1.429,1.429,0,0,0,1.566,1.187,1.376,1.376,0,0,0,1.076-.364,1.74,1.74,0,0,0,.4-.949,8.668,8.668,0,0,0,.095-1.345v-1.582h2.911v1.345a7.911,7.911,0,0,1-.4,2.626A3.417,3.417,0,0,1,245,111.986a4.984,4.984,0,0,1-2.753.728Z" transform="translate(110.843 0.802)" fill="#263238"/>
        <path id="Path_12977" data-name="Path 12977" d="M249.313,112.728a5.221,5.221,0,0,1-2.816-.664,3.686,3.686,0,0,1-1.5-1.9,8.464,8.464,0,0,1-.443-2.911v-6.281a8.323,8.323,0,0,1,.443-2.9,3.591,3.591,0,0,1,1.5-1.835,6.661,6.661,0,0,1,5.664,0,3.591,3.591,0,0,1,1.5,1.835,7.91,7.91,0,0,1,.459,2.9V107.3a8.053,8.053,0,0,1-.459,2.9,3.7,3.7,0,0,1-1.5,1.883,5.268,5.268,0,0,1-2.848.649Zm0-2.247a1.582,1.582,0,0,0,1.123-.332,1.788,1.788,0,0,0,.49-.9,6.234,6.234,0,0,0,.111-1.25v-7.673a6.184,6.184,0,0,0-.111-1.266,1.756,1.756,0,0,0-.49-.87,2.088,2.088,0,0,0-2.215,0,1.582,1.582,0,0,0-.49.87,6.123,6.123,0,0,0-.127,1.266V108a7.657,7.657,0,0,0,.111,1.25,1.408,1.408,0,0,0,1.6,1.218Z" transform="translate(114.935 0.788)" fill="#263238"/>
        <path id="Path_12978" data-name="Path 12978" d="M252,112.412V95.753h3.924a7.5,7.5,0,0,1,3.164.554,3.354,3.354,0,0,1,1.582,1.709,7.753,7.753,0,0,1,.475,2.927v6.091a8.258,8.258,0,0,1-.475,3.006,3.322,3.322,0,0,1-1.582,1.788,6.629,6.629,0,0,1-3.069.585Zm3.038-2.12h.933a2.357,2.357,0,0,0,1.5-.364,1.582,1.582,0,0,0,.554-1.076,13.531,13.531,0,0,0,.095-1.74v-6.328a7.485,7.485,0,0,0-.142-1.582,1.36,1.36,0,0,0-.585-.9,2.911,2.911,0,0,0-1.471-.285h-.886Z" transform="translate(119.273 0.867)" fill="#263238"/>
        <path id="Path_12979" data-name="Path 12979" d="M259.26,112.41V95.75h6.993v2.136H262.3v4.746h3.164v2.12H262.3v5.632h4v2.088Z" transform="translate(123.499 0.869)" fill="#263238"/>
      </g>
      <g id="freepik--Arrow--inject-2" transform="translate(492.204 26.754)">
        <path id="Path_12980" data-name="Path 12980" d="M402.081,95.707a.791.791,0,0,1-.791-.791V87.005a.791.791,0,0,1,1.582,0v7.911A.791.791,0,0,1,402.081,95.707Zm0-15.821a.791.791,0,0,1-.791-.791V71.184a.791.791,0,0,1,1.582,0v7.911A.791.791,0,0,1,402.081,79.886Zm0-15.821a.791.791,0,0,1-.791-.791V55.363a.791.791,0,0,1,1.582,0v7.911A.791.791,0,0,1,402.081,64.065Zm0-15.821a.791.791,0,0,1-.791-.791V39.542a.791.791,0,0,1,1.582,0v7.911A.791.791,0,0,1,402.081,48.244Zm0-15.821a.791.791,0,0,1-.791-.791V23.721a.791.791,0,0,1,1.582,0v7.911A.791.791,0,0,1,402.081,32.423Z" transform="translate(-266.051 -22.93)" fill="#263238"/>
        <path id="Path_12981" data-name="Path 12981" d="M407.671,262.626H400.5a.791.791,0,0,1-.791-.791.807.807,0,0,1,.791-.791h7.911a.791.791,0,1,1,0,1.582Zm-15.077,0h-7.911a.791.791,0,0,1-.791-.791.807.807,0,0,1,.791-.791h7.911a.792.792,0,1,1-.047,1.582Zm-15.821,0h-7.911a.791.791,0,0,1-.791-.791.807.807,0,0,1,.791-.791h7.911a.792.792,0,1,1-.047,1.582Zm-15.821,0h-7.911a.791.791,0,0,1-.791-.791.807.807,0,0,1,.791-.791h7.911a.792.792,0,1,1-.047,1.582Zm-15.821,0H337.22a.791.791,0,0,1-.791-.791.807.807,0,0,1,.791-.791h7.911a.792.792,0,1,1-.047,1.582Zm-15.821,0H325.1a.791.791,0,0,1-.791-.791.807.807,0,0,1,.791-.791h4.208a.792.792,0,1,1-.047,1.582Zm87.016-.933a.8.8,0,1,1-.174-1.582,37.7,37.7,0,0,0,7.341-2.436.775.775,0,0,1,1.044.4.791.791,0,0,1-.4,1.044,39.757,39.757,0,0,1-7.642,2.547Zm14.334-6.439a.791.791,0,0,1-.475-1.424,39.841,39.841,0,0,0,5.806-5.126.791.791,0,0,1,1.155,1.06,40.373,40.373,0,0,1-6.028,5.348.823.823,0,0,1-.57.142Zm10.663-11.534a.759.759,0,0,1-.411-.111.807.807,0,0,1-.269-1.092,38.669,38.669,0,0,0,3.338-6.977.775.775,0,0,1,1.013-.475.791.791,0,0,1,.475,1.013A40.214,40.214,0,0,1,442,243.34a.791.791,0,0,1-.791.38Zm5.3-14.793H446.5a.807.807,0,0,1-.665-.9,39.387,39.387,0,0,0,.38-5.458v-2.31a.791.791,0,1,1,1.582,0v2.31a39.989,39.989,0,0,1-.4,5.68.791.791,0,0,1-.886.68Zm.38-15.821a.807.807,0,0,1-.791-.791V204.4a.791.791,0,1,1,1.582,0v7.911a.791.791,0,0,1-.9.823Zm0-15.821a.807.807,0,0,1-.791-.791v-7.911a.791.791,0,1,1,1.582,0v7.911a.791.791,0,0,1-.9.823Zm0-15.821a.807.807,0,0,1-.791-.791v-7.911a.791.791,0,1,1,1.582,0v7.911a.791.791,0,0,1-.9.823Zm0-15.821a.807.807,0,0,1-.791-.791v-7.911a.791.791,0,1,1,1.582,0v7.911a.791.791,0,0,1-.9.823Z" transform="translate(-310.862 54.618)" fill="#263238"/>
        <path id="Path_12982" data-name="Path 12982" d="M332.9,216.72l-17.087,9.857,17.087,9.872Z" transform="translate(-315.81 89.876)" fill="#263238"/>
      </g>
      <g id="freepik--Envelope--inject-2" transform="translate(546.517 101.145)">
        <rect id="Rectangle_19625" data-name="Rectangle 19625" width="143.339" height="102.615" transform="matrix(0.979, 0.202, -0.202, 0.979, 28.882, 10.279)" fill="#263238"/>
        <rect id="Rectangle_19626" data-name="Rectangle 19626" width="143.339" height="102.615" transform="matrix(0.979, 0.202, -0.202, 0.979, 21.613, 0.922)" fill="#fff"/>
        <path id="Path_12983" data-name="Path 12983" d="M492.087,201.186,350.14,171.98l.158-.775L371.15,69.95,513.1,99.14l-.158.775Zm-140.08-30.44,138.846,28.573,20.441-98.945L372.369,71.8Z" transform="translate(-350.14 -69.95)" fill="#263238"/>
        <path id="Path_12984" data-name="Path 12984" d="M423.982,136.336a.823.823,0,0,1-.585-.253L363.545,71.375a.791.791,0,1,1,1.155-1.06L424.171,134.6l80.023-35.582a.791.791,0,0,1,1.044.4.775.775,0,0,1-.4,1.044L424.3,136.273a.712.712,0,0,1-.316.063Z" transform="translate(-342.503 -69.935)" fill="#263238"/>
      </g>
      <g id="freepik--Character--inject-2" transform="translate(270.009 398.33)">
        <path id="Path_12985" data-name="Path 12985" d="M511.22,463.345s-27.434-36.642-61.67-61.955-63.6-35.756-71.669-33.335-15.141,10.2-15.141,10.2l-95.67,96.065s-31.563,24.918-35.044,27.1-19.776,12.34-29.759,15.473-26.326,2.642-26.405,5.68,2.12,5.379,6.993,7.436a90.668,90.668,0,0,0,28.351,6.17,95.76,95.76,0,0,1,21.975,2.943c3.4.854,13.163,5.332,15.552,1.582s5.7-25.314,6.518-27.576,31.152-24.175,52.384-34.569,47.226-27.5,54.709-35.645,18.495-20.741,18.495-20.741,34.031,32.2,45.755,47.384,30.55,34,64.692,49.852,46.7,2.927,49.045-9.951S511.22,463.345,511.22,463.345Z" transform="translate(-175.082 -193.804)" fill="#fff"/>
        <path id="Path_12986" data-name="Path 12986" d="M245.459,543.277a33,33,0,0,1-9.493-2.231c-1.092-.364-2.025-.68-2.674-.854a96.506,96.506,0,0,0-21.8-2.911,90.45,90.45,0,0,1-28.636-6.233c-5.205-2.183-7.594-4.746-7.483-8.2,0-2.262,3.939-2.832,12.008-3.781a87.023,87.023,0,0,0,14.951-2.626c6.328-1.993,16.881-7.452,29.57-15.378,3.417-2.136,34.664-26.817,34.98-27.054l95.591-96.05c.269-.3,7.293-7.911,15.473-10.41s37.765,7.911,72.35,33.446c33.477,24.807,60.8,60.721,61.813,62.066,1.677,1.772,31.547,33.762,29.237,46.783a20.71,20.71,0,0,1-10.663,15.283c-9.129,4.746-22.387,3.164-39.442-4.746-27.608-12.831-48.871-29.206-64.993-50.09-10.7-13.859-40.486-42.369-45.074-46.735-2.31,2.642-11.518,13.116-17.973,20.14-7.768,8.48-33.952,25.551-54.931,35.835-21.374,10.458-50.754,31.816-51.988,34.158-.237.649-.807,3.576-1.456,6.961-1.456,7.642-3.449,18.1-5.142,20.741a4.746,4.746,0,0,1-4.224,1.883ZM381.077,368.8a9.385,9.385,0,0,0-2.69.332c-7.752,2.326-14.7,9.9-14.777,9.967l-95.7,96.081c-1.361,1.076-31.642,25.045-35.186,27.212-12.8,8.005-23.431,13.527-29.933,15.568a88.715,88.715,0,0,1-15.236,2.674c-3.971.475-10.584,1.266-10.616,2.262-.079,2.674,1.993,4.746,6.518,6.692a88.992,88.992,0,0,0,28.067,6.107,97.191,97.191,0,0,1,22.149,2.959c.728.19,1.693.506,2.8.886,3.86,1.313,10.315,3.512,11.9,1.06s3.576-13.1,4.92-20.188a60.049,60.049,0,0,1,1.582-7.23c1.076-2.911,32.259-24.966,52.779-35.012S354.592,450.9,362.123,442.7s18.368-20.567,18.479-20.741a.775.775,0,0,1,.554-.269.728.728,0,0,1,.585.206c.348.332,34.221,32.433,45.881,47.463,15.963,20.678,37.037,36.911,64.423,49.615,16.327,7.594,29.491,9.24,37.971,4.746a19.476,19.476,0,0,0,9.841-14.16c2.183-12.34-28.478-45.122-28.858-45.454h0c-.269-.38-27.766-36.784-61.512-61.7C418.43,379.355,391.535,368.8,381.077,368.8Z" transform="translate(-175.368 -194.108)" fill="#263238"/>
        <path id="Path_12987" data-name="Path 12987" d="M415.577,401.39c-34.253-25.314-63.6-35.756-71.669-33.335s-15.141,10.2-15.141,10.2L234.22,473.186c2.057,5.743,6.724,13.147,17.4,18a243.661,243.661,0,0,1,22.07-12.657c21.232-10.41,47.226-27.513,54.709-35.661S346.9,422.132,346.9,422.132s34.031,32.2,45.755,47.384,43.492,57.7,79.9,67.271c67,17.64,64.724-16.517,67-29.4S477.279,463.3,477.279,463.3,449.814,426.7,415.577,401.39Z" transform="translate(-141.109 -193.804)" fill="#263238"/>
        <path id="Path_12988" data-name="Path 12988" d="M504.938,542.874a129.737,129.737,0,0,1-32.354-4.952c-35.5-9.334-66.085-49.045-79.105-66.021l-1.171-1.582c-10.7-13.859-40.486-42.369-45.074-46.735-2.31,2.642-11.518,13.116-17.973,20.14-7.768,8.48-33.952,25.551-54.931,35.835a243.074,243.074,0,0,0-22.007,12.562.775.775,0,0,1-.744,0C240.5,487.088,235.758,479.3,233.8,473.672a.791.791,0,0,1,.19-.823l94.547-94.926c.269-.3,7.293-7.911,15.473-10.41s37.765,7.911,72.35,33.446h0c32.813,24.317,59.724,59.329,61.7,61.955,7.42,3.591,64.866,31.9,62.541,44.869-.206,1.123-.364,2.4-.538,3.781-.965,7.531-2.421,18.875-12.372,25.6C522.088,540.943,514.541,542.874,504.938,542.874Zm-157.8-121.158a.839.839,0,0,1,.538.206c.348.332,34.221,32.433,45.881,47.463l1.187,1.582c12.957,16.834,43.3,56.26,78.283,65.468,25.314,6.677,43.476,6.534,53.792-.427,9.35-6.328,10.695-16.818,11.676-24.475.19-1.424.348-2.721.554-3.86,1.788-10.078-44.03-34.648-61.845-43.255a1.029,1.029,0,0,1-.285-.237c-.269-.38-27.766-36.784-61.512-61.7h0c-34.174-25.314-63.174-35.55-70.973-33.224s-14.7,9.9-14.777,9.967l-94.246,94.5a30.519,30.519,0,0,0,16.391,16.9A242.565,242.565,0,0,1,273.586,478.2c20.472-10.031,46.941-27.276,54.472-35.471s18.368-20.567,18.479-20.741a.775.775,0,0,1,.554-.269Z" transform="translate(-141.382 -194.131)" fill="#263238"/>
        <path id="Path_12989" data-name="Path 12989" d="M175.861,473.377c-.095,3.038,2.12,5.379,6.993,7.436a90.668,90.668,0,0,0,28.351,6.17,95.76,95.76,0,0,1,21.975,2.943c3.4.854,13.163,5.332,15.552,1.582,2.057-3.164,4.746-19.6,6.044-25.567-10.426.332-22.276-4.208-22.276-4.208s.839-2.642-.475-9.493c-3.5,2.183-19.776,12.34-29.759,15.473S175.94,470.339,175.861,473.377Z" transform="translate(-175.082 -144.601)" fill="#fff"/>
        <path id="Path_12990" data-name="Path 12990" d="M245.459,494.053a33,33,0,0,1-9.493-2.231c-1.092-.364-2.025-.68-2.674-.854a96.506,96.506,0,0,0-21.8-2.911,90.45,90.45,0,0,1-28.636-6.233c-5.205-2.183-7.594-4.746-7.483-8.2h0c0-2.262,3.939-2.832,12.008-3.781a87.023,87.023,0,0,0,14.951-2.626c6.328-1.993,16.881-7.452,29.57-15.378a.823.823,0,0,1,.744,0,.791.791,0,0,1,.459.585,28.193,28.193,0,0,1,.6,9.16c2.563.9,12.562,4.224,21.343,3.924a.791.791,0,0,1,.633.269.759.759,0,0,1,.158.68c-.269,1.3-.6,3.069-1,5.094-1.456,7.642-3.449,18.1-5.142,20.741a4.746,4.746,0,0,1-4.24,1.756Zm-68.521-20.378c-.079,2.674,1.993,4.746,6.518,6.692a89.1,89.1,0,0,0,28.067,6.107,97.191,97.191,0,0,1,22.149,2.959c.728.19,1.693.506,2.8.886,3.86,1.313,10.315,3.512,11.9,1.06s3.576-13.1,4.92-20.172c.3-1.582.57-3.006.807-4.161a69.392,69.392,0,0,1-21.58-4.272.791.791,0,0,1-.475-.981s.664-2.31-.285-8.005c-12.356,7.673-22.608,12.957-28.953,14.951a88.709,88.709,0,0,1-15.236,2.674c-3.971.475-10.584,1.266-10.616,2.262Z" transform="translate(-175.368 -144.884)" fill="#263238"/>
        <path id="Path_12991" data-name="Path 12991" d="M524.14,386.439c-9.065-8.1-29.443-27.5-43.682-51.767s-10.347-32.022-21.026-51.118-26.2-28.478-47.242-24.27c-17.071,3.417-25.836,13.669-28.478,17.4-.617.839-1.234,1.582-1.9,2.436-3.069,3.591-12.783,16.913-20.045,48.112-8.749,37.528-8.417,55.959,4.841,64.692s22.656,4.857,26.532,9.065,5.173,9.382,1.946,9.382a6.487,6.487,0,0,1-4.857-1.946s7.436,11.328,14.555,8.085,15.2-14.872,10.031-30.408-19.08-31.373-21.358-34.284-6.787-36.562-6.787-36.562.332-11.328,12.942-7.436,29.759,11,35.265,22.323,25.883,36.879,43.666,44.631,24.918,14.888,31.389,33.984,6.471,25.219,6.471,25.219,13.258-6.139,15.821-20.045S533.189,394.524,524.14,386.439Zm-156.265.633c-6.139-6.787-2.262-19.08-2.262-19.08-1.946,17.4,18.115,27.181,18.115,27.181S374.029,393.891,367.875,387.072Z" transform="translate(-70.325 -257.499)" fill="#263238"/>
        <path id="Path_12992" data-name="Path 12992" d="M516.68,435.064a.759.759,0,0,1-.791-.775s-.111-6.328-6.439-24.982S496.556,383.678,478.5,375.8s-38.667-33.825-44.062-45.027-21.833-17.925-34.806-21.912c-3.8-1.171-6.771-1.013-8.828.459a8.8,8.8,0,0,0-3.085,6.249c1.74,12.8,5.078,34.063,6.629,36.056l1.139,1.424c4.288,5.237,15.695,19.159,20.346,33.1,5.316,15.963-2.927,27.956-10.458,31.389s-15.236-7.911-15.552-8.385a.791.791,0,0,1,1.266-.933,5.743,5.743,0,0,0,4.256,1.661c.617,0,.823-.253.918-.475.554-1.266-.7-4.6-3.449-7.578-1.44-1.582-3.86-1.883-7.214-2.31a41.135,41.135,0,0,1-19.159-6.629c-13.084-8.622-14.445-25.773-5.189-65.547,7.341-31.547,17.4-45.058,20.219-48.444.585-.68,1.171-1.44,1.851-2.373,3.006-4.193,11.866-14.239,29.016-17.72,20.457-4.082,36.642,4.208,48.08,24.665a92.233,92.233,0,0,1,8.717,21.944A110.639,110.639,0,0,0,481.4,334.569c13.685,23.225,33.224,42.211,43.571,51.561,9.255,8.274,10.964,14.081,8.338,28.241s-15.742,20.378-16.3,20.567a.823.823,0,0,1-.332.126Zm.791-.791ZM395.1,306.5a17.1,17.1,0,0,1,5.031.854c13.242,4.082,30.2,11.328,35.74,22.735,5.3,10.932,25.314,36.388,43.271,44.3,18.558,8.085,25.393,15.489,31.816,34.442,4.92,14.508,6.123,21.58,6.423,24.206,3.164-1.756,12.309-7.911,14.381-18.985,2.531-13.638,1-18.89-7.911-26.769-10.474-9.35-30.06-28.478-43.824-51.956a111.809,111.809,0,0,1-12.467-29.522,90.179,90.179,0,0,0-8.575-21.612c-11.075-19.776-26.674-27.813-46.387-23.858-16.581,3.307-25.124,13.037-28.035,17.071-.7.981-1.313,1.772-1.93,2.484-2.832,3.322-12.657,16.565-19.887,47.78-9.065,38.983-7.911,55.69,4.525,63.854a39.727,39.727,0,0,0,18.495,6.328c3.544.459,6.328.823,8.18,2.8,3.053,3.322,4.62,7.214,3.718,9.287a2.389,2.389,0,0,1-2.357,1.424,8.274,8.274,0,0,1-1.851-.206c2.626,2.927,7.056,6.724,11.217,4.841,7.009-3.164,14.619-14.429,9.619-29.443-4.556-13.669-15.821-27.434-20.061-32.607-.522-.633-.918-1.123-1.171-1.456-2.326-2.99-6.487-33.462-6.945-36.926a10.2,10.2,0,0,1,3.718-7.626,8.765,8.765,0,0,1,5.269-1.44Zm-11.075,89.753h-.111c-.4,0-10.062-1.408-16.327-8.338h0c-6.328-7.04-2.595-19.333-2.436-19.855a.791.791,0,0,1,.918-.538.823.823,0,0,1,.633.87c-1.867,16.691,17.4,26.279,17.672,26.374a.782.782,0,0,1-.332,1.487Zm-15.267-9.414a25.187,25.187,0,0,0,10.315,6.518c-4.746-3.291-11.581-9.4-13.543-17.941-.174,3.75.364,8.259,3.164,11.423Z" transform="translate(-70.633 -257.791)" fill="#263238"/>
        <path id="Path_12993" data-name="Path 12993" d="M448.489,431.79s-42.954-7.61-53.6-3.8-38.4,49.425-43.35,54.741-10.268,7.61-14.824,7.61-20.915-3.038-30.424-1.139-21.3,7.99-20.14,13.685,6.455,8.369,23.953,11.075,36.119-3.8,41.056-6.471,10.648-6.455,12.166-7.214,15.2-3.813,22.814-8.749A131.83,131.83,0,0,0,402.1,478.6s32.322,14.824,44.489,21.3,31.183,10.648,41.831,10.648,33.841-3.053,39.553-5.711,16.343-12.926,16.343-24.7,1.266-28.241-2.61-28.953-7.278.823-11.075.443-24.728-12.166-30.06-14.46S448.489,431.79,448.489,431.79Z" transform="translate(-110.927 -159.338)" fill="#263238"/>
        <path id="Path_12994" data-name="Path 12994" d="M319.107,515.695a57.217,57.217,0,0,1-8.844-.649c-17.609-2.674-23.352-5.395-24.6-11.644s11.454-12.752,20.757-14.619c6.85-1.376,17.229-.222,24.1.538,2.9.332,5.189.585,6.487.585,4.746,0,9.841-2.61,14.239-7.357a148.133,148.133,0,0,0,8.923-12.657c10.711-15.821,26.9-39.553,34.727-42.353,10.648-3.813,51.672,3.354,53.966,3.75,2.468.158,46.957,3.164,52.32,5.379,1.914.839,5.759,2.832,10.22,5.158,7.293,3.8,17.292,9,19.586,9.24a20.564,20.564,0,0,0,4.9-.285,18.986,18.986,0,0,1,6.233-.142c3.528.633,3.623,8.907,3.354,22.434,0,2.5-.095,4.984-.095,7.293,0,12.277-11.075,22.782-16.818,25.424s-29.016,5.791-39.869,5.791c-10.568,0-29.712-4.114-42.195-10.743-11.2-5.949-39.885-19.175-43.967-21.058a129.067,129.067,0,0,1-15.695,12.657c-5.759,3.75-14.888,6.328-19.792,7.816-1.487.443-2.769.807-3.085.981-.585.285-1.867,1.076-3.5,2.088-2.4,1.487-5.68,3.512-8.654,5.11C346.984,511.186,333.378,515.695,319.107,515.695Zm-4.841-25.962a39.269,39.269,0,0,0-7.531.6c-9.825,1.962-20.488,7.911-19.523,12.752,1.076,5.427,6.518,7.911,23.289,10.41,17.087,2.595,35.724-3.765,40.565-6.328,2.943-1.582,6.2-3.591,8.575-5.063,1.724-1.076,2.974-1.851,3.623-2.167a30.054,30.054,0,0,1,3.354-1.076c4.825-1.392,13.812-4,19.381-7.626A132.972,132.972,0,0,0,401.82,478.4a.807.807,0,0,1,.87-.158c.332.158,32.481,14.919,44.536,21.327s31.073,10.553,41.451,10.553c10.727,0,33.62-3.022,39.2-5.632s15.9-12.42,15.9-24c0-2.31,0-4.746.095-7.325.158-8.132.4-20.409-2.057-20.852a17.514,17.514,0,0,0-5.743.158,21.436,21.436,0,0,1-5.268.285c-2.4-.237-10.22-4.224-20.172-9.414-4.414-2.294-8.227-4.287-10.11-5.094-4.113-1.756-35.692-4.208-51.83-5.253h-.079c-.427,0-42.875-7.515-53.206-3.829-7.341,2.61-24,27.117-33.952,41.752-4.256,6.328-7.626,11.2-9.081,12.783-4.746,5.079-10.173,7.911-15.41,7.911-1.376,0-3.718-.269-6.661-.585a150.425,150.425,0,0,0-16.043-1.3Z" transform="translate(-111.215 -159.628)" fill="#263238"/>
        <path id="Path_12995" data-name="Path 12995" d="M346.962,442.867a.854.854,0,0,1-.538-.19.807.807,0,0,1,0-1.123,162.076,162.076,0,0,1,13.037-13.638c4.857-3.908,36.942-.332,40.6.095a.791.791,0,0,1,.7.87.807.807,0,0,1-.886.7c-14.033-1.582-36.135-3.069-39.426-.427A149.661,149.661,0,0,0,347.61,442.6a.759.759,0,0,1-.649.269Z" transform="translate(-75.927 -159.814)" fill="#fff"/>
        <path id="Path_12996" data-name="Path 12996" d="M342.709,443.868a.791.791,0,0,1-.6-1.3s1.582-1.914,3.987-4.62A.8.8,0,1,1,347.3,439c-2.357,2.69-3.987,4.6-3.987,4.6A.823.823,0,0,1,342.709,443.868Z" transform="translate(-78.414 -153.078)" fill="#fff"/>
        <path id="Path_12997" data-name="Path 12997" d="M350.383,463c-4.6,4.477-9.493,6.455-13.669,6.455-4.572,0-20.915-3.038-30.424-1.139s-21.3,7.99-20.14,13.685,6.455,8.369,23.953,11.075,36.119-3.8,41.056-6.471,10.347-6.328,12.04-7.151A24.365,24.365,0,0,1,350.383,463Z" transform="translate(-110.927 -138.338)" fill="#fff"/>
        <path id="Path_12998" data-name="Path 12998" d="M319.107,494.712a57.217,57.217,0,0,1-8.844-.649c-17.609-2.674-23.352-5.395-24.6-11.644s11.454-12.752,20.757-14.619c6.85-1.376,17.229-.222,24.1.538,2.9.332,5.189.585,6.487.585,4.335,0,8.986-2.215,13.116-6.233a.823.823,0,0,1,.775-.19.791.791,0,0,1,.554.554c1.092,4.272,4.161,12.024,12.372,15.9a.791.791,0,0,1,0,1.424c-.633.332-1.851,1.076-3.386,2.025-2.389,1.487-5.664,3.512-8.638,5.11C346.984,490.2,333.378,494.712,319.107,494.712Zm-4.841-25.962a39.269,39.269,0,0,0-7.531.6c-9.825,1.962-20.488,7.911-19.523,12.752,1.076,5.427,6.518,7.911,23.289,10.41,17.087,2.595,35.724-3.765,40.565-6.328,2.943-1.582,6.186-3.591,8.575-5.063.839-.522,1.582-.981,2.183-1.345a25.219,25.219,0,0,1-11.565-15A20.41,20.41,0,0,1,337,470.569c-1.376,0-3.718-.269-6.661-.585A150.378,150.378,0,0,0,314.266,468.75Z" transform="translate(-111.215 -138.645)" fill="#263238"/>
        <path id="Path_12999" data-name="Path 12999" d="M337.852,475.688c-1.835-2.99.206-6.328,2.12-8.369a14.853,14.853,0,0,1-3.259.38c-4.572,0-20.915-3.038-30.424-1.139s-21.3,7.99-20.14,13.685,6.455,8.369,23.953,11.075,36.119-3.8,41.056-6.471c.759-.4,1.582-.839,2.31-1.281C348.658,482.855,340.51,479.992,337.852,475.688Z" transform="translate(-110.927 -136.629)" fill="#fff"/>
        <path id="Path_13000" data-name="Path 13000" d="M319.107,492.988a57.217,57.217,0,0,1-8.844-.649c-17.609-2.674-23.352-5.395-24.6-11.644s11.454-12.752,20.757-14.619c6.85-1.376,17.229-.222,24.1.538,2.9.332,5.189.585,6.487.585a14.016,14.016,0,0,0,3.085-.364.791.791,0,0,1,.854.38.759.759,0,0,1-.095.918c-1.788,1.993-3.591,4.889-2.025,7.42h0c2.468,4.034,10.442,6.835,15.046,7.468a.791.791,0,0,1,.665.633.807.807,0,0,1-.38.839c-.791.459-1.582.886-2.326,1.3C346.984,488.478,333.378,492.988,319.107,492.988Zm-4.841-25.962a39.269,39.269,0,0,0-7.531.6c-9.825,1.962-20.488,7.911-19.523,12.752,1.076,5.427,6.518,7.911,23.289,10.41,17.087,2.595,35.724-3.765,40.565-6.328l.4-.206c-5-1.123-11.6-3.892-14-7.8-1.376-2.247-1.06-4.873.9-7.673a13.294,13.294,0,0,1-1.361,0c-1.376,0-3.718-.269-6.661-.585a150.366,150.366,0,0,0-16.074-1.171Z" transform="translate(-111.215 -136.92)" fill="#263238"/>
        <path id="Path_13001" data-name="Path 13001" d="M405.6,331.346s-29.775.316-33,11.644-.332,66.971-.649,85.434-.316,30.408,1.946,34.949,15.52,12.942,16.5,13.258-.332,10.347-.332,10.347,22.972,2.911,35.914,3.243,24.586,5.174,36.547,14.555,19.745,15.52,19.745,15.52l7.436-8.085s2.911,27.5,6.154,40.122,14.239,13.258,17.4,13.258,13.907-.316,13.907-.316-10.347-19.1-14.888-32.038-7.436-23.937-7.436-23.937,2.262-3.56,2.262-11.312-1.582-12.293-1.281-20.061,14.239-41.736,8.4-79.58-3.876-48.539-18.115-55.975-45.3-11.977-54.029-12.657S405.6,331.346,405.6,331.346Z" transform="translate(-61.456 -215.996)" fill="#f24405"/>
        <path id="Path_13002" data-name="Path 13002" d="M513.636,566.625c-4.414,0-15.03-1.345-18.242-13.859-2.737-10.7-5.268-32.243-5.98-38.493l-6.249,6.8a.791.791,0,0,1-1.076.095s-7.768-6.154-19.729-15.536-23.605-14.065-36.088-14.381c-12.847-.316-35.771-3.164-35.993-3.243a.838.838,0,0,1-.522-.3.728.728,0,0,1-.158-.585,49.185,49.185,0,0,0,.585-9.619c-2.152-1.123-14.365-8.907-16.691-13.543s-2.341-17.071-2.025-35.313c.095-5.822-.111-15.2-.364-26.073-.538-23.02-1.2-51.672,1.044-59.535,3.338-11.676,32.117-12.2,33.715-12.214s28.019-2.247,36.657-1.582c7.7.57,39.553,5,54.33,12.657,11.739,6.123,12.831,14.476,15.821,36.8.744,5.68,1.582,12.119,2.769,19.745,4.4,28.652-2.5,55.374-6.2,69.613a66.336,66.336,0,0,0-2.2,10.062,59.487,59.487,0,0,0,.6,10.584,76.8,76.8,0,0,1,.68,9.493,25,25,0,0,1-2.2,11.423c.506,1.883,3.291,12.008,7.341,23.573,4.446,12.736,14.714,31.721,14.824,31.911a.791.791,0,0,1,0,.775.775.775,0,0,1-.649.4C527.432,566.245,516.8,566.625,513.636,566.625Zm-23.653-54.962a.712.712,0,0,1,.253,0,.791.791,0,0,1,.538.664c0,.269,2.943,27.592,6.123,40,2.832,11.075,11.676,12.657,16.707,12.657,2.516,0,9.682-.19,12.657-.285-2.294-4.3-10.458-19.966-14.334-31.009-4.477-12.815-7.42-23.89-7.452-24a.775.775,0,0,1,.095-.617s2.136-3.512,2.136-10.9a74.19,74.19,0,0,0-.68-9.255,62.865,62.865,0,0,1-.6-10.837,64.869,64.869,0,0,1,2.247-10.395c3.671-14.239,10.521-40.708,6.17-69.043-1.171-7.626-2.025-14.081-2.785-19.776-2.927-22.339-3.924-29.854-14.919-35.613-14.508-7.578-46.071-11.961-53.792-12.53-8.575-.633-36.167,1.582-36.388,1.582h0c-.285,0-29.206.443-32.243,11.075-2.183,7.61-1.582,36.135-.981,59.06.253,10.885.459,20.283.364,26.136-.3,17.4-.348,30.155,1.851,34.569s14.824,12.388,16.058,12.878c.57.19,1.582.506.3,10.41,4.145.506,23.637,2.848,35.044,3.164,12.847.316,24.618,5,37.021,14.729,10.078,7.911,17.166,13.48,19.159,15.078l6.945-7.563a.823.823,0,0,1,.506-.174ZM390.311,477.6Zm15.52-145.981Z" transform="translate(-61.735 -216.269)" fill="#263238"/>
        <path id="Path_13003" data-name="Path 13003" d="M393.438,342.15a21.264,21.264,0,0,1-1.74-5.711c-6.787-11.344-12.926-23.051-14.54-28.62-2.452-8.433-.57-24.475.712-32.908-4.382,6.961-10.9,20.156-16.122,42.717-8.749,37.528-8.417,55.959,4.841,64.692s22.656,4.857,26.532,9.065,5.173,9.382,1.946,9.382a6.486,6.486,0,0,1-4.857-1.946s7.436,11.328,14.555,8.085,15.2-14.872,10.031-30.408S395.668,345.061,393.438,342.15ZM367.887,377.4c-6.139-6.787-2.262-19.08-2.262-19.08-1.946,17.4,18.115,27.181,18.115,27.181S374.041,384.218,367.887,377.4Z" transform="translate(-70.336 -247.826)" fill="#263238"/>
        <path id="Path_13004" data-name="Path 13004" d="M402.367,408.509c-6.5,0-12.245-8.607-12.53-9.034a.791.791,0,0,1,1.266-.933,5.743,5.743,0,0,0,4.256,1.661c.617,0,.823-.253.918-.475.554-1.266-.7-4.6-3.449-7.578-1.44-1.582-3.86-1.883-7.214-2.31a41.136,41.136,0,0,1-19.159-6.629c-13.084-8.623-14.445-25.773-5.189-65.547,5.221-22.418,11.708-35.692,16.217-42.875a.79.79,0,0,1,1.456.538c-1.3,8.622-3.164,24.333-.728,32.56,1.456,5.047,7.135,16.2,14.46,28.478a.823.823,0,0,1,.095.237,18.255,18.255,0,0,0,1.582,5.379h0l1.139,1.424c4.288,5.237,15.695,19.159,20.346,33.1,5.316,15.963-2.927,27.956-10.458,31.389A7.23,7.23,0,0,1,402.367,408.509Zm-8.86-6.93c2.626,2.927,7.056,6.724,11.217,4.841,7.009-3.164,14.619-14.429,9.619-29.443-4.556-13.669-15.821-27.434-20.061-32.607-.522-.633-.918-1.123-1.171-1.456h0c-.364-.475-.918-1.582-1.867-5.885-5.87-9.809-12.752-22.466-14.555-28.7-2.136-7.373-1.06-20.283.127-29.316-4.24,7.61-9.493,19.95-14.017,39.015-9.065,38.983-7.911,55.69,4.525,63.854a39.727,39.727,0,0,0,18.495,6.328c3.544.459,6.328.823,8.18,2.8,3.053,3.322,4.62,7.214,3.718,9.287a2.389,2.389,0,0,1-2.357,1.424,8.272,8.272,0,0,1-1.851-.142Zm-9.493-15H383.9c-.4,0-10.062-1.408-16.327-8.338h0c-6.328-7.04-2.595-19.333-2.436-19.855a.791.791,0,0,1,.918-.538.823.823,0,0,1,.633.87c-1.867,16.691,17.4,26.279,17.672,26.374a.782.782,0,0,1-.332,1.487Zm-15.267-9.414a25.314,25.314,0,0,0,10.3,6.5c-4.746-3.291-11.565-9.382-13.527-17.925-.174,3.75.364,8.259,3.164,11.423Z" transform="translate(-70.627 -248.116)" fill="#263238"/>
        <path id="Path_13005" data-name="Path 13005" d="M428.407,427.628H428.3l-9.24-1.329a.791.791,0,0,1,.221-1.566l9.24,1.329a.793.793,0,0,1-.111,1.582Z" transform="translate(-33.905 -160.617)" fill="#263238"/>
        <path id="Path_13006" data-name="Path 13006" d="M433.4,443.632h-.127c-31.531-4.6-48.3-7.388-49.8-8.259-2.832-1.582.886-26.659,3.354-41.435a.8.8,0,0,1,1.582.253c-3.053,18.242-5.4,38.145-4.066,39.869.585.3,6.708,1.8,49.188,8.005a.793.793,0,0,1-.111,1.582Z" transform="translate(-54.826 -178.932)" fill="#263238"/>
        <path id="Path_13007" data-name="Path 13007" d="M383.329,434.989h-.111a.775.775,0,0,1-.57-.949l3.164-13.226a.807.807,0,0,1,.965-.585.775.775,0,0,1,.57.949L384.184,434.4A.791.791,0,0,1,383.329,434.989Z" transform="translate(-54.722 -163.248)" fill="#263238"/>
        <path id="Path_13008" data-name="Path 13008" d="M468.487,448.789a40.483,40.483,0,0,1-10.015-1.978c-9.493-2.737-29.032-9.414-29.237-9.493a.8.8,0,0,1,.522-1.5c.19.079,19.618,6.74,29.142,9.493,8.654,2.468,10.41,1.867,10.474,1.835a.728.728,0,0,1,1.044.206.854.854,0,0,1-.221,1.139,3.164,3.164,0,0,1-1.709.3Z" transform="translate(-27.899 -154.187)" fill="#263238"/>
        <path id="Path_13009" data-name="Path 13009" d="M423.387,359.962a.712.712,0,0,1-.4-.111L408.4,351.577a.791.791,0,0,1,.775-1.376l13.448,7.642.364-10.932a.759.759,0,0,1,.807-.759.791.791,0,0,1,.775.823l-.4,12.23a.839.839,0,0,1-.411.664A.792.792,0,0,1,423.387,359.962Z" transform="translate(-39.928 -206.357)" fill="#263238"/>
        <path id="Path_13010" data-name="Path 13010" d="M394.469,351.393a.791.791,0,0,1-.49-1.408l2.769-2.183a.791.791,0,1,1,.965,1.25l-2.753,2.167A.807.807,0,0,1,394.469,351.393Z" transform="translate(-48.285 -205.509)" fill="#263238"/>
        <path id="Path_13011" data-name="Path 13011" d="M384.691,368.691a.791.791,0,0,1-.791-.775l-.19-7.483a.791.791,0,0,1,.759-.823h0a.807.807,0,0,1,.791.775l.19,7.5a.791.791,0,0,1-.775.807Z" transform="translate(-54.091 -198.522)" fill="#263238"/>
        <path id="Path_13012" data-name="Path 13012" d="M386.211,283.88S369.33,298.609,369.33,302.6s5.522,21.485,7.673,28.557A56.956,56.956,0,0,0,389.28,351.4c4.9,5.221,14.429,11.36,16.58,11.36a12.656,12.656,0,0,0,4.9-1.582s1.234,25.171,5.522,34.079,6.455,8.591,7.373,6.439,12.277-39.284,12.277-39.284l5.522-26.405L429.8,305.95s-16.264-14.429-27.323-18.115S386.211,283.88,386.211,283.88Z" transform="translate(-62.461 -242.605)" fill="#fff"/>
        <path id="Path_13013" data-name="Path 13013" d="M422.481,404.1c-1.171,0-3.164-.9-6.645-8.148-3.829-7.911-5.221-28.019-5.537-33.224a11.184,11.184,0,0,1-4.177,1.092c-2.69,0-12.467-6.613-17.15-11.6A57.509,57.509,0,0,1,376.5,331.657l-.838-2.737c-2.579-8.369-6.866-22.371-6.866-26.041,0-4.145,14.239-16.818,17.15-19.318a.759.759,0,0,1,.57-.19c.221,0,5.442.348,16.47,4.019s26.9,17.688,27.592,18.273a.76.76,0,0,1,.222.316l11.66,30.06a.712.712,0,0,1,0,.443l-5.522,26.405c-.475,1.582-11.391,37.274-12.325,39.442-.6,1.408-1.487,1.724-2.12,1.74Zm-11.454-43.366a.76.76,0,0,1,.38.095.823.823,0,0,1,.411.665c0,.253,1.266,25.108,5.443,33.762,3.37,6.961,4.936,7.293,5.237,7.262s.57-.49.7-.775c.712-1.677,8.322-26.39,12.245-39.22l5.474-26.1-11.518-29.68c-1.582-1.424-16.675-14.413-26.9-17.83a80.227,80.227,0,0,0-15.742-3.924c-6.439,5.648-16.359,15.3-16.359,17.909,0,3.433,4.414,17.83,6.787,25.567l.854,2.753a55.373,55.373,0,0,0,12.087,19.95c5.11,5.411,14.239,11.075,16.011,11.075a11.929,11.929,0,0,0,4.525-1.44.791.791,0,0,1,.364-.063Z" transform="translate(-62.769 -242.902)" fill="#263238"/>
        <path id="Path_13014" data-name="Path 13014" d="M389.942,324.851a9.492,9.492,0,0,1-2.99-.538c-.411-.127-1.471-.475-1.471-6.582a.807.807,0,0,1,.791-.791.791.791,0,0,1,.791.791,18.388,18.388,0,0,0,.522,5.142c1.582.49,4.193.949,5.015-1.139a.791.791,0,0,1,1.028-.427.775.775,0,0,1,.443,1.013,4.1,4.1,0,0,1-4.129,2.531Zm-2.31-1.914Z" transform="translate(-53.06 -223.36)" fill="#263238"/>
        <path id="Path_13015" data-name="Path 13015" d="M390.249,328.1c-1.092,0-1.835-.095-1.946-.095a.8.8,0,0,1,.206-1.582c.095,0,8.686,1.076,11.47-4.746a.789.789,0,1,1,1.424.68C399,327.388,393.271,328.1,390.249,328.1Z" transform="translate(-51.817 -220.866)" fill="#263238"/>
        <path id="Path_13016" data-name="Path 13016" d="M395.49,338.416s10.125-7.911,15.663-15.346c0,0-6.139,14.429-7.99,18.115a55.377,55.377,0,0,0-2.753,6.439Z" transform="translate(-47.233 -219.792)" fill="#263238"/>
        <path id="Path_13017" data-name="Path 13017" d="M400.7,348.705a.807.807,0,0,1-.712-.411l-4.9-9.208a.807.807,0,0,1,.206-1c.111-.079,10.125-8.005,15.52-15.2a.791.791,0,0,1,1.028-.206.775.775,0,0,1,.332.981c-.253.6-6.17,14.508-8.005,18.163a57.459,57.459,0,0,0-2.721,6.328.791.791,0,0,1-.68.538Zm-3.908-9.793L400.557,346c.475-1.187,1.2-2.9,2.183-4.889,1.123-2.247,3.908-8.607,5.854-13.147a117.721,117.721,0,0,1-11.8,10.948Z" transform="translate(-47.523 -220.082)" fill="#263238"/>
        <path id="Path_13018" data-name="Path 13018" d="M396.653,311.227a17.7,17.7,0,0,1-4.572-.617.821.821,0,1,1,.443-1.582c.079,0,7.768,2.215,10.774-2.436a.807.807,0,0,1,1.092-.237.775.775,0,0,1,.237,1.092A9.018,9.018,0,0,1,396.653,311.227Z" transform="translate(-49.567 -229.592)" fill="#263238"/>
        <path id="Path_13019" data-name="Path 13019" d="M389.958,306.268a.791.791,0,0,1-.4-1.471c.4-.222,9.6-5.379,16.3-3.164a.775.775,0,0,1,.506,1,.807.807,0,0,1-1,.506c-6.044-2.025-14.935,2.943-15.014,3.006a.9.9,0,0,1-.4.127Z" transform="translate(-50.909 -232.591)" fill="#263238"/>
        <path id="Path_13020" data-name="Path 13020" d="M380.132,313.38a8.2,8.2,0,0,1-4.414-1.266.807.807,0,0,1-.174-1.107.791.791,0,0,1,1.092-.174,6.835,6.835,0,0,0,8.259-.886.787.787,0,1,1,1,1.218A9.034,9.034,0,0,1,380.132,313.38Z" transform="translate(-58.929 -227.537)" fill="#263238"/>
        <path id="Path_13021" data-name="Path 13021" d="M374.441,307.86a.775.775,0,0,1-.712-.443.807.807,0,0,1,.348-1.06c7.088-3.544,11.945-.4,12.151-.253a.791.791,0,0,1-.87,1.313h0c-.174-.111-4.335-2.753-10.568.364a.933.933,0,0,1-.348.079Z" transform="translate(-59.946 -230.497)" fill="#263238"/>
        <path id="Path_13022" data-name="Path 13022" d="M447.746,366.48s-3.56,12.293-2.262,20.71-.633,35.55-.633,36.879-7.12,4.525-6.8,6.787a60.267,60.267,0,0,0,1.582,6.471l-10.363-4.208L415.36,451.565a151.079,151.079,0,0,0,29.759,21.026c18.764,10.347,31.642,7.12,31.642,7.12s7.436-45.612,8.417-66.005,5.49-47.226-1.582-66.306c-5.553-14.919-30.06-16.834-35.582,8.733" transform="translate(-35.667 -211.989)" fill="#f24405"/>
        <path id="Path_13023" data-name="Path 13023" d="M471.743,481.288c-5.585,0-15-1.266-26.69-7.7a153.809,153.809,0,0,1-29.981-21.153.791.791,0,0,1,0-1.044l13.907-18.447a.791.791,0,0,1,.933-.253l8.828,3.591a44.97,44.97,0,0,1-1.171-5.015c-.253-1.788,2.136-3.481,4.446-5.11a12.125,12.125,0,0,0,2.357-1.914c0-.095,0-1.092.127-2.61.427-7.42,1.582-27.133.506-34.031-1.3-8.48,2.136-20.567,2.294-21.042a.791.791,0,0,1,1-.475.807.807,0,0,1,.538.981c0,.127-3.5,12.23-2.247,20.362,1.092,7.056,0,26.9-.49,34.363-.095,1.471-.142,2.421-.142,2.642,0,.9-.981,1.582-3.006,3.069-1.376.965-3.924,2.769-3.8,3.607a56.3,56.3,0,0,0,1.582,6.328.775.775,0,0,1-1.044.949L429.9,434.41l-13.116,17.4a156.006,156.006,0,0,0,29.079,20.425c16.2,8.939,28.1,7.578,30.63,7.151.839-5.221,7.42-46.466,8.322-65.373.206-4.414.585-9.081.981-14.017,1.392-17.4,2.958-37.2-2.547-51.988a16.248,16.248,0,0,0-16.375-10.41c-8.7.633-15.331,7.736-17.751,18.985a.808.808,0,0,1-1.582-.332c2.579-11.977,9.746-19.539,19.175-20.235a17.8,17.8,0,0,1,17.973,11.391c5.648,15.125,4.05,35.075,2.642,52.668-.4,4.92-.759,9.572-.965,13.97-.965,20.188-8.354,65.626-8.433,66.085a.744.744,0,0,1-.585.633,23.932,23.932,0,0,1-5.6.522Z" transform="translate(-35.949 -212.284)" fill="#263238"/>
        <path id="Path_13024" data-name="Path 13024" d="M447.011,389.324a.791.791,0,0,1-.728-.49.775.775,0,0,1,.427-1.028l3.164-1.313a.791.791,0,0,1,1.028.427.775.775,0,0,1-.427,1.028l-3.164,1.313a.681.681,0,0,1-.3.063Z" transform="translate(-17.703 -182.908)" fill="#263238"/>
        <path id="Path_13025" data-name="Path 13025" d="M436.792,395.036a.805.805,0,0,1-.3-1.582l12.309-5.126a.791.791,0,1,1,.617,1.456l-12.325,5.126A.649.649,0,0,1,436.792,395.036Z" transform="translate(-23.747 -181.849)" fill="#263238"/>
        <path id="Path_13026" data-name="Path 13026" d="M432.444,403.523a.791.791,0,0,1-.775-.6.775.775,0,0,1,.585-.949c9.493-2.389,25.741-6.139,27.481-4.588a1.06,1.06,0,0,1,.332.933c-.364,2.595-7.167,3.591-10.078,3.908a.791.791,0,0,1-.87-.7.775.775,0,0,1,.7-.87,22.736,22.736,0,0,0,8.354-2.152c-2.943-.111-14.793,2.31-25.535,5Z" transform="translate(-26.187 -176.745)" fill="#263238"/>
        <path id="Path_13027" data-name="Path 13027" d="M457.891,413.213a.807.807,0,0,1-.728-.491c-3.338-7.91-22.782-10.173-22.972-10.189a.8.8,0,1,1,.174-1.582c.839.095,20.567,2.421,24.27,11.154a.823.823,0,0,1-.427,1.044A1.03,1.03,0,0,1,457.891,413.213Z" transform="translate(-25.118 -174.459)" fill="#263238"/>
        <path id="Path_13028" data-name="Path 13028" d="M450.8,416.209h-.19a14.236,14.236,0,0,1-3.987-1.772.807.807,0,0,1-.285-1.092.775.775,0,0,1,1.107-.3,12.4,12.4,0,0,0,3.481,1.582.794.794,0,0,1-.142,1.582Z" transform="translate(-17.695 -167.488)" fill="#263238"/>
        <path id="Path_13029" data-name="Path 13029" d="M451.775,418.406a.711.711,0,0,1-.427-.127c-7.816-5.205-18.495-14-18.59-14.1a.775.775,0,0,1-.111-1.107.791.791,0,0,1,1.107-.111c.111.095,10.727,8.844,18.463,14a.791.791,0,0,1,.222,1.092A.759.759,0,0,1,451.775,418.406Z" transform="translate(-25.71 -173.387)" fill="#263238"/>
        <path id="Path_13030" data-name="Path 13030" d="M355.689,366.764s-7.294,15.584-4.541,18.147,19.333,18.526,20.915,19.318,6.107,14.6,8.48,19.919,3.75,17.751,8.274,19.523,14.239-7.483,14.4-12.214,0-6.518-4.335-12.657-14.239-25.836-14.239-25.836L357.6,363.6Z" transform="translate(-73.406 -196.199)" fill="#fff"/>
        <path id="Path_13031" data-name="Path 13031" d="M390.41,444.968a4.429,4.429,0,0,1-1.582-.285c-3.433-1.345-5.063-7.388-6.629-13.226a50.63,50.63,0,0,0-2.088-6.708c-.823-1.867-1.9-4.746-3.038-7.721-1.677-4.446-4.208-11.17-5.11-11.834s-7.183-6.328-17.4-15.932c-1.725-1.582-3.085-2.927-3.718-3.512-2.943-2.737,2.595-15.283,4.367-18.985v-.095l1.962-3.164a.823.823,0,0,1,.6-.364.807.807,0,0,1,.664.253l27.007,29.38a.7.7,0,0,1,.127.174c.095.206,9.888,19.745,14.144,25.741,4.525,6.328,4.746,8.338,4.477,13.116-.142,3.465-4.557,8.591-8.575,11.233a10.648,10.648,0,0,1-5.205,1.93ZM356.7,367.445c-3.386,7.23-6.139,15.821-4.746,17.182l3.734,3.528c5.126,4.889,15.821,15.062,16.992,15.679s2.69,4.319,5.854,12.657c1.123,2.99,2.183,5.806,2.99,7.626a50,50,0,0,1,2.183,6.946c1.329,4.952,2.974,11.075,5.68,12.166,1.218.475,3.164-.095,5.442-1.582,4-2.61,7.752-7.373,7.911-9.983.19-4.556,0-6.139-4.193-12.119s-13.369-24.159-14.239-25.852l-26.247-28.478Z" transform="translate(-73.716 -196.468)" fill="#263238"/>
        <path id="Path_13032" data-name="Path 13032" d="M345.81,353.38l30.566,49.71,23.478,3.148-22.877-45.169Z" transform="translate(-76.152 -202.148)" fill="#263238"/>
        <path id="Path_13033" data-name="Path 13033" d="M400.175,407.319h-.111L376.6,404.155a.823.823,0,0,1-.57-.364l-30.566-49.71a.775.775,0,0,1,.854-1.171l31.167,7.689a.744.744,0,0,1,.506.411l22.877,45.153a.807.807,0,0,1,0,.823.823.823,0,0,1-.7.332Zm-22.988-4.746,21.6,2.911L376.76,361.976l-28.937-7.135Z" transform="translate(-76.425 -202.438)" fill="#263238"/>
        <path id="Path_13034" data-name="Path 13034" d="M465.268,419.074s-34.933-24.618-44-30.724a127.244,127.244,0,0,1-12.942-9.714s-.965-6.139-3.164-8.733-4.525-3.164-8.733-2.911-7.768.981-10.363,0-7.436-9.05-8.085-5.49-.316,6.139,2.911,8.733,7.768,3.56,9.065,4.193-2.057,1.187-2.057,1.187a35.868,35.868,0,0,1-16.248,1.772,60.955,60.955,0,0,1-15.742-4.24c-2.262-.649-1.946,2.579.649,4.525s4.193,2.911,4.193,2.911-8.085-1.3-7.1,1.3,4.525,4.857,6.787,6.471,4.525,4.525,6.471,5.49,2.262,5.506,5.506,7.452,2.278,1.724,10.537,2.484a146.994,146.994,0,0,0,26.01-.221l42.385,33.968Z" transform="translate(-71.636 -197.945)" fill="#fff"/>
        <path id="Path_13035" data-name="Path 13035" d="M451.621,438.594a.807.807,0,0,1-.49-.174L409,404.658a150.13,150.13,0,0,1-25.836.174l-1.582-.142c-6.044-.538-6.17-.554-8.575-2.025l-.7-.411a10.521,10.521,0,0,1-3.781-4.92,5.822,5.822,0,0,0-1.582-2.5,17.12,17.12,0,0,1-3.686-3.006,32.064,32.064,0,0,0-2.9-2.563l-.775-.538c-2.389-1.677-5.348-3.75-6.328-6.328a1.582,1.582,0,0,1,.221-1.661c.744-.918,2.737-1.076,4.556-1.013l-1.582-1.171c-1.946-1.456-2.958-3.75-2.278-5.11a1.788,1.788,0,0,1,2.31-.807,6.132,6.132,0,0,1,1.139.411,54.515,54.515,0,0,0,14.476,3.8,35.994,35.994,0,0,0,15.821-1.709h.174l.664-.127-.427-.142a25.106,25.106,0,0,1-7.61-3.7c-3.56-2.864-3.86-5.87-3.164-9.493a1.709,1.709,0,0,1,1.108-1.5c1.218-.332,2.468.949,4.588,3.259a14.429,14.429,0,0,0,3.449,3.164,18.257,18.257,0,0,0,7.547.174l2.468-.221c4.556-.348,7.025.49,9.382,3.164,2.136,2.436,3.164,7.578,3.386,8.86a132.323,132.323,0,0,0,12.657,9.493c8.971,6.091,43.666,30.5,44.014,30.74a.87.87,0,0,1,.332.538.775.775,0,0,1-.158.585l-13.907,18.447a.728.728,0,0,1-.538.3Zm-42.385-35.55a.744.744,0,0,1,.49.174l41.752,33.462L464.4,419.53c-4.889-3.433-35.06-24.649-43.318-30.25A128.266,128.266,0,0,1,408.05,379.5a.854.854,0,0,1-.237-.459s-.965-5.949-3.053-8.338-3.987-2.943-8.069-2.642l-2.452.221c-3.164.3-6.012.57-8.243-.269a14.112,14.112,0,0,1-4.05-3.544,16.077,16.077,0,0,0-2.927-2.769,1.585,1.585,0,0,0,0,.206c-.6,3.338-.364,5.585,2.626,7.99a23.367,23.367,0,0,0,7.135,3.433,15.725,15.725,0,0,1,1.788.68,1.091,1.091,0,0,1,.728,1.155c0,.332-.158,1.044-2.911,1.487a36.768,36.768,0,0,1-16.47,1.8,57.1,57.1,0,0,1-14.888-3.892c-.49-.19-.823-.332-1-.38s-.427-.079-.459,0c-.19.4.174,1.93,1.8,3.164,2.516,1.883,4.114,2.864,4.129,2.864a.775.775,0,0,1,.332.949.759.759,0,0,1-.854.506c-2.911-.459-5.965-.4-6.328.127.823,2.2,3.67,4.208,5.775,5.664l.775.554a30.058,30.058,0,0,1,3.069,2.705,16.42,16.42,0,0,0,3.291,2.737,6.329,6.329,0,0,1,2.389,3.164,9.4,9.4,0,0,0,3.164,4.24l.712.427c2.088,1.281,2.088,1.281,7.911,1.8l1.582.142a148.318,148.318,0,0,0,25.852-.221Z" transform="translate(-71.896 -198.226)" fill="#263238"/>
        <path id="Path_13036" data-name="Path 13036" d="M385.291,378.2H367.809c-1.361,0-7.784-3.022-9.714-3.955a.791.791,0,1,1,.68-1.424,60.435,60.435,0,0,0,9.05,3.8h17.4a.807.807,0,0,1,.791.791A.791.791,0,0,1,385.291,378.2Z" transform="translate(-69.293 -190.893)" fill="#263238"/>
        <path id="Path_13037" data-name="Path 13037" d="M379.613,382.993a52.4,52.4,0,0,1-6.107-.237c-1.234-.206-9.714-1.788-11.075-2.737a20.265,20.265,0,0,0-5.174-1.25.791.791,0,0,1-.664-.9.807.807,0,0,1,.9-.665,21.232,21.232,0,0,1,5.822,1.5,67.053,67.053,0,0,0,10.505,2.484c2.183.364,10.015.174,10.094.174a.791.791,0,1,1,0,1.582C383.726,382.946,381.812,382.993,379.613,382.993Z" transform="translate(-69.88 -188.285)" fill="#263238"/>
        <path id="Path_13038" data-name="Path 13038" d="M374.925,387.6a12.44,12.44,0,0,1-2.025-.111c-1.756-.4-9.983-4.414-10.917-4.873a.791.791,0,0,1-.364-1.06.807.807,0,0,1,1.06-.364,112.2,112.2,0,0,0,10.568,4.746,83.557,83.557,0,0,0,10.758-.4.791.791,0,0,1,.854.728.807.807,0,0,1-.728.854C383.342,387.263,378.09,387.6,374.925,387.6Z" transform="translate(-66.996 -186.005)" fill="#263238"/>
        <path id="Path_13039" data-name="Path 13039" d="M441.162,332.172A334.17,334.17,0,0,1,409.14,292.05s-3.56,50.786,4.193,72.46,36.246,12.657,46.261,7.12,13.59-9.7,19.745-8.733a192.828,192.828,0,0,1-38.176-30.724Z" transform="translate(-39.762 -237.849)" fill="#263238"/>
        <path id="Path_13040" data-name="Path 13040" d="M434.88,379.282a28.115,28.115,0,0,1-10-1.582,19.9,19.9,0,0,1-11.992-12.657c-7.721-21.58-4.382-70.7-4.24-72.777a.791.791,0,0,1,1.44-.38,336.376,336.376,0,0,0,31.943,40A193.585,193.585,0,0,0,480,362.48a.791.791,0,0,1-.522,1.471c-4.066-.649-7.009,1.2-11.882,4.256-2.073,1.313-4.43,2.784-7.357,4.382A57.543,57.543,0,0,1,434.88,379.282Zm-24.792-84.643c-.57,10.173-2.389,51.2,4.287,69.85a18.479,18.479,0,0,0,11.075,11.66c10.853,4.113,26.326-.728,34.079-4.968,2.9-1.582,5.221-3.053,7.262-4.335,3.86-2.436,6.708-4.224,9.951-4.572a198.064,198.064,0,0,1-35.835-29.332A334.324,334.324,0,0,1,410.088,294.7Z" transform="translate(-40.062 -238.144)" fill="#263238"/>
        <path id="Path_13041" data-name="Path 13041" d="M385.441,284.222c-11.3-13.416-4.746,2.579-4.746,2.579s21.627,20.646,43.587,22.15C424.234,308.9,396.769,297.639,385.441,284.222Z" transform="translate(-56.945 -245.526)" fill="#263238"/>
        <path id="Path_13042" data-name="Path 13042" d="M424.5,309.986h0c-21.991-1.44-43.872-22.15-44.093-22.308a.664.664,0,0,1-.174-.285c-1.424-3.481-2.769-7.911-1.139-8.828,1.092-.649,2.737,0,7.309,5.458,11.075,13.1,38.176,24.333,38.445,24.444a.807.807,0,0,1,.475.918A.791.791,0,0,1,424.5,309.986Zm-42.923-23.352c1.582,1.582,18.859,17.2,37.464,21.01-8.559-3.971-25.488-12.657-33.9-22.624-3.544-4.208-4.873-4.936-5.253-5.047a18.447,18.447,0,0,0,1.693,6.661Z" transform="translate(-57.211 -245.818)" fill="#263238"/>
      </g>
    </g>
  </g>
</svg>
