<svg xmlns="http://www.w3.org/2000/svg" xmlns:xlink="http://www.w3.org/1999/xlink" width="707.858" height="686.938" viewBox="0 0 707.858 686.938"><defs><clipPath id="a"><path d="M163.375,229.456l-57.433-18.749-5.11-13.5-11.668-.366L67.99,192.83l2.546,4.378,26.65,19.342,6.575,3.279,60.067,31.376Z" transform="translate(-67.99 -192.83)" fill="#fff" stroke="#263238" stroke-miterlimit="10" stroke-width="1.004"/></clipPath><clipPath id="b"><path d="M93.822,196.739l-5.476-3.279L77.41,197.471l1.814,2.18Z" transform="translate(-77.41 -193.46)" fill="#fff" stroke="#263238" stroke-linejoin="round" stroke-width="1.004"/></clipPath><clipPath id="c"><path d="M138.37,145.781s-.889,7.848,1.326,12.889,14.511,22.115,14.511,22.115l-22.952,18.4S121.731,180,119.917,176.9s-3.994-16.464,1.919-26.039S136.259,138.7,138.37,145.781Z" transform="translate(-117.978 -141.747)" fill="#fff" stroke="#263238" stroke-miterlimit="10" stroke-width="1.004"/></clipPath><clipPath id="d"><path d="M162.038,146.826c-1.413-8.72-11.406-26.458-27.26-25.778-10.29.453-15.1,2.529-19.569,5.058a57.555,57.555,0,0,0-10.116,7.569c-7.744,9.3-10.465,11.842-8.965,18.958a21.348,21.348,0,0,0,1.308,8.337c2.372,6.331,3.994,10.465,6.052,13.482-.628,2.948-2.267,10.726-2.355,12.505s5.232.541,7.918-.14c4.988,11.162,14.127,18.906,16.97,19.8,4.953,1.552,12.784-6.593,16.935-12.906s1.012-13.412,1.029-16.238,9.331-9.034,12.784-11.005S163.434,155.529,162.038,146.826Z" transform="translate(-95.733 -121.029)" fill="#fff" stroke="#263238" stroke-miterlimit="10" stroke-width="1"/></clipPath><clipPath id="e"><path d="M203.6,171.54s12.366,8.424,12.645,28.324c.122,8.72-.785,16.865-2.791,31.15s-14.459,60.8-24.156,66.45-24.749-5.023-24.749-5.023l-72.8-48.329L74.151,229.9,65.43,213.433l2.738-5.232,21.47,16.464L78.075,213.974l2.267-2.878,4.186,2.913,12.209,4.57,2.668,17.441,3.767,2.581,69.642,25.446s-.872-37.481-.227-44.649,1.535-25.185,9.209-38.248" transform="translate(-65.43 -171.54)" fill="#fff" stroke="#263238" stroke-miterlimit="10" stroke-width="1.004"/></clipPath></defs><g transform="translate(-44.73 -43.816)"><g transform="translate(44.73 43.816)"><path d="M680.28,147.039C636.887,48.1,532.729,10.842,450.547,77.275c-32.091,25.917-52.114,67.165-91.408,83.717-36.87,15.523-83.577,10.953-123.447,19.36C150.789,198.141,36.48,265.638,45.2,369.638c3.82,45.556,34.551,96.152,49.742,138.778,17.441,49.044,27.906,110.4,74.072,139.72,79.147,50.335,174.619,9.191,245.918-31.394,38.37-21.819,59.491-35.231,100.809-27.749,38.248,6.976,72.694,31.394,110.07,2.424,28.063-21.749,30.382-65.822,53.945-91.7,26.545-29.161,53.457-31.272,67.253-75.1,16.726-53.178-7.918-86.4-24.574-133.912S700.721,193.589,680.28,147.039Z" transform="translate(-44.73 -43.816)" fill="#f24405"/><g opacity="0.7"><path d="M680.28,147.039C636.887,48.1,532.729,10.842,450.547,77.275c-32.091,25.917-52.114,67.165-91.408,83.717-36.87,15.523-83.577,10.953-123.447,19.36C150.789,198.141,36.48,265.638,45.2,369.638c3.82,45.556,34.551,96.152,49.742,138.778,17.441,49.044,27.906,110.4,74.072,139.72,79.147,50.335,174.619,9.191,245.918-31.394,38.37-21.819,59.491-35.231,100.809-27.749,38.248,6.976,72.694,31.394,110.07,2.424,28.063-21.749,30.382-65.822,53.945-91.7,26.545-29.161,53.457-31.272,67.253-75.1,16.726-53.178-7.918-86.4-24.574-133.912S700.721,193.589,680.28,147.039Z" transform="translate(-44.73 -43.816)" fill="#fff"/></g></g><g transform="translate(80.484 697.163)"><ellipse cx="269.603" cy="16.796" rx="269.603" ry="16.796" fill="#f24405"/><ellipse cx="269.603" cy="16.796" rx="269.603" ry="16.796" fill="#fff" opacity="0.8"/></g><g transform="translate(247.708 75.286)"><rect width="338.861" height="640.085" rx="19.43" fill="#263238"/><rect width="308.741" height="499.51" transform="translate(15.052 70.287)" fill="#fff" stroke="#263238" stroke-miterlimit="10" stroke-width="1.337"/><circle cx="66.921" cy="66.921" r="66.921" transform="translate(74.792 225.233) rotate(-45)" fill="#f24405"/><path d="M384.878,373.117h-175.7a3,3,0,0,1-3.017-3h0a3,3,0,0,1,3.017-3.017h175.7a3,3,0,0,1,3,3.017h0A3,3,0,0,1,384.878,373.117Z" transform="translate(-127.588 165.269)" fill="#f24405"/><rect width="201.147" height="36.051" rx="4.01" transform="translate(68.857 329.775)" fill="#f24405"/><rect width="201.147" height="36.051" rx="4.01" transform="translate(68.857 397.202)" fill="#f24405"/><path d="M309.021,246.263l-19.691-11.337V225.56a30.8,30.8,0,0,0,6.052-11.808,6.349,6.349,0,0,0,2.11.366c2.442,0,3.994-7.569,4.256-12.976,2.843-6.017-1.029-9.54-1.029-9.54s1.6-1.6,2.668-8.04-3.75-3.75-7.5-9.645S289.453,161.6,277.139,161.6a16.918,16.918,0,0,0-16.081,10.186,40.741,40.741,0,0,0-9.1,1.064c-3.767,1.064-4.831,13.395-1.622,18.226a18.366,18.366,0,0,1,2.232,8.6c-.855-1.046-1.744-1.325-2.232,1.047-1.064,5.354,3.227,12.854,3.227,12.854l2.215-.628a31.394,31.394,0,0,0,6.3,12.61v9.366l-19.691,11.337a15.139,15.139,0,0,0-7.569,13.1v6.488a66.886,66.886,0,0,0,81.781,0v-6.488A15.1,15.1,0,0,0,309.021,246.263Z" transform="translate(-106.27 12.353)" fill="#263238"/><path d="M217.829,312.884a1.744,1.744,0,0,1-1.2-.506,1.622,1.622,0,0,1-.541-1.221,1.744,1.744,0,0,1,.262-.89l3.139-5.023-6.122.192a1.639,1.639,0,0,1-1.256-.471,1.744,1.744,0,0,1,0-2.32,1.587,1.587,0,0,1,1.256-.488l6.035.227-3.1-5.006a1.744,1.744,0,0,1-.262-.907,1.622,1.622,0,0,1,.541-1.221,1.744,1.744,0,0,1,1.2-.506,1.57,1.57,0,0,1,1.413.907l2.982,5.389,2.948-5.354a1.744,1.744,0,0,1,1.517-.977,1.587,1.587,0,0,1,1.169.523,1.778,1.778,0,0,1,.262,2.093l-3.157,5.058,6.122-.227a1.587,1.587,0,0,1,1.256.488,1.622,1.622,0,0,1,.453,1.151,1.744,1.744,0,0,1-.453,1.169,1.64,1.64,0,0,1-1.256.471l-6.157-.192,3.07,4.971a1.748,1.748,0,0,1-1.483,2.668,1.535,1.535,0,0,1-1.4-.942l-2.913-5.232-2.9,5.232A1.639,1.639,0,0,1,217.829,312.884Z" transform="translate(-123.491 111.404)" fill="#263238"/><path d="M234.06,312.884a1.744,1.744,0,0,1-1.2-.506,1.622,1.622,0,0,1-.541-1.221,1.745,1.745,0,0,1,.262-.89l3.139-5.023-6.1.192a1.744,1.744,0,0,1-1.273-.471,1.657,1.657,0,0,1,1.273-2.808l6.017.227-3.1-5.006a1.744,1.744,0,0,1-.262-.907,1.622,1.622,0,0,1,.541-1.221,1.744,1.744,0,0,1,1.2-.506,1.57,1.57,0,0,1,1.413.907l2.982,5.389,2.948-5.354a1.744,1.744,0,0,1,1.517-.977,1.552,1.552,0,0,1,1.169.523,1.707,1.707,0,0,1,.262,2.093l-3.157,5.058,6.139-.192a1.552,1.552,0,0,1,1.238.488,1.622,1.622,0,0,1,.454,1.151,1.744,1.744,0,0,1-.453,1.169,1.6,1.6,0,0,1-1.238.471l-6.174-.192,3.07,4.971a1.748,1.748,0,0,1-1.482,2.668,1.535,1.535,0,0,1-1.4-.942l-2.913-5.232-2.9,5.232A1.64,1.64,0,0,1,234.06,312.884Z" transform="translate(-111.432 111.404)" fill="#263238"/><path d="M250.29,312.884a1.744,1.744,0,0,1-1.221-.506,1.622,1.622,0,0,1-.541-1.221,1.744,1.744,0,0,1,.262-.89l3.139-5.023-6.1.192a1.657,1.657,0,0,1-1.273-2.791,1.64,1.64,0,0,1,1.273-.488l6.017.227-3.1-5.006a1.749,1.749,0,0,1,1.5-2.634,1.57,1.57,0,0,1,1.4.907l2.982,5.389,2.948-5.354a1.744,1.744,0,0,1,1.517-.977,1.552,1.552,0,0,1,1.169.523,1.707,1.707,0,0,1,.262,2.093l-3.157,5.058,6.139-.227a1.587,1.587,0,0,1,1.744,1.639,1.744,1.744,0,0,1-.436,1.169,1.639,1.639,0,0,1-1.256.471l-6.157-.192,3.052,4.971a1.694,1.694,0,0,1-.279,2.145,1.64,1.64,0,0,1-1.186.523,1.518,1.518,0,0,1-1.378-.942l-2.93-5.232-2.9,5.232a1.622,1.622,0,0,1-1.483.942Z" transform="translate(-99.355 111.404)" fill="#263238"/><path d="M266.506,312.884a1.757,1.757,0,0,1-1.744-1.727,1.639,1.639,0,0,1,.244-.89l3.139-5.023-6.1.192a1.643,1.643,0,1,1,0-3.279l6.035.227-3.087-5.006a1.749,1.749,0,0,1,1.5-2.634,1.57,1.57,0,0,1,1.413.907l2.965,5.389,2.948-5.354a1.744,1.744,0,0,1,1.517-.977,1.552,1.552,0,0,1,1.169.523,1.707,1.707,0,0,1,.262,2.093l-3.157,5.058,6.139-.227a1.587,1.587,0,0,1,1.744,1.639,1.744,1.744,0,0,1-.436,1.169,1.64,1.64,0,0,1-1.256.471l-6.157-.192,3.052,4.971a1.743,1.743,0,0,1,.262.924,1.622,1.622,0,0,1-.541,1.221,1.64,1.64,0,0,1-1.186.523,1.518,1.518,0,0,1-1.378-.942l-2.93-5.232-2.9,5.232a1.622,1.622,0,0,1-1.517.942Z" transform="translate(-87.283 111.404)" fill="#263238"/><path d="M282.726,312.884a1.729,1.729,0,0,1-1.482-2.616l3.122-5.023-6.1.192a1.643,1.643,0,1,1,0-3.279l6.035.227-3.1-5.006a1.736,1.736,0,0,1,1.482-2.634,1.57,1.57,0,0,1,1.413.907l2.965,5.389L290,295.687a1.744,1.744,0,0,1,1.517-.977,1.587,1.587,0,0,1,1.186.523,1.732,1.732,0,0,1,.244,2.093l-3.157,5.058,6.139-.227a1.587,1.587,0,0,1,1.744,1.639,1.744,1.744,0,0,1-.436,1.169,1.639,1.639,0,0,1-1.256.471l-6.157-.192,3.052,4.971a1.744,1.744,0,0,1,.262.924,1.622,1.622,0,0,1-.541,1.221,1.64,1.64,0,0,1-1.186.523,1.518,1.518,0,0,1-1.378-.942l-2.93-5.232-2.9,5.232a1.622,1.622,0,0,1-1.482.942Z" transform="translate(-75.213 111.404)" fill="#263238"/><path d="M298.959,312.884a1.744,1.744,0,0,1-1.2-.506,1.621,1.621,0,0,1-.541-1.221,1.744,1.744,0,0,1,.262-.89l3.122-5.023-6.1.192a1.643,1.643,0,0,1-1.273-2.791,1.587,1.587,0,0,1,1.256-.488l6.035.227-3.1-5.006a1.736,1.736,0,0,1,1.482-2.634,1.57,1.57,0,0,1,1.413.907l2.965,5.389,2.965-5.354a1.744,1.744,0,0,1,1.5-.977,1.587,1.587,0,0,1,1.186.523,1.778,1.778,0,0,1,.262,2.093l-3.157,5.058,6.122-.227a1.587,1.587,0,0,1,1.256.488,1.622,1.622,0,0,1,.454,1.151,1.744,1.744,0,0,1-.454,1.169,1.64,1.64,0,0,1-1.256.471l-6.157-.192,3.052,4.971a1.766,1.766,0,0,1-1.465,2.668,1.518,1.518,0,0,1-1.378-.942l-2.93-5.232-2.9,5.232a1.622,1.622,0,0,1-1.413.942Z" transform="translate(-63.157 111.404)" fill="#263238"/><rect width="308.741" height="19.342" transform="translate(15.052 70.95)" fill="#f24405"/><path d="M308.1,86.009H240.95a4.57,4.57,0,0,1-4.569-4.57h0a4.57,4.57,0,0,1,4.57-4.57H308.1a4.57,4.57,0,0,1,4.57,4.57h0A4.57,4.57,0,0,1,308.1,86.009Z" transform="translate(-105.102 -50.691)" fill="#f24405" stroke="#263238" stroke-linecap="round" stroke-linejoin="round" stroke-width="1.337"/><path d="M284.376,412.56a18.313,18.313,0,1,0-18.3,18.3A18.313,18.313,0,0,0,284.376,412.56Z" transform="translate(-96.641 185.457)" fill="#f24405"/><rect width="18.557" height="18.557" transform="translate(160.161 588.739)" fill="#f24405" stroke="#263238" stroke-linecap="round" stroke-linejoin="round" stroke-width="1.337"/></g><g transform="translate(558.832 381.09)"><path d="M418.859,318.827s-24.313-61.776-2.668-69.119c22.534-7.657,21.54,33.138,20.668,53.021-1.831,42.486-6.523,50.387-10.029,40.01Zm-7.308,48.19c6.68,8.721,8.564-.314-3.488-41.108-5.651-19.185-17.929-57.991-36.766-43.428-18.086,13.953,24.958,64.532,24.958,64.532Zm-12.906,35.405c6.366,5.651,6.488-1.482-8.633-30.94-7.1-13.8-22.115-41.719-34.411-27.906-11.808,13.325,28.429,45.713,28.429,45.713Zm-13.953,42.1c6.366,5.668,6.488-1.483-8.633-30.923-7.1-13.8-22.115-41.736-34.411-27.906-11.738,13.36,28.377,45.748,28.377,45.748Zm40.289-85.705c-10.186,3.977-2.093,8.3,40.446,8.18,19.953,0,60.695-.907,52.009-23.074-8.319-21.3-68.909,5.825-68.909,5.825Zm-11.6,28.324c-10.779,1.866-3.7,7.726,38.021,16.063,19.551,3.924,59.648,11.162,55.55-12.209-3.924-22.534-68.7-7.988-68.7-7.988Zm-12.976,34.586c-9.174,1.326-3.314,6.436,31.76,14.459,16.447,3.767,50.2,10.831,47.265-9.1-2.791-19.185-57.9-8.337-57.9-8.337Zm-9.854,32.039c-8.982,2.285-2.616,6.75,33.138,11.005,16.743,1.988,51.05,5.442,46.044-14.075-4.831-18.732-58.48-2.145-58.48-2.145ZM443.12,324.059c-5.232,11.72,5.633,9.941,42.574-22.29,17.3-15.121,52.009-46.759,24.522-62.509-26.388-15.139-54.765,57.9-54.765,57.9ZM391.913,495.5c-5.529,3.227-.1,4.482,25.255-.576,11.895-2.355,36.085-7.587,27.906-17.912C437.155,467.076,404.715,488,404.715,488Z" transform="translate(-339.496 -237.196)" fill="#f24405"/><path d="M418.859,318.827s-24.313-61.776-2.668-69.119c22.534-7.657,21.54,33.138,20.668,53.021-1.831,42.486-6.523,50.387-10.029,40.01Zm-7.308,48.19c6.68,8.721,8.564-.314-3.488-41.108-5.651-19.185-17.929-57.991-36.766-43.428-18.086,13.953,24.958,64.532,24.958,64.532Zm-12.906,35.405c6.366,5.651,6.488-1.482-8.633-30.94-7.1-13.8-22.115-41.719-34.411-27.906-11.808,13.325,28.429,45.713,28.429,45.713Zm-13.953,42.1c6.366,5.668,6.488-1.483-8.633-30.923-7.1-13.8-22.115-41.736-34.411-27.906-11.738,13.36,28.377,45.748,28.377,45.748Zm40.289-85.705c-10.186,3.977-2.093,8.3,40.446,8.18,19.953,0,60.695-.907,52.009-23.074-8.319-21.3-68.909,5.825-68.909,5.825Zm-11.6,28.324c-10.779,1.866-3.7,7.726,38.021,16.063,19.551,3.924,59.648,11.162,55.55-12.209-3.924-22.534-68.7-7.988-68.7-7.988Zm-12.976,34.586c-9.174,1.326-3.314,6.436,31.76,14.459,16.447,3.767,50.2,10.831,47.265-9.1-2.791-19.185-57.9-8.337-57.9-8.337Zm-9.854,32.039c-8.982,2.285-2.616,6.75,33.138,11.005,16.743,1.988,51.05,5.442,46.044-14.075-4.831-18.732-58.48-2.145-58.48-2.145ZM443.12,324.059c-5.232,11.72,5.633,9.941,42.574-22.29,17.3-15.121,52.009-46.759,24.522-62.509-26.388-15.139-54.765,57.9-54.765,57.9ZM391.913,495.5c-5.529,3.227-.1,4.482,25.255-.576,11.895-2.355,36.085-7.587,27.906-17.912C437.155,467.076,404.715,488,404.715,488Z" transform="translate(-339.496 -237.196)" fill="#fff" opacity="0.3"/><path d="M418.132,336.172l-4.238-70.514m-9.174,93.78L377.93,298.8m95.926,43.01-64.2,9.209m-18.819,41.108-34.76-44.6m40.864,30.923,47.893,2.407M385.6,412.651l36.626,3.628m-45.469,18.1-18.191-27.365m16.1,37.027,43.062.4m-51.782,80.386a1.1,1.1,0,0,0,1.012-1.169c-2.738-41.126,13.168-108.483,38.684-163.771,16.307-35.336,80.229-104.786,80.909-105.483a1.1,1.1,0,0,0,0-1.552,1.081,1.081,0,0,0-1.535,0c-.645.7-64.828,70.409-81.275,106.059C377.756,415.546,362.059,481.682,364.85,523.8a1.116,1.116,0,0,0,1.1,1.029Zm52.166-187.578a1.1,1.1,0,0,0,1.029-1.151l-4.168-70.549a1.081,1.081,0,0,0-1.151-1.029,1.1,1.1,0,0,0-1.029,1.151l4.238,70.514a1.081,1.081,0,0,0,1.081,1.029ZM405.1,360.432a1.1,1.1,0,0,0,.558-1.43L378.855,298.36a1.086,1.086,0,0,0-1.988.872l26.789,60.642a1.1,1.1,0,0,0,.994.663,1.083,1.083,0,0,0,.523-.1Zm4.639-8.372,64.165-9.174a1.1,1.1,0,1,0-.3-2.163L409.446,349.9a1.084,1.084,0,1,0,.139,2.163Zm-18.3,40.934a1.1,1.1,0,0,0,.192-1.535l-34.777-44.684a1.1,1.1,0,1,0-1.744,1.343l34.847,44.754a1.081,1.081,0,0,0,.855.419,1.1,1.1,0,0,0,.7-.3Zm54.346-12.087a1.1,1.1,0,0,0-1.047-1.134l-47.806-2.424a1.1,1.1,0,0,0-.1,2.18l47.893,2.424h0a1.1,1.1,0,0,0,1.134-1.047Zm-22.551,35.475a1.081,1.081,0,0,0-.977-1.2l-36.626-3.61a1.081,1.081,0,0,0-1.186.977,1.1,1.1,0,0,0,.977,1.186l36.626,3.628h.1a1.081,1.081,0,0,0,1.151-.977Zm-45.957,18.906a1.1,1.1,0,0,0,.314-1.517l-18.1-27.365a1.116,1.116,0,0,0-1.517-.3,1.1,1.1,0,0,0-.314,1.517l18.1,27.365a1.134,1.134,0,0,0,.924.488,1.047,1.047,0,0,0,.663-.192Zm41.544,9.156a1.116,1.116,0,0,0-1.081-1.1l-43.062-.4h0a1.081,1.081,0,0,0-1.081,1.081,1.064,1.064,0,0,0,1.081,1.1l43.062.4h0a1.1,1.1,0,0,0,1.151-1.081Zm-57.782,64.392c.087-.192,7.43-20.423,29.51-25.255a1.1,1.1,0,0,0,.837-1.308,1.116,1.116,0,0,0-1.308-.82c-23.284,5.093-31.01,26.458-31.1,26.667a1.116,1.116,0,0,0,.68,1.4h.349a1.081,1.081,0,0,0,1.1-.68Zm4.9,15.993a1.1,1.1,0,0,0,1.012-1.169c-2.738-41.126,13.168-108.483,38.684-163.771,16.307-35.336,80.229-104.786,80.909-105.483a1.1,1.1,0,0,0,0-1.552,1.081,1.081,0,0,0-1.535,0c-.645.7-64.828,70.409-81.275,106.059C377.756,415.546,362.059,481.682,364.85,523.8a1.116,1.116,0,0,0,1.1,1.029Zm52.166-187.578a1.1,1.1,0,0,0,1.029-1.151l-4.168-70.549a1.081,1.081,0,0,0-1.151-1.029,1.1,1.1,0,0,0-1.029,1.151l4.238,70.514a1.081,1.081,0,0,0,1.081,1.029ZM405.1,360.432a1.1,1.1,0,0,0,.558-1.43L378.855,298.36a1.086,1.086,0,0,0-1.988.872l26.789,60.642a1.1,1.1,0,0,0,.994.663,1.082,1.082,0,0,0,.523-.1Zm4.639-8.372,64.165-9.174a1.1,1.1,0,1,0-.3-2.163L409.446,349.9a1.084,1.084,0,1,0,.14,2.163Zm-18.3,40.934a1.1,1.1,0,0,0,.192-1.535l-34.777-44.684a1.1,1.1,0,1,0-1.744,1.343l34.847,44.754a1.081,1.081,0,0,0,.855.419,1.1,1.1,0,0,0,.7-.3Zm54.346-12.087a1.1,1.1,0,0,0-1.047-1.134l-47.806-2.424a1.1,1.1,0,0,0-.1,2.18l47.893,2.424h0a1.1,1.1,0,0,0,1.134-1.047Zm-22.551,35.475a1.081,1.081,0,0,0-.977-1.2l-36.626-3.61a1.081,1.081,0,0,0-1.186.977,1.1,1.1,0,0,0,.977,1.186l36.626,3.628h.1a1.081,1.081,0,0,0,1.151-.977Zm-45.957,18.906a1.1,1.1,0,0,0,.314-1.517l-18.1-27.365a1.116,1.116,0,0,0-1.517-.3,1.1,1.1,0,0,0-.314,1.517l18.1,27.365a1.134,1.134,0,0,0,.924.488,1.047,1.047,0,0,0,.663-.192Zm41.544,9.156a1.116,1.116,0,0,0-1.081-1.1l-43.062-.4h0a1.081,1.081,0,0,0-1.081,1.081,1.064,1.064,0,0,0,1.081,1.1l43.062.4h0a1.1,1.1,0,0,0,1.151-1.081Zm-57.782,64.392c.087-.192,7.43-20.423,29.51-25.255a1.1,1.1,0,0,0,.837-1.308,1.116,1.116,0,0,0-1.308-.82c-23.284,5.093-31.01,26.458-31.1,26.667a1.116,1.116,0,0,0,.68,1.4h.349a1.081,1.081,0,0,0,1.1-.68Z" transform="translate(-328.043 -225.78)" fill="#f24405"/><path d="M418.132,336.172l-4.238-70.514m-9.174,93.78L377.93,298.8m95.926,43.01-64.2,9.209m-18.819,41.108-34.76-44.6m40.864,30.923,47.893,2.407M385.6,412.651l36.626,3.628m-45.469,18.1-18.191-27.365m16.1,37.027,43.062.4m-51.782,80.386a1.1,1.1,0,0,0,1.012-1.169c-2.738-41.126,13.168-108.483,38.684-163.771,16.307-35.336,80.229-104.786,80.909-105.483a1.1,1.1,0,0,0,0-1.552,1.081,1.081,0,0,0-1.535,0c-.645.7-64.828,70.409-81.275,106.059C377.756,415.546,362.059,481.682,364.85,523.8a1.116,1.116,0,0,0,1.1,1.029Zm52.166-187.578a1.1,1.1,0,0,0,1.029-1.151l-4.168-70.549a1.081,1.081,0,0,0-1.151-1.029,1.1,1.1,0,0,0-1.029,1.151l4.238,70.514a1.081,1.081,0,0,0,1.081,1.029ZM405.1,360.432a1.1,1.1,0,0,0,.558-1.43L378.855,298.36a1.086,1.086,0,0,0-1.988.872l26.789,60.642a1.1,1.1,0,0,0,.994.663,1.083,1.083,0,0,0,.523-.1Zm4.639-8.372,64.165-9.174a1.1,1.1,0,1,0-.3-2.163L409.446,349.9a1.084,1.084,0,1,0,.139,2.163Zm-18.3,40.934a1.1,1.1,0,0,0,.192-1.535l-34.777-44.684a1.1,1.1,0,1,0-1.744,1.343l34.847,44.754a1.081,1.081,0,0,0,.855.419,1.1,1.1,0,0,0,.7-.3Zm54.346-12.087a1.1,1.1,0,0,0-1.047-1.134l-47.806-2.424a1.1,1.1,0,0,0-.1,2.18l47.893,2.424h0a1.1,1.1,0,0,0,1.134-1.047Zm-22.551,35.475a1.081,1.081,0,0,0-.977-1.2l-36.626-3.61a1.081,1.081,0,0,0-1.186.977,1.1,1.1,0,0,0,.977,1.186l36.626,3.628h.1a1.081,1.081,0,0,0,1.151-.977Zm-45.957,18.906a1.1,1.1,0,0,0,.314-1.517l-18.1-27.365a1.116,1.116,0,0,0-1.517-.3,1.1,1.1,0,0,0-.314,1.517l18.1,27.365a1.134,1.134,0,0,0,.924.488,1.047,1.047,0,0,0,.663-.192Zm41.544,9.156a1.116,1.116,0,0,0-1.081-1.1l-43.062-.4h0a1.081,1.081,0,0,0-1.081,1.081,1.064,1.064,0,0,0,1.081,1.1l43.062.4h0a1.1,1.1,0,0,0,1.151-1.081Zm-57.782,64.392c.087-.192,7.43-20.423,29.51-25.255a1.1,1.1,0,0,0,.837-1.308,1.116,1.116,0,0,0-1.308-.82c-23.284,5.093-31.01,26.458-31.1,26.667a1.116,1.116,0,0,0,.68,1.4h.349a1.081,1.081,0,0,0,1.1-.68Zm4.9,15.993a1.1,1.1,0,0,0,1.012-1.169c-2.738-41.126,13.168-108.483,38.684-163.771,16.307-35.336,80.229-104.786,80.909-105.483a1.1,1.1,0,0,0,0-1.552,1.081,1.081,0,0,0-1.535,0c-.645.7-64.828,70.409-81.275,106.059C377.756,415.546,362.059,481.682,364.85,523.8a1.116,1.116,0,0,0,1.1,1.029Zm52.166-187.578a1.1,1.1,0,0,0,1.029-1.151l-4.168-70.549a1.081,1.081,0,0,0-1.151-1.029,1.1,1.1,0,0,0-1.029,1.151l4.238,70.514a1.081,1.081,0,0,0,1.081,1.029ZM405.1,360.432a1.1,1.1,0,0,0,.558-1.43L378.855,298.36a1.086,1.086,0,0,0-1.988.872l26.789,60.642a1.1,1.1,0,0,0,.994.663,1.082,1.082,0,0,0,.523-.1Zm4.639-8.372,64.165-9.174a1.1,1.1,0,1,0-.3-2.163L409.446,349.9a1.084,1.084,0,1,0,.14,2.163Zm-18.3,40.934a1.1,1.1,0,0,0,.192-1.535l-34.777-44.684a1.1,1.1,0,1,0-1.744,1.343l34.847,44.754a1.081,1.081,0,0,0,.855.419,1.1,1.1,0,0,0,.7-.3Zm54.346-12.087a1.1,1.1,0,0,0-1.047-1.134l-47.806-2.424a1.1,1.1,0,0,0-.1,2.18l47.893,2.424h0a1.1,1.1,0,0,0,1.134-1.047Zm-22.551,35.475a1.081,1.081,0,0,0-.977-1.2l-36.626-3.61a1.081,1.081,0,0,0-1.186.977,1.1,1.1,0,0,0,.977,1.186l36.626,3.628h.1a1.081,1.081,0,0,0,1.151-.977Zm-45.957,18.906a1.1,1.1,0,0,0,.314-1.517l-18.1-27.365a1.116,1.116,0,0,0-1.517-.3,1.1,1.1,0,0,0-.314,1.517l18.1,27.365a1.134,1.134,0,0,0,.924.488,1.047,1.047,0,0,0,.663-.192Zm41.544,9.156a1.116,1.116,0,0,0-1.081-1.1l-43.062-.4h0a1.081,1.081,0,0,0-1.081,1.081,1.064,1.064,0,0,0,1.081,1.1l43.062.4h0a1.1,1.1,0,0,0,1.151-1.081Zm-57.782,64.392c.087-.192,7.43-20.423,29.51-25.255a1.1,1.1,0,0,0,.837-1.308,1.116,1.116,0,0,0-1.308-.82c-23.284,5.093-31.01,26.458-31.1,26.667a1.116,1.116,0,0,0,.68,1.4h.349a1.081,1.081,0,0,0,1.1-.68Z" transform="translate(-328.043 -225.78)" opacity="0.2"/><path d="M398.625,391.03H349.25v10.22h4.308l8.912,55.759h22.935l8.912-55.759h4.308Z" transform="translate(-332.239 -122.727)" fill="#f24405"/><path d="M398.625,391.03H349.25v10.22h4.308l8.912,55.759h22.935l8.912-55.759h4.308Z" transform="translate(-332.239 -122.727)" fill="#fff" opacity="0.3"/></g><g transform="translate(71.904 166.276)"><path d="M163.375,229.456l-57.433-18.749-5.11-13.5-11.668-.366L67.99,192.83l2.546,4.378,26.65,19.342,6.575,3.279,60.067,31.376Z" transform="translate(-54.596 -55.395)" fill="#fff" stroke="#263238" stroke-miterlimit="10" stroke-width="1.004"/><path d="M93.822,196.739l-5.476-3.279L77.41,197.471l1.814,2.18Z" transform="translate(-47.586 -54.926)" fill="#fff" stroke="#263238" stroke-linejoin="round" stroke-width="1.004"/><path d="M163.375,229.456l-57.433-18.749-5.11-13.5-11.668-.366L67.99,192.83l2.546,4.378,26.65,19.342,6.575,3.279,60.067,31.376Z" transform="translate(-54.596 -55.395)" fill="#fff"/><g transform="translate(13.394 137.435)" clip-path="url(#a)"><path d="M163.375,229.456l-57.433-18.749-5.11-13.5-11.668-.366L67.99,192.83l2.546,4.378,26.65,19.342,6.575,3.279,60.067,31.376Z" transform="translate(-67.99 -192.83)" fill="#f24405" stroke="#263238" stroke-miterlimit="10" stroke-width="1.004" opacity="0.5"/></g><path d="M163.375,229.456l-57.433-18.749-5.11-13.5-11.668-.366L67.99,192.83l2.546,4.378,26.65,19.342,6.575,3.279,60.067,31.376Z" transform="translate(-54.596 -55.395)" fill="none" stroke="#263238" stroke-miterlimit="10" stroke-width="1.004"/><path d="M93.822,196.739l-5.476-3.279L77.41,197.471l1.814,2.18Z" transform="translate(-47.586 -54.926)" fill="#fff"/><g transform="translate(29.824 138.534)" clip-path="url(#b)"><path d="M93.822,196.739l-5.476-3.279L77.41,197.471l1.814,2.18Z" transform="translate(-77.41 -193.46)" fill="#f24405" stroke="#263238" stroke-linejoin="round" stroke-width="1.004" opacity="0.5"/></g><path d="M93.822,196.739l-5.476-3.279L77.41,197.471l1.814,2.18Z" transform="translate(-47.586 -54.926)" fill="none" stroke="#263238" stroke-linejoin="round" stroke-width="1.004"/><path d="M138.37,145.781s-.889,7.848,1.326,12.889,14.511,22.115,14.511,22.115l-22.952,18.4S121.731,180,119.917,176.9s-3.994-16.464,1.919-26.039S136.259,138.7,138.37,145.781Z" transform="translate(-17.4 -93.406)" fill="#fff"/><g transform="translate(100.579 48.341)" clip-path="url(#c)"><path d="M125.194,158.52l9.959,20.65-5.3,7.552L119.84,168.845Z" transform="translate(-116.593 -129.266)" fill="#f24405" opacity="0.5"/></g><path d="M138.37,145.781s-.889,7.848,1.326,12.889,14.511,22.115,14.511,22.115l-22.952,18.4S121.731,180,119.917,176.9s-3.994-16.464,1.919-26.039S136.259,138.7,138.37,145.781Z" transform="translate(-17.4 -93.406)" fill="none" stroke="#263238" stroke-miterlimit="10" stroke-width="1.004"/><path d="M162.038,146.826c-1.413-8.72-11.406-26.458-27.26-25.778-10.29.453-15.1,2.529-19.569,5.058a57.555,57.555,0,0,0-10.116,7.569c-7.744,9.3-10.465,11.842-8.965,18.958a21.348,21.348,0,0,0,1.308,8.337c2.372,6.331,3.994,10.465,6.052,13.482-.628,2.948-2.267,10.726-2.355,12.505s5.232.541,7.918-.14c4.988,11.162,14.127,18.906,16.97,19.8,4.953,1.552,12.784-6.593,16.935-12.906s1.012-13.412,1.029-16.238,9.331-9.034,12.784-11.005S163.434,155.529,162.038,146.826Z" transform="translate(-33.952 -108.822)" fill="#fff"/><g transform="translate(61.781 12.207)" clip-path="url(#d)"><path d="M96.174,149.128a21.348,21.348,0,0,0,1.308,8.337c2.372,6.331,3.994,10.465,6.052,13.482-.628,2.948-2.267,10.726-2.355,12.505s5.232.541,7.918-.14c4.988,11.162,14.127,18.906,16.97,19.8,4.953,1.552,12.784-6.593,16.935-12.906a12.714,12.714,0,0,0,1.971-5.232c-.227-.82-.384-1.326-.384-1.326s-2.337,8.982-6.976,7.814-11.738-10.465-15.7-13.674-2.337-7.43-3.122-12.209-12.505-8.982-13.29-11.72,1.953-14.075,1.953-14.075,4.447-5.93,3.488-3.488a16.6,16.6,0,0,0,1.169,12.889,8.9,8.9,0,0,0,8.215,5.075l4.256-21.086-8.982-7.43-10.465,4.36C97.325,139.466,94.656,142.012,96.174,149.128Z" transform="translate(-95.708 -117.524)" fill="#f24405" opacity="0.5"/></g><path d="M162.038,146.826c-1.413-8.72-11.406-26.458-27.26-25.778-10.29.453-15.1,2.529-19.569,5.058a57.555,57.555,0,0,0-10.116,7.569c-7.744,9.3-10.465,11.842-8.965,18.958a21.348,21.348,0,0,0,1.308,8.337c2.372,6.331,3.994,10.465,6.052,13.482-.628,2.948-2.267,10.726-2.355,12.505s5.232.541,7.918-.14c4.988,11.162,14.127,18.906,16.97,19.8,4.953,1.552,12.784-6.593,16.935-12.906s1.012-13.412,1.029-16.238,9.331-9.034,12.784-11.005S163.434,155.529,162.038,146.826Z" transform="translate(-33.952 -108.822)" fill="none" stroke="#263238" stroke-miterlimit="10" stroke-width="1"/><path d="M101.42,148.64l1.744,4.988s3.75,1.238,8.319-3.75" transform="translate(-29.721 -88.277)" fill="none" stroke="#263238" stroke-linecap="round" stroke-miterlimit="10" stroke-width="1"/><path d="M108.81,164.664s4.151-.419,5.825-6.244" transform="translate(-24.222 -80.999)" fill="none" stroke="#263238" stroke-linecap="round" stroke-miterlimit="10" stroke-width="1"/><path d="M99.75,147.85s1.238-3.75,8.721-3.75" transform="translate(-30.963 -91.655)" fill="none" stroke="#263238" stroke-linecap="round" stroke-miterlimit="10" stroke-width="1"/><path d="M147.236,119.315a123.935,123.935,0,0,0-16.412-1.256s-16.429-9.47-32.214.628-8.2,27.784-8.2,32.2-5.058,4.43-1.9,10.116,13.831,2.546,13.831,2.546a15.174,15.174,0,0,1,5.7-11.075c5.686-4.413,10.22-5.372,12.1-4.1,0,0-1.256,9.47.628,13.255,0,0,6.314,3.157,8.215,3.157s-1.238,2.668,5.058,5.04a7.883,7.883,0,0,0,6.976-.82c.924-3.837,2.948-9.61,6.715-8.267,5.529,1.971,10.569,15.575,3.087,20.214,9,1.639,19.9-14.284,20.546-28.8S156.585,120.954,147.236,119.315Z" transform="translate(-40.097 -114.03)" fill="#263238"/><path d="M106.37,130.4s4.639-2.494,10.325,2.843,16.743,12.47,31.394,8.546" transform="translate(-26.037 -102.283)" fill="none" stroke="#fff" stroke-linecap="round" stroke-linejoin="round" stroke-width="0.5"/><path d="M106,129.828s3.192-4.988,8.529-4.988,17.807,7.482,27.766,7.482" transform="translate(-26.313 -105.986)" fill="none" stroke="#fff" stroke-linecap="round" stroke-linejoin="round" stroke-width="0.5"/><path d="M110.3,134.822s-6.052-7.465-11.738-1.413-2.075,11.773-2.075,11.773" transform="translate(-34.236 -101.37)" fill="none" stroke="#fff" stroke-linecap="round" stroke-linejoin="round" stroke-width="0.5"/><path d="M90.05,145.815a18.487,18.487,0,0,0,6.035-12.1c.715-7.831,11.406-14.6,18.156-8.18" transform="translate(-38.181 -107.374)" fill="none" stroke="#fff" stroke-linecap="round" stroke-linejoin="round" stroke-width="0.5"/><path d="M96.37,121.382s10.691-10.325,19.586,2.843" transform="translate(-33.478 -111.423)" fill="none" stroke="#fff" stroke-linecap="round" stroke-linejoin="round" stroke-width="0.5"/><path d="M170.781,410.81s6.575,10.22,5.843,16.8l-.715,6.575s-24.121,6.61-29.231,6.61-32.161-2.564-32.161-2.564l-1.169-4.639a1.535,1.535,0,0,1,.837-1.744l24.121-11.249,7.6-8.319Z" transform="translate(-20.876 106.804)" fill="#fff" stroke="#263238" stroke-miterlimit="10" stroke-width="1.004"/><path d="M150.181,427.625c6.54.506,18.958-3.488,26.162-6.035l-.506,4.57s-24.208,6.61-29.318,6.61-32.161-2.564-32.161-2.564l-.837-3.314C117.845,426.91,141.53,426.962,150.181,427.625Z" transform="translate(-20.717 114.826)" fill="#f24405" stroke="#263238" stroke-miterlimit="10" stroke-width="1.004"/><path d="M143.208,416.751,108.1,432.029s-3,7.517,0,9.017,68.4,0,68.4,0,4.517-11.877-2.616-19.848S143.208,416.751,143.208,416.751Z" transform="translate(-25.743 110.648)" fill="#fff" stroke="#263238" stroke-miterlimit="10" stroke-width="1.004"/><path d="M176.5,432.419s-65.4,1.5-68.4,0c-1.448-.733-1.5-2.843-1.169-4.849h70.723a26.6,26.6,0,0,1-1.151,4.849Z" transform="translate(-25.744 119.275)" fill="#f24405" stroke="#263238" stroke-miterlimit="10" stroke-width="1.004"/><path d="M125.637,266.9s-9.174,40.655-12.645,66.084-5.511,76.374-4.779,82.217,37.254,103.739,37.254,103.739l3.645,8.721,25.569-5.11S163,485.292,158.618,464.834s-13.953-54.067-13.953-59.91,22.673-117.43,24.3-124.755,8.982-18.575,8.982-18.575l-48.957-.994Z" transform="translate(-24.776 -4.967)" fill="#f24405" stroke="#263238" stroke-miterlimit="10" stroke-width="1.004"/><path d="M119.715,269.581s-5.372,37.132-3.157,62.945,6.976,80.769,6.976,88.949,13.2,57.032,13.953,72.38c1.169,22.168-.471,33.138-.471,33.138l-.785,8.04s15.4,2.2,18.767,3.157a41.684,41.684,0,0,0,11.912,1.291s5.6-24.644,5.6-45.643-4.657-64.218-6.976-81.729,4.988-85.06,9.139-97.67,13.22-39.312,7.116-52.951S119.715,269.581,119.715,269.581Z" transform="translate(-18.855 -7.652)" fill="#f24405" stroke="#263238" stroke-miterlimit="10" stroke-width="1.004"/><path d="M189.628,255.65l-.558,16.6s-9.941,1.971-23.336,4.29c-11.058,1.919-38.824-.506-48.172-1.413a3.244,3.244,0,0,1-2.948-3.488l.907-15Z" transform="translate(-19.91 -8.65)" fill="#263238"/><path d="M150.484,160.75s-15.7,16.97-21.609,27.522-8.25,26.72-10.465,39.452,3.785,42.626,2.093,56.352l-5.354,43.236s-1.151,2.93,2.7,6.139,22.673,4.378,39.678,5.232c6.209.314,24.749-3.68,27.784-3.872,3.663-.227,3.785-4.883,3.942-8.546.733-17.214,3.837-63.1,5.878-83.089C199.336,202.417,176.332,163.07,150.484,160.75Z" transform="translate(-19.625 -79.265)" fill="#fff" stroke="#263238" stroke-miterlimit="10" stroke-width="1.004"/><path d="M191.9,235.654c.7-9.052,1.4-17.267,2.006-23.179.174-1.744.279-3.488.366-5.232l-41.7,6.976L116.75,202.01a198.452,198.452,0,0,0,1.256,22.185l35.144,9.837Z" transform="translate(-18.314 -48.564)" fill="#f24405"/><path d="M139.383,161.73c-2.372,2.634-7.081,7.988-11.563,13.674L154.3,202.315l8.72-3.488Z" transform="translate(-10.076 -78.536)" fill="#f24405"/><path d="M146.368,160.75s-15.7,16.97-21.609,27.522a53.526,53.526,0,0,0-4.238,10.081l31.568-36.469A29.653,29.653,0,0,0,146.368,160.75Z" transform="translate(-15.508 -79.265)" fill="#263238"/><path d="M117.65,205.382,151.9,216.649l41.6-4.779a97.547,97.547,0,0,0-6.819-30.19l-33.539,13.447L123.161,181.54a157.79,157.79,0,0,0-5.511,23.842Z" transform="translate(-17.644 -63.796)" fill="#f24405"/><path d="M178.263,248.808a106.059,106.059,0,0,1-51.87-4.238l-8.354-2.86-2.6,20.929,9.523,2.668a143.592,143.592,0,0,0,55.689,4.29l7.691-.924a6.976,6.976,0,0,0,.663-2.7c.209-4.657.576-11.424,1.046-19.185Z" transform="translate(-19.288 -19.023)" fill="#f24405"/><path d="M181.394,232.811a105.658,105.658,0,0,1-51.87-4.256l-10.639-3.645a68.718,68.718,0,0,1-.157,11.406L117.49,246.38l10.6,2.965a143.521,143.521,0,0,0,55.672,4.308l5.232-.628c.436-6.976.942-14.406,1.483-21.749Z" transform="translate(-17.763 -31.524)" fill="#f24405"/><rect width="43.271" height="2.32" transform="matrix(-0.779, -0.627, 0.627, -0.779, 33.723, 154.646)" fill="#263238"/><path d="M203.6,171.54s12.366,8.424,12.645,28.324c.122,8.72-.785,16.865-2.791,31.15s-14.459,60.8-24.156,66.45-24.749-5.023-24.749-5.023l-72.8-48.329L74.151,229.9,65.43,213.433l2.738-5.232,21.47,16.464L78.075,213.974l2.267-2.878,4.186,2.913,12.209,4.57,2.668,17.441,3.767,2.581,69.642,25.446s-.872-37.481-.227-44.649,1.535-25.185,9.209-38.248" transform="translate(-56.501 -71.237)" fill="#fff"/><g transform="translate(8.929 100.303)" clip-path="url(#e)"><path d="M172.266,220.082c0,12.941.436,28.324.436,28.324L103.13,223.064l-3.767-2.581-2.668-17.441-12.209-4.57-4.168-2.965-2.267,2.878,11.529,10.639L68.109,192.56l-2.6,5.145,8.72,16.464,17.6,14.3,4.43,2.948,96.187,30.993Z" transform="translate(-65.37 -155.899)" fill="#f24405" opacity="0.5"/></g><path d="M203.6,171.54s12.366,8.424,12.645,28.324c.122,8.72-.785,16.865-2.791,31.15s-14.459,60.8-24.156,66.45-24.749-5.023-24.749-5.023l-72.8-48.329L74.151,229.9,65.43,213.433l2.738-5.232,21.47,16.464L78.075,213.974l2.267-2.878,4.186,2.913,12.209,4.57,2.668,17.441,3.767,2.581,69.642,25.446s-.872-37.481-.227-44.649,1.535-25.185,9.209-38.248" transform="translate(-56.501 -71.237)" fill="none" stroke="#263238" stroke-miterlimit="10" stroke-width="1.004"/><path d="M129.234,266.217l26.58,19.185,6.889-12.209s4.761-3.75,5.459-6.575-.192-7.412.523-10.238,4.273-5.477,4.6-12.313,0-12.54,0-12.54,5.756-23.667,5.128-33.958-10.552-28.481-18.5-28.882-18.3.8-26.318,12.941-6.383,47.579-7.639,49.794.488,13.151.488,13.151A6.122,6.122,0,0,0,124,248.985c-.14,2.843,2.93,9.837,2.93,9.837Z" transform="translate(-12.921 -73.406)" fill="#fff" stroke="#263238" stroke-miterlimit="10" stroke-width="1.004"/><path d="M126,199.41a49.219,49.219,0,0,1-.68,9.087c-1.116,1.988.157,10.97.436,12.8a103.53,103.53,0,0,0,46.236,3.488,17.25,17.25,0,0,0,.593-3.715,125.379,125.379,0,0,0,0-12.54s.506-2.11,1.2-5.319A168.34,168.34,0,0,1,126,199.41Z" transform="translate(-12.27 -50.499)" fill="#f24405"/><path d="M130.882,177.19c-2.494,5.006-3.889,12.523-4.692,20.144a103.9,103.9,0,0,0,49.724,6.052,66.519,66.519,0,0,0,.889-12.209,33.975,33.975,0,0,0-2.267-9.418,172.423,172.423,0,0,1-43.655-4.57Z" transform="translate(-11.289 -67.032)" fill="#f24405"/><path d="M125.68,220.45l2.25,7.2,26.58,19.185L161.4,234.63s4.761-3.75,5.459-6.575a7.742,7.742,0,0,0,.227-1.5,162.531,162.531,0,0,1-41.4-6.1Z" transform="translate(-11.669 -34.843)" fill="#263238"/><path d="M141.781,528.768s.593-15.1,3.488-37.184-4.064-53.439-5.232-58.672.593-16.848-.576-20.929-6.819-21.487-3.488-41.684,6.035-73.584,6.035-73.584-8.389-6.819-10.848-15.7-.576-11.668-.576-11.668" transform="translate(-8.533 1.544)" fill="none" stroke="#263238" stroke-miterlimit="10" stroke-width="1.004"/><line x1="3.227" y2="17.86" transform="translate(133.911 271.714)" fill="none" stroke="#263238" stroke-miterlimit="10" stroke-width="1.004"/></g></g></svg>