<svg xmlns="http://www.w3.org/2000/svg" xmlns:xlink="http://www.w3.org/1999/xlink" width="339.941" height="403.18" viewBox="0 0 339.941 403.18">
  <defs>
    <linearGradient id="linear-gradient" x1="0.5" x2="0.5" y2="1" gradientUnits="objectBoundingBox">
      <stop offset="0" stop-color="#fa7f08"/>
      <stop offset="1" stop-color="#f24405"/>
    </linearGradient>
  </defs>
  <g id="Group_10860" data-name="Group 10860" transform="translate(0 0)">
    <path id="Path_12847" data-name="Path 12847" d="M252.439,93.523v74.352c-.592,2.1-1.263,4.19-1.936,6.245a.17.17,0,0,0-.039.119c0,.04,0,.04-.041.079A166.651,166.651,0,0,1,143.3,279.9c-4.23,1.343-8.5,2.528-12.847,3.518a.646.646,0,0,1-.157.039,167.187,167.187,0,0,1-37.434,4.23h-1.7A118.027,118.027,0,0,0,187.728,223.3v-.041a117.837,117.837,0,0,0,3.559-99.016c-.869-4.071-1.9-8.1-3.083-12.056-.475-1.66-1.028-3.36-1.581-5.02-.316-1.028-.671-2.056-1.028-3.044-.435-1.186-.83-2.411-1.343-3.6-.316-.83-.633-1.7-.99-2.569-.633-1.581-1.3-3.2-1.975-4.822-.792-1.779-1.543-3.558-2.412-5.3-.473-.949-.91-1.858-1.422-2.806-.4-.909-.91-1.858-1.383-2.767s-.99-1.9-1.543-2.846c-.712-1.423-1.54-2.767-2.332-4.111-1.067-1.858-2.214-3.676-3.32-5.494-.118-.04-.118-.079-.159-.2-1.185-1.858-2.41-3.716-3.716-5.455-1.224-1.818-2.528-3.637-3.911-5.376-1.306-1.739-2.649-3.518-4.112-5.218a.867.867,0,0,1-.278-.356c-1.3-1.581-2.608-3.123-4.032-4.625-1.461-1.66-2.924-3.241-4.505-4.822-1.5-1.621-3.044-3.162-4.7-4.7-1.463-1.423-3.006-2.846-4.626-4.229l-.237-.237c-.83-.712-1.661-1.463-2.491-2.135q-1.3-1.127-2.608-2.135c-1.661-1.383-3.438-2.767-5.217-4.071-.91-.712-1.819-1.423-2.768-2.056s-1.9-1.3-2.806-1.976c-.4-.277-.79-.514-1.186-.791-1.7-1.146-3.479-2.293-5.257-3.4-2.056-1.3-4.15-2.53-6.285-3.716-.83-.474-1.621-.949-2.49-1.344-.83-.474-1.621-.87-2.49-1.3a23.6,23.6,0,0,0-2.451-1.225c-1.858-.949-3.8-1.858-5.732-2.727-.553-.277-1.146-.553-1.739-.79-1.384-.632-2.807-1.146-4.23-1.739a3.575,3.575,0,0,0-.83-.316c-.988-.435-1.976-.83-3-1.186-.949-.356-1.9-.712-2.925-1.028l-.079-.04-.04-.039c-.949-.356-1.937-.672-2.965-.988C79.348.988,77.648.514,75.988,0h82.891A93.414,93.414,0,0,1,252.44,93.523Z" transform="translate(87.501)" fill="url(#linear-gradient)"/>
    <path id="Path_12848" data-name="Path 12848" d="M309.37,78.026v78.5a93.409,93.409,0,0,1-93.563,93.563H116.039c-2.135-1.108-4.269-2.253-6.364-3.479h-.04c-.039-.039-.039-.039-.079-.039A167.092,167.092,0,0,1,32.99,149.845a160.1,160.1,0,0,1-5.178-23.557v-.08c-.553-3.756-.988-7.59-1.265-11.424A118.064,118.064,0,0,0,139.4,198.152c2.965,0,5.85-.08,8.7-.316h1.7a167.164,167.164,0,0,0,37.432-4.23.663.663,0,0,0,.159-.039c4.348-.99,8.617-2.175,12.847-3.518a166.65,166.65,0,0,0,107.12-105.58c.039-.04.039-.039.039-.079a.183.183,0,0,1,.041-.119C308.1,82.216,308.77,80.121,309.37,78.026Z" transform="translate(30.571 89.849)" fill="url(#linear-gradient)"/>
    <path id="Path_12849" data-name="Path 12849" d="M146.609,305.414H93.562A93.567,93.567,0,0,1,0,211.857V131.294c1.581-4.071,3.32-8.1,5.218-12.016L5.3,119.2c1.028-2.135,2.1-4.229,3.241-6.285.672-1.265,1.384-2.53,2.056-3.795,1.423-2.372,2.806-4.7,4.309-7,1.423-2.214,2.846-4.388,4.388-6.562s3.162-4.269,4.783-6.364,3.32-4.111,5.02-6.087,3.479-3.953,5.336-5.89,3.676-3.795,5.613-5.613c3.795-3.637,7.787-7.115,11.937-10.4,4.072-3.241,8.3-6.245,12.649-9.091a2.87,2.87,0,0,1,.356-.2c2.174-1.423,4.427-2.767,6.641-4.111a1.041,1.041,0,0,0,.356-.2l3.2-1.779c2.767-1.5,5.534-2.925,8.38-4.269,1.344-.672,2.727-1.265,4.111-1.9,1.7-.751,3.439-1.5,5.139-2.174,1.621-.633,3.281-1.265,4.941-1.9l.079-.039c1.028-.356,2.1-.751,3.123-1.107,1.463-.474,3-.988,4.506-1.423a33.091,33.091,0,0,1,3.2-.988c2.609-.751,5.257-1.462,7.906-2.055a6.8,6.8,0,0,1-.553.435,118.211,118.211,0,0,0-58.9,139.692c.277,3.834.712,7.668,1.265,11.424v.08a160.1,160.1,0,0,0,5.178,23.557,167.092,167.092,0,0,0,76.558,96.711c.039,0,.039,0,.079.039h.04C142.34,303.161,144.467,304.308,146.609,305.414Z" transform="translate(0 34.527)" fill="url(#linear-gradient)"/>
    <path id="Path_12850" data-name="Path 12850" d="M278.672,123.8c-.831-3.913-1.818-7.827-2.965-11.621-.355-1.265-.79-2.609-1.224-3.874-.159-.553-.278-.949-.357-1.146-.316-1.028-.671-2.056-1.026-3.044-.437-1.186-.83-2.411-1.345-3.6-.316-.83-.633-1.7-.988-2.569-.633-1.581-1.306-3.2-1.977-4.822-.79-1.779-1.581-3.558-2.412-5.3-.473-.949-.908-1.858-1.422-2.806-.435-.909-.91-1.858-1.383-2.767s-.988-1.9-1.543-2.846c-.71-1.423-1.54-2.767-2.332-4.111-1.067-1.858-2.212-3.676-3.32-5.494-.118-.04-.118-.079-.157-.2-1.226-1.858-2.451-3.676-3.716-5.455s-2.569-3.6-3.914-5.376S245.9,55.3,244.48,53.56a.847.847,0,0,1-.275-.356c-1.345-1.581-2.649-3.123-4.032-4.625-1.5-1.66-2.965-3.241-4.507-4.822s-3.042-3.162-4.7-4.7c-1.463-1.423-3-2.846-4.626-4.229l-.237-.237c-.83-.712-1.659-1.463-2.489-2.135L221,30.318c-1.659-1.383-3.438-2.767-5.217-4.071-.909-.672-1.858-1.344-2.767-2.055s-1.9-1.3-2.806-1.976c-.4-.277-.79-.514-1.186-.791-1.7-1.146-3.479-2.293-5.257-3.4-2.056-1.3-4.15-2.53-6.285-3.716-.83-.474-1.621-.949-2.49-1.344-.83-.474-1.621-.87-2.49-1.3a23.6,23.6,0,0,0-2.451-1.225c-1.858-.949-3.755-1.858-5.732-2.727-.553-.277-1.146-.553-1.739-.79-1.423-.632-2.806-1.225-4.229-1.739a3.573,3.573,0,0,0-.83-.316c-.988-.435-1.976-.83-3-1.186-.949-.356-1.9-.712-2.925-1.028l-.079-.04-.04-.039c-.949-.356-1.937-.672-2.965-.988-1.66-.593-3.36-1.067-5.02-1.581H93.523A93.511,93.511,0,0,0,0,93.538v72.285c1.621-4.15,3.4-8.222,5.336-12.175,2.253-4.664,4.743-9.17,7.392-13.558.672-1.146,1.423-2.293,2.174-3.439,1.423-2.213,2.846-4.388,4.388-6.562s3.083-4.269,4.783-6.364c1.581-2.055,3.241-4.111,5.02-6.087s3.478-3.992,5.336-5.89c1.779-1.937,3.676-3.834,5.613-5.613a157.172,157.172,0,0,1,11.938-10.4,149.128,149.128,0,0,1,12.609-9.012,2.385,2.385,0,0,1,.4-.277c2.1-1.383,4.19-2.688,6.364-3.953A173.8,173.8,0,0,1,92.812,72.02c1.621-.633,3.281-1.265,4.941-1.9l.079-.039c1.028-.356,2.1-.751,3.123-1.107a2.54,2.54,0,0,0,.514-.158c1.344-.474,2.688-.87,3.992-1.265a33.014,33.014,0,0,1,3.2-.988c2.609-.751,5.257-1.462,7.906-2.055-.2.119-.356.316-.553.435.435-.237.83-.4,1.225-.633h.119A116.438,116.438,0,0,1,169.97,51.9a117.675,117.675,0,0,1,80.439,31.662c.118.119.237.2.278.316a117.214,117.214,0,0,1,17.825,21.148l.041.039c.869,1.344,1.738,2.688,2.569,4.072a117.666,117.666,0,0,1,7.668,15.1,3.364,3.364,0,0,1-.118-.437Z" fill="url(#linear-gradient)"/>
    <g id="Group_10829" data-name="Group 10829" transform="translate(178.667 97.121)" opacity="0.08">
      <g id="Group_10828" data-name="Group 10828" opacity="0.08">
        <path id="Path_12851" data-name="Path 12851" d="M244.316,45.14V115.9A165.9,165.9,0,0,1,84.742,235.7h-1.7a118.034,118.034,0,0,0,96.567-64.391c.039-.039,0-.039,0-.039C204.117,143.17,227.635,102.891,244.316,45.14Z" transform="translate(-83.042 -45.14)"/>
      </g>
    </g>
    <g id="Group_10831" data-name="Group 10831" transform="translate(57.119 204.636)" opacity="0.08">
      <g id="Group_10830" data-name="Group 10830" opacity="0.08">
        <path id="Path_12852" data-name="Path 12852" d="M162.089,230.417h-46.05a166.112,166.112,0,0,1-89.491-135.3,117.7,117.7,0,0,0,32.176,51.466,251.084,251.084,0,0,0,103.365,83.834Z" transform="translate(-26.548 -95.112)"/>
      </g>
    </g>
    <g id="Group_10833" data-name="Group 10833" transform="translate(0 64.51)" opacity="0.08">
      <g id="Group_10832" data-name="Group 10832" opacity="0.08">
        <path id="Path_12853" data-name="Path 12853" d="M116.568,29.984a6.8,6.8,0,0,1-.553.435,118.8,118.8,0,0,0-33.2,25.456C58.066,77.338,27.274,111.767,0,165.05V131.294a152.226,152.226,0,0,1,8.538-18.38c.672-1.265,1.384-2.53,2.056-3.795,1.423-2.372,2.806-4.7,4.309-7,1.423-2.214,2.846-4.388,4.388-6.562s3.162-4.269,4.783-6.364,3.32-4.111,5.02-6.087,3.479-3.953,5.336-5.89,3.676-3.795,5.613-5.613c3.795-3.637,7.787-7.115,11.937-10.4,4.072-3.241,8.3-6.245,12.649-9.091a2.869,2.869,0,0,1,.356-.2c2.174-1.423,4.427-2.767,6.641-4.111a1.041,1.041,0,0,0,.356-.2l3.2-1.779c2.767-1.5,5.534-2.925,8.38-4.269,1.344-.672,2.727-1.265,4.111-1.9,1.7-.751,3.439-1.5,5.139-2.174,2.688-1.067,5.415-2.1,8.143-3.044,1.463-.474,3-.988,4.506-1.423a33.092,33.092,0,0,1,3.2-.988C111.263,31.288,113.919,30.576,116.568,29.984Z" transform="translate(0 -29.984)"/>
      </g>
    </g>
    <g id="Group_10835" data-name="Group 10835" transform="translate(93.562)" opacity="0.08">
      <g id="Group_10834" data-name="Group 10834" opacity="0.08">
        <path id="Path_12854" data-name="Path 12854" d="M228.714,124.236a117.667,117.667,0,0,0-7.668-15.1,18.908,18.908,0,0,0-2.569-4.072l-.041-.039a117.226,117.226,0,0,0-17.828-21.148c-.039-.119-.157-.2-.275-.316C174.442,56.288,127.048,21.543,43.487,0h69.925c1.66.514,3.36.988,5.02,1.581,1.028.316,2.016.632,2.965.988.04,0,.079.079.119.079,1.028.316,1.976.672,2.925,1.028,1.028.356,2.016.751,3,1.186a3.573,3.573,0,0,1,.83.316c1.423.514,2.806,1.107,4.229,1.739.593.237,1.186.514,1.739.79,1.976.87,3.874,1.779,5.731,2.727a23.58,23.58,0,0,1,2.451,1.225c.87.435,1.66.83,2.49,1.3.869.4,1.66.87,2.49,1.344,2.135,1.186,4.229,2.411,6.285,3.716,1.779,1.107,3.557,2.253,5.257,3.4.4.277.791.514,1.186.791.909.672,1.858,1.3,2.806,1.976s1.858,1.383,2.767,2.055c1.779,1.3,3.556,2.688,5.217,4.071l2.61,2.135c.828.672,1.659,1.423,2.489,2.135l.237.237c1.62,1.383,3.163,2.806,4.626,4.229,1.659,1.542,3.2,3.083,4.7,4.7s3,3.162,4.505,4.822c1.383,1.5,2.689,3.044,4.032,4.625a.87.87,0,0,0,.278.356c1.422,1.739,2.767,3.479,4.112,5.218s2.649,3.557,3.914,5.376,2.489,3.6,3.714,5.455c.041.119.041.158.159.2,1.106,1.818,2.253,3.636,3.32,5.494.792,1.344,1.62,2.688,2.332,4.111.553.949,1.028,1.9,1.543,2.846s.949,1.858,1.383,2.767c.514.949.949,1.858,1.422,2.806.83,1.739,1.62,3.518,2.412,5.3.671,1.621,1.343,3.241,1.975,4.822.357.87.673,1.739.99,2.569.514,1.186.908,2.411,1.343,3.6.357.988.712,2.016,1.028,3.044.08.2.2.593.355,1.146.239.87.594,2.174.99,3.637,1.145,4.269,2.687,10,3.2,11.858A3.052,3.052,0,0,0,228.714,124.236Z" transform="translate(-43.487)"/>
      </g>
    </g>
    <g id="Group_10837" data-name="Group 10837" transform="translate(58.381 216.138)" opacity="0.25">
      <g id="Group_10836" data-name="Group 10836" opacity="0.25">
        <path id="Path_12855" data-name="Path 12855" d="M108.957,220.782c-.039-.039-.039-.039-.079-.039a167.093,167.093,0,0,1-76.566-96.726,160.072,160.072,0,0,1-5.178-23.559c.158.435.751,2.649,1.818,6.166,1.146,3.955,2.925,9.566,5.336,16.089,1.3,3.281,2.609,6.8,4.19,10.435.751,1.859,1.621,3.716,2.53,5.613s1.739,3.8,2.727,5.732c1.9,3.914,4.111,7.786,6.364,11.7s4.743,7.827,7.352,11.582c2.53,3.834,5.257,7.55,8.064,11.108s5.652,6.995,8.577,10.2,5.731,6.246,8.577,9.054,5.494,5.336,8.182,7.707,4.981,4.428,7.234,6.285,4.15,3.361,5.771,4.665C106.894,219.145,108.76,220.584,108.957,220.782Z" transform="translate(-27.135 -100.458)"/>
      </g>
    </g>
    <g id="Group_10839" data-name="Group 10839" transform="translate(217.956 174.319)" opacity="0.25">
      <g id="Group_10838" data-name="Group 10838" opacity="0.25">
        <path id="Path_12856" data-name="Path 12856" d="M221.27,81.021A166.639,166.639,0,0,1,114.15,186.6c-4.23,1.343-8.5,2.53-12.847,3.518.553-.278,2.924-1.226,6.68-2.649,2.1-.869,4.981-1.7,7.707-3,2.926-1.383,6.444-2.689,9.882-4.467,1.741-.869,3.559-1.779,5.456-2.689,1.857-1.026,3.754-2.093,5.732-3.161a66.41,66.41,0,0,0,5.927-3.479c1.977-1.265,4.073-2.412,6.089-3.8s4.071-2.767,6.125-4.189,3.993-3.044,6.048-4.546,4.032-3.163,6.009-4.822,3.993-3.281,5.811-5.14c1.9-1.779,3.873-3.438,5.691-5.256s3.6-3.716,5.377-5.534c3.32-3.875,6.838-7.472,9.764-11.386,3.122-3.716,5.77-7.628,8.458-11.225,1.226-1.858,2.412-3.716,3.559-5.455a59.187,59.187,0,0,0,3.281-5.178c1.975-3.4,3.873-6.483,5.336-9.329s2.924-5.3,3.834-7.431C219.727,83.946,220.915,81.693,221.27,81.021Z" transform="translate(-101.303 -81.021)"/>
      </g>
    </g>
    <g id="Group_10841" data-name="Group 10841" transform="translate(5.296 70.123)" opacity="0.25">
      <g id="Group_10840" data-name="Group 10840" opacity="0.25">
        <path id="Path_12857" data-name="Path 12857" d="M94.918,32.592l-8.064,4.585c-2.727,1.463-5.336,3.123-7.984,4.7s-5.218,3.281-7.787,4.9l-.988.633-.83.593-1.937,1.344L65.43,50.7l-.949.672-.434.316c.04-.039.079-.079.079-.119l-.4.356-9.013,6.917-2.253,1.7-.593.4-.2.158h-.04v.04l-.039.039-.119.079-.949.83L46.3,65.875c-1.423,1.265-2.807,2.53-4.269,3.716L39.9,71.449l-1.858,1.779L34.124,77.1c-1.265,1.383-2.609,2.727-3.913,4.071L29.222,82.2l-.2.2-.04.04h-.04l-.039.079-.079.04-.435.553-1.9,2.135-1.858,2.1-.87.949-.909,1.067L19.182,93.7l-3.4,4.348L14,100.264l-1.66,2.213c-1.107,1.265-2.174,3.044-3.241,4.546-2.135,3.083-4.348,6.166-6.641,9.17,1.028-2.135,2.1-4.229,3.241-6.285.672-1.265,1.384-2.53,2.056-3.795,1.423-2.372,2.806-4.7,4.309-7,1.423-2.213,2.846-4.388,4.388-6.562s3.162-4.269,4.783-6.364,3.32-4.111,5.02-6.087,3.479-3.953,5.336-5.89,3.679-3.79,5.616-5.61C41,64.963,44.994,61.485,49.144,58.2c4.072-3.241,8.3-6.245,12.649-9.091a2.8,2.8,0,0,1,.355-.2c2.174-1.423,4.427-2.767,6.641-4.111a1.044,1.044,0,0,0,.356-.2l3.2-1.779c2.767-1.5,5.534-2.925,8.38-4.269,1.344-.672,2.727-1.265,4.111-1.9,1.7-.751,3.439-1.5,5.139-2.174Z" transform="translate(-2.462 -32.592)"/>
      </g>
    </g>
    <g id="Group_10843" data-name="Group 10843" transform="translate(171.584 2.633)" opacity="0.25">
      <g id="Group_10842" data-name="Group 10842" opacity="0.25">
        <path id="Path_12858" data-name="Path 12858" d="M178.933,96.541c-1.345-2.332-2.61-4.585-3.993-6.878l-1.026-1.7c-.357-.632-.594-1.067-.99-1.66l-2.093-3.36-2.1-3.281-2.214-3.32-4.032-5.89-.08-.079a2.483,2.483,0,0,1-.394-.514.141.141,0,0,0-.041-.079v-.04L159,65.906c-.512-.672-.949-1.3-1.5-1.937l-1.54-1.937-1.543-1.976-.671-.83-.792-.988-2.924-3.478-.08-.079a1.327,1.327,0,0,0-.237-.237,4.977,4.977,0,0,1-.355-.435c-1.383-1.462-2.689-3-3.993-4.427l-4.348-4.546-4.594-4.522-4.544-4.229-.12-.119v-.039h-.039c-1.147-1.028-2.294-2.056-3.518-3.083l-1.779-1.423-1.818-1.5-3.637-3-1.858-1.463-1.815-1.39c-.672-.474-1.186-.87-1.9-1.344l-1.818-1.3-1.937-1.383-.949-.712c-.119-.079-.4-.237-.4-.277l-.514-.316-3.953-2.648L102,13.794l-.119-.039c-1.225-.791-2.451-1.581-3.795-2.332L94.138,9.09,90.185,6.8,86.153,4.623l-.119-.079-.593-.316-.079-.04c-1.818-.949-3.716-2.016-5.613-2.965,1.028.316,1.976.672,2.925,1.028,1.028.356,2.016.751,3,1.186a3.574,3.574,0,0,1,.83.316c1.423.514,2.806,1.107,4.229,1.739.593.237,1.186.514,1.739.79,1.976.87,3.874,1.779,5.731,2.727a23.627,23.627,0,0,1,2.451,1.225c.87.435,1.66.83,2.49,1.3.87.4,1.66.87,2.49,1.344,2.135,1.186,4.229,2.411,6.285,3.716,1.779,1.107,3.558,2.253,5.257,3.4.4.277.791.514,1.186.791.909.672,1.858,1.3,2.806,1.976s1.858,1.383,2.768,2.055c1.777,1.3,3.556,2.688,5.217,4.072l2.608,2.135c.83.672,1.661,1.423,2.491,2.135l.237.237c1.62,1.383,3.163,2.806,4.626,4.229,1.659,1.542,3.2,3.083,4.7,4.7s3,3.162,4.505,4.822c1.383,1.5,2.689,3.044,4.032,4.625a.868.868,0,0,0,.278.356c1.422,1.739,2.767,3.478,4.112,5.218s2.646,3.558,3.911,5.376,2.491,3.6,3.716,5.455c.041.119.041.158.159.2,1.106,1.818,2.253,3.636,3.32,5.494.792,1.344,1.62,2.688,2.332,4.111.553.949,1.028,1.9,1.543,2.846s.947,1.858,1.383,2.767c.512.949.949,1.858,1.422,2.806.831,1.739,1.62,3.518,2.412,5.3C177.629,93.339,178.3,94.96,178.933,96.541Z" transform="translate(-79.75 -1.224)"/>
      </g>
    </g>
    <g id="Group_10845" data-name="Group 10845" transform="translate(58.373 216.123)" opacity="0.4">
      <g id="Group_10844" data-name="Group 10844" opacity="0.4">
        <path id="Path_12859" data-name="Path 12859" d="M108.875,220.734c-.474-.2-2.609-1.067-5.85-2.648-1.9-.908-4.151-2.016-6.68-3.477s-5.376-3.2-8.261-5.217a110.032,110.032,0,0,1-9.329-6.878,127.34,127.34,0,0,1-9.684-8.658,122.93,122.93,0,0,1-9.447-10.2c-3.044-3.636-5.969-7.47-8.7-11.422-2.688-4.032-5.218-8.144-7.471-12.294a67.053,67.053,0,0,1-3.2-6.285c-1.028-2.1-1.976-4.189-2.846-6.246A115.327,115.327,0,0,1,32.942,135.2c-1.3-3.914-2.174-7.707-3-11.186a112.357,112.357,0,0,1-2.53-17.115c-.277-3.677-.277-5.968-.277-6.444a160.023,160.023,0,0,0,5.178,23.559,167.08,167.08,0,0,0,76.562,96.72Z" transform="translate(-27.131 -100.451)" fill="#fff"/>
      </g>
    </g>
    <g id="Group_10847" data-name="Group 10847" transform="translate(217.956 174.319)" opacity="0.4">
      <g id="Group_10846" data-name="Group 10846" opacity="0.4">
        <path id="Path_12860" data-name="Path 12860" d="M221.27,81.021c-.118.632-.712,3.123-1.7,6.957-.553,2.292-1.5,4.98-2.569,8.064a104.635,104.635,0,0,1-4.073,10.2c-1.54,3.755-3.714,7.55-5.848,11.661a160.924,160.924,0,0,1-17.591,24.626c-1.859,1.936-3.677,3.914-5.534,5.85s-3.914,3.8-5.85,5.652-4.112,3.559-6.207,5.258-4.15,3.438-6.364,4.94a137.674,137.674,0,0,1-13.122,8.578,134.557,134.557,0,0,1-13,6.6c-2.175.91-4.191,1.9-6.207,2.687-2.1.712-4.071,1.424-6.009,2.1a105.489,105.489,0,0,1-10.474,3.124,75.341,75.341,0,0,1-8.341,1.659c-3.952.671-6.442,1.067-7.074,1.147,4.348-.988,8.617-2.175,12.847-3.518A166.639,166.639,0,0,0,221.27,81.021Z" transform="translate(-101.303 -81.021)" fill="#fff"/>
      </g>
    </g>
    <g id="Group_10849" data-name="Group 10849" transform="translate(54.312 98.662)" opacity="0.4">
      <g id="Group_10848" data-name="Group 10848" opacity="0.4">
        <path id="Path_12861" data-name="Path 12861" d="M25.243,45.975c.04-.079.119-.079.119-.119V45.9Z" transform="translate(-25.243 -45.857)" fill="#fff"/>
      </g>
    </g>
    <g id="Group_10851" data-name="Group 10851" transform="translate(5.219 70.123)" opacity="0.4">
      <g id="Group_10850" data-name="Group 10850" opacity="0.4">
        <path id="Path_12862" data-name="Path 12862" d="M94.96,32.592c-1.66.633-3.32,1.265-4.941,1.9A173.808,173.808,0,0,0,68.556,44.964c-2.174,1.265-4.269,2.569-6.364,3.953a2.374,2.374,0,0,0-.4.277,149.1,149.1,0,0,0-12.609,9.012A157.178,157.178,0,0,0,37.25,68.6c-1.937,1.779-3.834,3.676-5.613,5.613-1.858,1.9-3.6,3.874-5.336,5.89s-3.439,4.032-5.02,6.087c-1.7,2.1-3.281,4.23-4.783,6.364S13.533,96.9,12.11,99.118c-.751,1.146-1.5,2.293-2.174,3.439-2.648,4.388-5.139,8.894-7.392,13.558-.04.04-.079.119-.119.158,1.3-3.6,2.688-7.155,4.15-10.633.83-1.779,1.344-3.439,2.372-5.3l1.383-2.609,1.384-2.451c.949-1.739,1.739-3.2,2.925-5.06l3.162-4.7.79-1.186.909-1.265,3.478-4.506.435-.553.553-.672.909-1.107c1.225-1.423,2.411-2.886,3.676-4.309l4.071-4.15.988-1.028.751-.751.474-.435,2.1-1.9c1.384-1.265,2.846-2.49,4.309-3.716l4.308-3.676,1.067-.909.4-.316.158-.079.277-.237.593-.4L50.374,52.7l9.447-6.245-.4.356a7.093,7.093,0,0,1,1.107-.791L61,45.708l1.028-.554,2.055-1.107,2.056-1.107,1.107-.593,1.067-.553c2.846-1.423,5.732-2.609,8.657-3.795S82.9,35.825,85.9,34.837C88.873,33.936,91.956,33.225,94.96,32.592Z" transform="translate(-2.426 -32.592)" fill="#fff"/>
      </g>
    </g>
    <g id="Group_10853" data-name="Group 10853" transform="translate(240.607 54.114)" opacity="0.4">
      <g id="Group_10852" data-name="Group 10852" opacity="0.4">
        <path id="Path_12863" data-name="Path 12863" d="M111.831,25.151l.79,1.5-.2-.2a4.092,4.092,0,0,1-.59-1.3Z" transform="translate(-111.831 -25.151)" fill="#fff"/>
      </g>
    </g>
    <g id="Group_10855" data-name="Group 10855" transform="translate(253.493 70.518)" opacity="0.4">
      <g id="Group_10854" data-name="Group 10854" opacity="0.4">
        <path id="Path_12864" data-name="Path 12864" d="M117.82,32.776l.157.4a2.163,2.163,0,0,1-.157-.4Z" transform="translate(-117.82 -32.776)" fill="#fff"/>
      </g>
    </g>
    <g id="Group_10857" data-name="Group 10857" transform="translate(253.891 71.269)" opacity="0.4">
      <g id="Group_10856" data-name="Group 10856" opacity="0.4">
        <path id="Path_12865" data-name="Path 12865" d="M118,33.125l1.581,1.265a2.205,2.205,0,0,1-.594-.277,2.075,2.075,0,0,1-.553-.4l-.08-.079Z" transform="translate(-118.005 -33.125)" fill="#fff"/>
      </g>
    </g>
    <g id="Group_10859" data-name="Group 10859" transform="translate(171.591 2.648)" opacity="0.4">
      <g id="Group_10858" data-name="Group 10858" opacity="0.4">
        <path id="Path_12866" data-name="Path 12866" d="M178.929,96.533c-.633-1.581-1.306-3.2-1.977-4.822-.79-1.779-1.54-3.558-2.412-5.3-.473-.949-.908-1.858-1.422-2.806-.394-.909-.908-1.858-1.383-2.767s-.988-1.9-1.54-2.846c-.712-1.423-1.543-2.767-2.332-4.111-1.067-1.858-2.214-3.676-3.322-5.494-.118-.04-.118-.079-.157-.2-1.185-1.858-2.412-3.716-3.716-5.455-1.226-1.818-2.53-3.637-3.914-5.376-1.3-1.739-2.649-3.518-4.109-5.218a.851.851,0,0,1-.278-.356c-1.3-1.581-2.61-3.123-4.032-4.625-1.463-1.66-2.926-3.241-4.507-4.822-1.5-1.621-3.042-3.162-4.7-4.7-1.463-1.423-3-2.846-4.624-4.229l-.239-.237c-.828-.712-1.659-1.462-2.489-2.135q-1.3-1.126-2.608-2.135c-1.661-1.383-3.44-2.767-5.22-4.071-.909-.712-1.818-1.423-2.766-2.055s-1.9-1.3-2.806-1.976c-.4-.277-.791-.514-1.186-.791-1.7-1.146-3.478-2.293-5.257-3.4-2.055-1.3-4.15-2.53-6.285-3.716-.83-.474-1.621-.949-2.49-1.344-.83-.474-1.621-.87-2.49-1.3a23.626,23.626,0,0,0-2.451-1.225c-1.858-.949-3.795-1.858-5.731-2.727-.553-.277-1.146-.553-1.739-.79-1.383-.632-2.806-1.146-4.229-1.739a3.578,3.578,0,0,0-.83-.316c-.988-.435-1.977-.83-3-1.186-.949-.356-1.9-.712-2.925-1.028,2.056.4,4.151.83,6.166,1.423L87,2.974l-.119-.079,2.214.632,2.253.711,4.388,1.581,2.135.791,2.174.87c1.383.553,2.806,1.186,4.269,1.818l2.174.988,2.253,1.146,4.229,2.214.514.277.633.356,1.027.593,2.055,1.186,2.135,1.3c.633.356,1.383.87,2.056,1.3L123.44,20l1.939,1.344,3.873,2.846,1.9,1.423,1.936,1.541c1.226.949,2.451,2.016,3.716,3.044l.08.079.118.158.237.237-.118-.158,4.9,4.427,4.507,4.585,4.426,4.822c1.463,1.7,2.846,3.32,4.23,5.02l.08.158.712,1.344a3.8,3.8,0,0,0-.555-1.146l.12.119,2.963,3.992.712,1.028.831,1.107,1.383,2.056,1.383,2.1c.473.672.949,1.463,1.345,2.135l2.649,4.348.077.158a3.4,3.4,0,0,0-.949-.909c-.275-.119-.394-.158-.473-.2l1.422,1.107.041.079.118.079L168.9,70.4l.869,1.779c.4.751.635,1.225.91,1.858l1.7,3.558.792,1.818.79,1.937,1.463,3.676c.237.593.514,1.344.712,1.937l.592,1.858c.4,1.265.908,2.569,1.186,3.834Z" transform="translate(-79.753 -1.231)" fill="#fff"/>
      </g>
    </g>
    <path id="Path_12867" data-name="Path 12867" d="M45,87.684Q45,65.6,64.834,51.8T117.8,38q19.834,0,34.768,4.6,14.934,4.37,22.867,12.191Q191.3,70.2,191.3,90.214T174.969,123.8q-16.1,13.341-41.3,13.341-2.8,0-8.4-.46l2.1-16.791q31.034,0,31.034-28.753,0-13.341-11.434-22.542-11.9-9.661-35.467-9.661T74.167,70.893Q66,77.793,66,85.844q0,15.181,18.434,17.251l-2.8,17.022q-16.1-.69-26.367-10.121T45,87.684Zm82.135-16.792-10.267,65.786q29.634,14.031,29.634,41.4,0,20.012-10.734,28.293-10.5,8.052-25.434,8.051T87,206.834q-8.4-7.591-8.4-20.472a34.27,34.27,0,0,1,.233-4.6l14-106.5q12.134-5.75,20.534-5.75a56.716,56.716,0,0,1,13.768,1.381ZM117.1,193.493a13.137,13.137,0,0,0,9.567-3.909q4.2-3.911,4.2-13.111,0-16.332-15.867-25.763-3.733,26.912-3.734,32.432,0,5.293,1.633,7.821A5.255,5.255,0,0,0,117.1,193.493Z" transform="translate(51.819 43.758)" fill="url(#linear-gradient)"/>
    <path id="Path_12868" data-name="Path 12868" d="M15.758,205.272v-16.7a20.5,20.5,0,0,1,2.017-9.813q3.53-6.471,9.791-6.47a9.924,9.924,0,0,1,8.257,3.864,11.335,11.335,0,0,1,2.5,7.167,10.5,10.5,0,0,1-2.542,6.743q-3.152,3.866-9.266,3.866H19.96v9.456l-3.992,1.891Zm4.2-14.919h6.555q3.95,0,5.652-1.932a7.526,7.526,0,0,0,1.954-5.106,7.618,7.618,0,0,0-2.019-5.5,6.087,6.087,0,0,0-4.538-1.954q-3.866,0-6.177,4.538-1.429,2.817-1.429,8.174Zm27.4-3.09a13.6,13.6,0,0,0-.84,5.611,13.448,13.448,0,0,0,.861,5.631q1.387,2.772,3.782,2.773t3.782-2.773a18.4,18.4,0,0,0,0-11.261q-1.366-2.775-3.782-2.773t-3.8,2.793Zm-5.043,5.611a14.724,14.724,0,0,1,1.513-7.124q2.626-4.854,7.333-4.854t7.333,4.854A17.414,17.414,0,0,1,58.515,200q-2.669,4.854-7.354,4.854-4.622,0-7.333-4.854a14.559,14.559,0,0,1-1.512-7.125Zm23.406,7.186,3.32-1.556h.21q1.387,2.772,3.782,2.773a4.388,4.388,0,0,0,3.572-1.513,4.152,4.152,0,0,0,1.03-2.711,3,3,0,0,0-1.093-2.438,6.818,6.818,0,0,0-3.278-1.259,10.248,10.248,0,0,1-4.349-1.6,5.376,5.376,0,0,1-2.269-4.665,5.744,5.744,0,0,1,2.668-4.832,7.361,7.361,0,0,1,4.349-1.366,6.252,6.252,0,0,1,6.009,3.993l-3.32,1.556h-.21q-.946-1.975-2.479-1.975a3.181,3.181,0,0,0-2.038.63,2.492,2.492,0,0,0-.966,2.078,1.944,1.944,0,0,0,1.051,1.85,12.04,12.04,0,0,0,3.278,1.028,10.487,10.487,0,0,1,4.433,1.87,6.362,6.362,0,0,1,2.332,5.359,7.385,7.385,0,0,1-2.416,5.211,8.389,8.389,0,0,1-6.3,2.352q-4.71.005-7.315-4.784Zm24.394,5.211V184.89h-5.4v-.211l1.576-3.361h3.824v-7.565l3.992-1.891h.21v9.456h5.4v.209l-1.576,3.363H94.318v18.49l-3.992,1.891Zm30.571-8.763a11.728,11.728,0,0,1-1.2,3.488q-2.668,4.854-7.354,4.854-4.622,0-7.333-4.854a14.561,14.561,0,0,1-1.513-7.122,14.8,14.8,0,0,1,1.513-7.124q2.626-4.854,7.333-4.854,4.686,0,7.333,4.835a11.859,11.859,0,0,1,1.051,2.793l-12.186,9.919q1.408,2.837,3.845,2.836,2.374,0,3.74-2.773l4.56-2Zm-13.153-2.016,8.383-7.248q-1.365-2.775-3.782-2.773-2.374,0-3.782,2.773a13.448,13.448,0,0,0-.861,5.631c0,.574.015,1.112.043,1.618Zm19.456,10.779v-12.4a14.724,14.724,0,0,1,1.513-7.124q2.626-4.854,7.333-4.854h2.836v.211l-1.6,3.363h-1.24q-2.4,0-3.782,2.773a13.53,13.53,0,0,0-.861,5.631v10.506l-3.992,1.891Zm51.477,0v-16.7q0-5.338-1.429-8.174-2.311-4.538-6.177-4.538-3.908,0-6.177,4.538-1.429,2.837-1.429,8.174,0,5.38,1.429,8.174a11.707,11.707,0,0,0,5.568,5.4l-1.576,3.13h-.21q-4.559-1.556-7.4-6.891a20.889,20.889,0,0,1-2.017-9.813,20.58,20.58,0,0,1,2.017-9.813q3.509-6.471,9.791-6.47,6.177,0,9.707,6.323,3.53-6.326,9.707-6.323,6.282,0,9.791,6.47a20.581,20.581,0,0,1,2.016,9.813,20.889,20.889,0,0,1-2.016,9.813q-2.837,5.335-7.4,6.891h-.21l-1.576-3.13a11.712,11.712,0,0,0,5.568-5.4q1.429-2.817,1.428-8.174,0-5.338-1.428-8.174-2.29-4.538-6.177-4.538t-6.177,4.538q-1.429,2.837-1.429,8.174v14.813l-3.992,1.891Zm40.636,0v-2.943a5.452,5.452,0,0,1-4.518,2.522,7.9,7.9,0,0,1-6.115-2.373,8.014,8.014,0,0,1-2.186-5.611,7.745,7.745,0,0,1,2.375-5.714,8.062,8.062,0,0,1,5.925-2.27,5.519,5.519,0,0,1,4.432,2.313,15.391,15.391,0,0,0-.777-3.95q-1.407-2.775-3.782-2.773h-4.9v-.211l1.6-3.363h3.3q4.709,0,7.335,4.854a14.819,14.819,0,0,1,1.513,7.124v10.506l-3.993,1.891Zm-8.742-8.447A4.614,4.614,0,0,0,211.5,200a3.975,3.975,0,0,0,3.111,1.282,4.359,4.359,0,0,0,3.236-1.323,4.182,4.182,0,0,0,1.218-3.047,4.408,4.408,0,0,0-4.434-4.454,4.012,4.012,0,0,0-3.13,1.3,4.475,4.475,0,0,0-1.14,3.067Zm20.3,8.447V173.754l3.991-1.891h.211v17.5l8.068-8.888h.209l3.7,1.745-6.261,6.407a9.544,9.544,0,0,1,4.916,1.954,7.378,7.378,0,0,1,2.6,6.031,8.225,8.225,0,0,1-1.513,5.043,9.331,9.331,0,0,1-5.441,3.615h-.211l-1.575-3.13a7.257,7.257,0,0,0,3.655-1.975,5.906,5.906,0,0,0,.882-3.552,4.359,4.359,0,0,0-1.323-3.529,4.693,4.693,0,0,0-3.2-1.136,4.766,4.766,0,0,0-3.214,1.136,4.439,4.439,0,0,0-1.3,3.529v6.767l-3.993,1.891Zm41.139-8.763A11.714,11.714,0,0,1,270.6,200q-2.669,4.854-7.354,4.854-4.621,0-7.332-4.854a14.554,14.554,0,0,1-1.513-7.122,14.8,14.8,0,0,1,1.513-7.124q2.627-4.854,7.332-4.854,4.686,0,7.332,4.835a11.878,11.878,0,0,1,1.052,2.793l-12.186,9.919q1.407,2.837,3.845,2.836,2.372,0,3.739-2.773l4.559-2Zm-13.154-2.016,8.384-7.248q-1.365-2.775-3.782-2.773-2.375,0-3.782,2.773a13.447,13.447,0,0,0-.861,5.631c0,.574.012,1.112.04,1.618Zm19.455,10.78v-12.4a14.718,14.718,0,0,1,1.515-7.124q2.624-4.854,7.332-4.854h2.836v.211l-1.6,3.363h-1.239q-2.395,0-3.782,2.773a13.528,13.528,0,0,0-.861,5.631v10.506l-3.993,1.891Z" transform="translate(18.146 197.904)" fill="#fff"/>
  </g>
</svg>
